<svg width="75" height="75" viewBox="0 0 75 75" fill="none" xmlns="http://www.w3.org/2000/svg">
<g id="aprimoramento-de-processos-internos 1">
<path id="Vector" d="M41.0623 19.2188C41.1181 19.2188 41.1181 19.2188 41.1753 19.2188C44.2831 19.2253 47.5034 20.2641 49.8472 22.2985C49.9648 22.3984 50.0848 22.4949 50.2048 22.5915C50.7205 23.0148 50.7205 23.0148 50.8658 23.1634V23.2571C50.8913 23.2669 50.9169 23.2767 50.9431 23.2868C51.0945 23.3749 51.2009 23.4973 51.3172 23.6262C51.342 23.6534 51.3669 23.6805 51.3922 23.7087C52.0812 24.4727 52.6812 25.2837 53.2109 26.1649C53.2415 26.216 53.2415 26.216 53.2728 26.2676C55.1806 29.4738 55.5978 33.5332 54.7212 37.1426C54.2056 39.1394 53.1369 40.7848 51.8103 42.3457C51.5895 42.6054 51.3791 42.8707 51.1728 43.1426C51.0997 43.2368 51.0261 43.3301 50.9525 43.4238C49.7759 44.9285 49.0634 46.5879 48.7306 48.4863C48.7149 48.5744 48.6973 48.6626 48.6791 48.7502C48.7278 48.9401 48.8591 48.9954 49.0226 49.0919C49.0592 49.1135 49.0958 49.1351 49.1333 49.1571C49.2411 49.2298 49.2411 49.2298 49.3208 49.2977V49.3915C49.3672 49.4069 49.4136 49.4224 49.4614 49.4383C49.5364 49.5368 49.6039 49.6329 49.6695 49.7374C49.6883 49.767 49.7071 49.7965 49.7262 49.8274C49.8805 50.0777 49.9925 50.329 50.0708 50.6102C50.0812 50.647 50.0917 50.6838 50.1025 50.7218C50.2918 51.5046 50.1429 52.3108 49.7415 53.0046C49.2634 53.7218 48.6071 54.0874 47.7728 54.2702C47.7805 54.3223 47.7882 54.3748 47.7962 54.4287C47.9003 55.3052 47.6546 56.1068 47.1165 56.8005C46.7068 57.2477 46.1181 57.5599 45.5181 57.6724C45.3071 57.7751 45.2621 57.9401 45.175 58.1505C45.1386 58.2321 45.1018 58.3137 45.0653 58.3948C45.0473 58.435 45.0293 58.4754 45.0109 58.5166C44.4156 59.8057 43.4125 61.0198 42.0671 61.5354C41.7268 61.6441 41.4062 61.6971 41.05 61.6943C40.9914 61.6939 40.9914 61.6939 40.9318 61.6935C39.8584 61.6724 39.0146 61.0607 38.2928 60.3154C37.6834 59.6685 37.2615 58.8669 36.8631 58.0794C36.8387 58.0311 36.8387 58.0311 36.8139 57.9824C36.7018 57.7574 36.7018 57.7574 36.7018 57.6519C36.6592 57.6501 36.6592 57.6501 36.6156 57.6483C35.9687 57.6046 35.439 57.2794 34.9984 56.8139C34.4968 56.1904 34.3 55.5389 34.3046 54.7514C34.3049 54.7057 34.3051 54.66 34.3053 54.6131C34.3058 54.5011 34.3066 54.389 34.3076 54.277C34.2593 54.2634 34.2115 54.2497 34.1618 54.2356C33.3837 54.0087 32.7274 53.6684 32.3149 52.9372C31.9099 52.1075 31.7946 51.2591 32.0998 50.3778C32.3243 49.7966 32.7185 49.2247 33.2998 48.9622C33.387 48.8834 33.387 48.8834 33.387 48.7255C33.3749 48.4662 33.3227 48.2145 33.2707 47.9614C33.2601 47.9098 33.2495 47.8578 33.2385 47.8048C32.8307 45.8736 31.8838 44.2283 30.6135 42.7423C30.4363 42.5347 30.2666 42.3214 30.0979 42.1048C29.9877 41.9633 29.8771 41.8227 29.7637 41.6834C28.3574 39.9584 27.4902 38.1069 27.134 35.9178L27.1105 35.7791C26.9844 35.0056 26.9788 34.2322 26.976 33.4494C26.9754 33.3744 26.9754 33.3744 26.9749 33.2975C26.9694 32.3459 27.0485 31.4084 27.2453 30.4803C27.2602 30.4081 27.2602 30.4081 27.2755 30.3341C27.3561 29.953 27.4545 29.5794 27.5745 29.2091C27.6021 29.1237 27.6284 29.038 27.6552 28.9522C27.9275 28.0944 28.288 27.2787 28.7286 26.4959C28.7475 26.462 28.7664 26.428 28.7858 26.3928C29.1861 25.6756 29.6483 25.01 30.1827 24.3866C30.2216 24.3387 30.2605 24.2914 30.3008 24.2422C30.8633 23.5625 31.4914 22.9062 32.1992 22.3719C32.2459 22.3348 32.2925 22.2978 32.3408 22.2598C33.1799 21.5989 34.0939 21.0505 35.0595 20.5911C35.0945 20.5743 35.1294 20.5574 35.1655 20.54C36.9936 19.6634 39.0139 19.265 41.0249 19.2697L41.0623 19.2188ZM39.0701 21.6187C39.0259 21.6263 38.9816 21.6338 38.9361 21.6416C37.0798 21.9735 35.2845 22.776 33.8267 23.9619C33.7905 23.9901 33.7541 24.0182 33.717 24.0472C33.0467 24.5722 32.4373 25.1676 31.903 25.8379C31.8568 25.8932 31.8568 25.8932 31.8097 25.9499C30.0987 28.0171 29.2691 30.6843 29.2644 33.3562C29.2643 33.3977 29.2643 33.4391 29.2643 33.4818C29.2651 34.1802 29.2994 34.8646 29.4166 35.5583C29.4247 35.6057 29.4327 35.6535 29.441 35.7022C29.778 37.6147 30.6551 39.2554 31.9207 40.7179C32.0665 40.8862 32.2076 41.0582 32.3477 41.2288C32.4316 41.3315 32.5155 41.4341 32.5999 41.5358C33.4108 42.5155 34.1327 43.5374 34.6624 44.6952C34.6779 44.7285 34.6933 44.7618 34.7092 44.796C35.2248 45.9163 35.5483 47.1679 35.6702 48.3913C35.6773 48.4401 35.6844 48.4888 35.6918 48.5394C35.8483 48.6177 36.0241 48.5929 36.198 48.5929C36.2411 48.593 36.2843 48.5932 36.3283 48.5933C36.4736 48.5937 36.6185 48.5938 36.7638 48.5938C36.8674 48.5941 36.971 48.5943 37.0751 48.5945C37.3572 48.5952 37.6376 48.5955 37.9235 48.5957C38.0997 48.5958 38.276 48.596 38.4532 48.5962C38.9407 48.5968 39.4282 48.5973 39.9157 48.5974C39.9625 48.5974 39.9625 48.5974 40.0104 48.5975C40.0572 48.5975 40.0572 48.5975 40.1051 48.5975C40.1683 48.5975 40.2321 48.5975 40.2954 48.5975C40.3427 48.5976 40.3427 48.5976 40.3905 48.5976C40.9015 48.5978 41.4124 48.5986 41.9186 48.5997C42.4436 48.6008 42.964 48.6014 43.489 48.6014C43.7829 48.6015 44.0749 48.6018 44.3702 48.6026C44.6463 48.6034 44.9233 48.6035 45.1999 48.6031C45.3016 48.603 45.4033 48.6032 45.5046 48.6037C45.6429 48.6043 45.7811 48.604 45.9194 48.6035C45.96 48.6039 46.0005 48.6043 46.0422 48.6047C46.2429 48.6094 46.2429 48.6094 46.4154 48.5226C46.5026 48.4129 46.5115 48.3154 46.533 48.1781C46.5419 48.1242 46.5508 48.0703 46.56 48.0145C46.5737 47.9278 46.5737 47.9278 46.5876 47.8397C47.0352 45.1865 48.2516 43.1053 49.9766 41.0897C50.2035 40.8234 50.4206 40.5506 50.6282 40.2693C50.6729 40.2098 50.7177 40.1498 50.7632 40.0908C51.7616 38.7689 52.432 37.3204 52.7085 35.6845C52.7155 35.6461 52.7225 35.6076 52.7298 35.5683C52.8577 34.8417 52.8638 34.1151 52.8666 33.3839C52.8672 33.3131 52.8672 33.3131 52.8677 33.2409C52.8857 30.2784 51.7568 27.4753 49.7552 25.2722C49.6892 25.1981 49.6254 25.1217 49.564 25.0434C49.4824 24.9431 49.4037 24.8639 49.3052 24.7809C49.1515 24.6497 49.0024 24.5142 48.8543 24.3768C48.3621 23.9301 47.8277 23.5565 47.2699 23.1956C47.2296 23.1696 47.1893 23.1436 47.1476 23.1168C45.9195 22.3528 44.4757 21.8325 43.0507 21.6028C43.0075 21.5958 42.9645 21.5889 42.9199 21.5817C41.6496 21.3872 40.3324 21.3863 39.0668 21.6028L39.0701 21.6187ZM36.3889 50.775C36.1048 50.7766 35.8217 50.7794 35.5358 50.784C35.4505 50.7853 35.3647 50.7862 35.2794 50.7869C35.1636 50.7879 35.0473 50.79 34.9316 50.7925C34.8814 50.7926 34.8814 50.7926 34.8298 50.7927C34.6067 50.7994 34.4937 50.8522 34.333 51.0088C34.2261 51.1513 34.2195 51.2999 34.2247 51.4762C34.2496 51.6379 34.3198 51.7316 34.4267 51.8526C34.6841 52.0246 34.9236 52.0129 35.2236 52.011C35.2756 52.0112 35.3276 52.0114 35.3816 52.0117C35.5564 52.0122 35.7308 52.0118 35.9066 52.0113C36.0317 52.0115 36.1569 52.0118 36.282 52.0121C36.5867 52.0127 36.8914 52.0126 37.1961 52.0122C37.4436 52.0118 37.693 52.0118 37.9414 52.012C37.9766 52.012 38.0117 52.012 38.0483 52.012C38.12 52.0121 38.1917 52.0121 38.2634 52.0122C38.9337 52.0126 39.6087 52.0121 40.2791 52.0113C40.8556 52.0107 41.4322 52.0108 42.0087 52.0115C42.6791 52.0122 43.3494 52.0125 44.015 52.0121C44.0862 52.012 44.158 52.012 44.2292 52.012C44.2817 52.0119 44.2817 52.0119 44.3356 52.0119C44.5831 52.0118 44.8325 52.012 45.0762 52.0123C45.3776 52.0127 45.6809 52.0126 45.9809 52.0118C46.1347 52.0115 46.2884 52.0114 46.4426 52.0118C46.6095 52.0122 46.7764 52.0117 46.9442 52.011C47.0173 52.0115 47.0173 52.0115 47.0914 52.012C47.3853 52.0095 47.593 51.9758 47.8273 51.7823C47.9567 51.6187 47.9431 51.442 47.93 51.2432C47.8545 51.0473 47.7866 50.923 47.6019 50.8213C47.4589 50.8001 47.3169 50.8016 47.1725 50.8023C47.1285 50.802 47.0844 50.8017 47.0394 50.8013C46.8917 50.8003 46.7441 50.8003 46.5964 50.8003C46.4905 50.7998 46.3845 50.7993 46.2791 50.7987C45.9908 50.7972 45.7025 50.7965 45.4119 50.7961C45.1086 50.7955 44.8072 50.7941 44.5025 50.7928C43.9916 50.7908 43.4806 50.7893 42.9697 50.7881C42.4494 50.787 41.9244 50.7854 41.4041 50.7833C41.3722 50.7831 41.3403 50.783 41.3075 50.7829C41.2757 50.7827 41.2437 50.7826 41.2109 50.7825C41.1467 50.7822 41.0825 50.782 41.0183 50.7817C40.9709 50.7815 40.9709 50.7815 40.9222 50.7813C40.3878 50.7792 39.8581 50.7775 39.3237 50.7758C39.1451 50.7752 38.967 50.7746 38.7894 50.7739C37.9878 50.7711 37.1862 50.7713 36.3894 50.7752L36.3889 50.775ZM36.6795 54.4312C36.5651 54.6136 36.5778 54.7805 36.6073 54.9844C36.6447 55.1339 36.7072 55.2164 36.8201 55.3195C37.0109 55.4161 37.1708 55.425 37.3826 55.425C37.4152 55.4251 37.4478 55.4253 37.4811 55.4254C37.5898 55.4258 37.6981 55.4255 37.8069 55.4252C37.8847 55.4254 37.963 55.4255 38.0408 55.4257C38.2526 55.4261 38.4641 55.426 38.6736 55.4257C38.8953 55.4254 39.117 55.4257 39.3392 55.4258C39.7114 55.426 40.0845 55.4258 40.4548 55.4253C40.8851 55.4248 41.3173 55.425 41.7439 55.4255C42.1133 55.4259 42.4845 55.426 42.8548 55.4257C43.0756 55.4256 43.2959 55.4256 43.5158 55.4259C43.7234 55.4261 43.9306 55.4259 44.1392 55.4254C44.2151 55.4253 44.2916 55.4253 44.3675 55.4255C44.4716 55.4258 44.5756 55.4255 44.6797 55.425C44.7378 55.425 44.7959 55.4249 44.8559 55.4249C45.087 55.4083 45.282 55.3766 45.4606 55.2229C45.5633 55.0377 45.5933 54.8746 45.5834 54.665C45.5131 54.4654 45.4381 54.3496 45.2553 54.2432C45.0978 54.2218 45.0978 54.2218 44.9178 54.225C44.8837 54.2247 44.8498 54.2245 44.8147 54.2242C44.7003 54.2235 44.5864 54.2239 44.472 54.2242C44.39 54.2239 44.3084 54.2236 44.2264 54.2232C44.0042 54.2224 43.7816 54.2225 43.5608 54.2227C43.3751 54.2229 43.1895 54.2226 43.003 54.2223C42.5651 54.2216 42.1264 54.2217 41.6905 54.2222C41.2386 54.2228 40.7858 54.2221 40.3358 54.2209C39.9481 54.2198 39.5623 54.2195 39.1733 54.2198C38.9417 54.2199 38.7101 54.2198 38.4795 54.219C38.2616 54.2183 38.0441 54.2185 37.828 54.2194C37.7478 54.2195 37.6681 54.2194 37.588 54.2189C37.4787 54.2183 37.37 54.2188 37.2608 54.2197C37.1694 54.2197 37.1694 54.2197 37.0756 54.2197C36.8905 54.2471 36.8145 54.3003 36.6828 54.4306L36.6795 54.4312ZM39.3045 57.6656C39.351 57.8977 39.4236 58.0266 39.5595 58.2094C39.5805 58.2381 39.6015 58.2666 39.6233 58.2961C39.9772 58.7742 40.3639 59.2898 40.978 59.4258C41.3858 59.4504 41.6717 59.2327 41.9717 58.9819C42.3237 58.6547 42.642 58.2319 42.867 57.8053V57.6647H39.3045V57.6656Z" fill="#FFEDDA"/>
<path id="Vector_2" d="M67.6408 6.14076C67.7885 6.25654 67.9319 6.37747 68.0744 6.49982C68.1391 6.54904 68.1391 6.54904 68.2052 6.59919C68.2563 6.64269 68.2563 6.64269 68.3088 6.68732V6.78107C68.3349 6.79152 68.3608 6.80197 68.3875 6.81276C69.5454 7.47369 70.3188 9.41432 70.6516 10.6237C70.9774 11.9503 71.0102 13.3706 70.6985 14.7018C70.6902 14.7377 70.6819 14.7735 70.6734 14.8106C70.364 16.0949 69.6937 17.3278 68.789 18.2887C68.6972 18.3867 68.6118 18.487 68.5265 18.591C67.2703 20.0254 65.1609 20.8973 63.2765 21.0285C61.425 21.1007 59.4562 20.7918 57.9328 19.627C57.7982 19.5154 57.7982 19.5154 57.6872 19.536C57.5831 19.5781 57.5273 19.6228 57.4486 19.7024C57.4215 19.7294 57.3942 19.7563 57.3665 19.784C57.3377 19.8133 57.3089 19.8426 57.2793 19.8731C57.2492 19.9033 57.2189 19.9335 57.1879 19.9649C57.1242 20.0292 57.0604 20.0934 56.9967 20.1581C56.9006 20.2556 56.8036 20.3531 56.707 20.4501C56.6447 20.5129 56.5828 20.5753 56.5204 20.6381C56.4919 20.6668 56.4632 20.6953 56.4342 20.7248C56.2584 20.9034 56.0929 21.0876 55.9326 21.2826C55.859 21.3571 55.859 21.3571 55.7184 21.404V21.4978C55.6537 21.5737 55.6537 21.5737 55.5778 21.6384H55.484C55.4718 21.6658 55.4596 21.6932 55.447 21.7213C55.3453 21.9084 55.1855 22.0457 55.0359 22.1948C55.0041 22.2274 54.9722 22.2599 54.9394 22.2937C54.5869 22.6467 54.2409 22.9124 53.7347 22.9687C53.4056 22.9352 53.1347 22.8328 52.9097 22.5881C52.6974 22.3171 52.5933 22.0443 52.6102 21.6974C52.6589 21.3567 52.8319 21.1349 53.0639 20.8912C53.0887 20.8647 53.1136 20.8382 53.1389 20.811C53.4174 20.5143 53.7014 20.2251 53.992 19.9392C54.0488 19.8824 54.1055 19.8253 54.1622 19.7685C54.2799 19.6509 54.3975 19.5332 54.5152 19.4156C54.6661 19.2646 54.817 19.1132 54.9675 18.9618C55.0838 18.8446 55.2005 18.7279 55.3172 18.6112C55.373 18.5554 55.4288 18.4996 55.4841 18.4434C55.5609 18.366 55.6383 18.2887 55.7161 18.2113C55.739 18.1882 55.7619 18.165 55.7855 18.141C55.9439 17.984 55.9439 17.984 56.0484 17.984C55.9331 17.7642 55.8127 17.5565 55.6645 17.3559C55.0552 16.4981 54.6755 15.4856 54.4552 14.4684C54.4474 14.4333 54.4397 14.3981 54.4317 14.362C54.0422 12.5057 54.3778 10.4479 55.2989 8.78385C55.3147 8.75502 55.3306 8.72619 55.3467 8.69666C56.0077 7.50604 56.9358 6.54041 58.0655 5.78572C58.0957 5.76529 58.1259 5.7448 58.1569 5.72385C60.9928 3.83479 64.9538 4.08791 67.6256 6.12979L67.6408 6.14076ZM61.0314 6.92357C60.9771 6.93861 60.9771 6.93861 60.9213 6.95399C59.3932 7.38993 58.1041 8.44461 57.326 9.82274C56.5994 11.1399 56.3275 12.7149 56.7213 14.1868C56.7291 14.2184 56.7369 14.2501 56.7449 14.2829C57.0219 15.4032 57.6543 16.4485 58.5027 17.236H58.5965V17.3298C58.6963 17.4137 58.7957 17.491 58.9012 17.567C58.9328 17.5899 58.9644 17.6128 58.9968 17.6363C60.3515 18.602 61.9452 19.0145 63.5952 18.7566C63.9735 18.6915 64.3312 18.587 64.6921 18.4562C64.7399 18.4389 64.7877 18.4216 64.8369 18.4037C66.0744 17.9209 67.0916 17.0537 67.7854 15.924C67.803 15.8956 67.8205 15.8673 67.8388 15.8382C68.1426 15.3366 68.3263 14.7976 68.4904 14.2351C68.5074 14.176 68.5245 14.1174 68.5419 14.0565C68.833 12.8143 68.6587 11.394 68.1154 10.2502C68.1022 10.222 68.0889 10.194 68.0754 10.1649C67.8372 9.66336 67.5269 9.22743 67.18 8.79618C67.1548 8.76486 67.1294 8.73336 67.1036 8.70149C67.0787 8.6714 67.0539 8.64149 67.0282 8.61008C66.9944 8.56916 66.9944 8.56916 66.9597 8.52758C66.9016 8.45727 66.9016 8.45727 66.805 8.46805V8.3743C65.6332 7.24461 64.0582 6.70555 62.455 6.71493C61.9675 6.72524 61.5129 6.7918 61.0394 6.92211L61.0314 6.92357Z" fill="#FFEDDA"/>
<path id="Vector_3" d="M65.2033 55.7345C65.463 55.96 65.7096 56.1944 65.9533 56.4377C65.982 56.4641 66.0105 56.4906 66.04 56.5178C67.3713 57.7694 68.1869 59.8506 68.2572 61.6741C68.3125 63.7366 67.825 65.6303 66.565 67.2991C66.5343 67.3395 66.5036 67.3797 66.4722 67.4214C65.8066 68.2699 65.005 68.912 64.0816 69.4558C64.0527 69.4729 64.024 69.4899 63.994 69.5074C62.1471 70.5855 59.8502 70.7683 57.8065 70.2527C56.3533 69.8636 55.1346 69.0808 54.0565 68.0495C54.0302 68.0245 54.004 67.9994 53.9768 67.9736C52.5236 66.558 51.7268 64.4486 51.6893 62.4424C51.676 61.1252 51.9157 59.897 52.4768 58.7017C52.5335 58.5761 52.571 58.4758 52.6005 58.3445C52.2907 58.0553 51.9771 57.7774 51.6443 57.5102C51.4807 57.3756 51.3255 57.2331 51.1708 57.0906C51.0532 56.9861 50.9327 56.8877 50.8099 56.7897C49.7083 55.8897 49.7083 55.8897 49.6333 55.3319C49.6166 55.0253 49.7065 54.7741 49.8677 54.5163C50.1204 54.2636 50.3927 54.1211 50.7536 54.1089C51.2786 54.1171 51.5833 54.3977 51.9443 54.7417C52.0736 54.8655 52.2096 54.9794 52.3493 55.0914C52.5161 55.2255 52.6774 55.3633 52.8368 55.5077C53.0411 55.6938 53.2521 55.8695 53.4649 56.042C53.5699 56.1278 53.6711 56.2164 53.7719 56.3069C53.9004 56.4358 53.9004 56.4358 54.0532 56.4213C54.1361 56.3453 54.2116 56.2689 54.2875 56.1869C54.5102 55.9506 54.7441 55.7509 55.0094 55.5634C55.0647 55.5241 55.0647 55.5241 55.121 55.4842C58.1444 53.3561 62.3397 53.3889 65.1991 55.7659L65.2033 55.7345ZM55.4065 58.2049C54.783 58.9267 54.3096 59.8267 54.0705 60.7502C54.0565 60.8013 54.0425 60.8528 54.028 60.9053C53.6812 62.3959 53.977 64.0459 54.764 65.3491C55.2609 66.1366 55.8984 66.8209 56.6952 67.3131C56.7381 67.3412 56.781 67.3694 56.8251 67.3984C57.5001 67.8217 58.2595 68.0641 59.0376 68.2047C59.0877 68.2137 59.1384 68.2226 59.1899 68.2318C60.7274 68.4048 62.293 68.0391 63.5352 67.1021C63.5985 67.0491 63.6609 66.9957 63.7227 66.9409C63.7785 66.8926 63.7785 66.8926 63.8352 66.8434C63.9557 66.7369 64.0738 66.6287 64.1915 66.519C64.2505 66.4646 64.2505 66.4646 64.3105 66.4093C64.6176 66.1159 64.8543 65.7952 65.084 65.439C65.1089 65.4027 65.1337 65.3663 65.1595 65.3288C66.0079 64.0351 66.1626 62.3569 65.8766 60.871C65.683 59.9757 65.2204 58.9304 64.5688 58.2648H64.4751C64.4574 58.2244 64.4574 58.2244 64.4394 58.1832C63.9659 57.3207 62.6206 56.6879 61.73 56.416C59.4284 55.7598 56.9956 56.4117 55.4019 58.2019L55.4065 58.2049Z" fill="#FFEDDA"/>
<path id="Vector_4" d="M17.7189 27.9373C17.7577 27.9709 17.7967 28.0048 17.8365 28.0395C18.6053 28.7145 19.1819 29.4457 19.6881 30.327C19.7056 30.3576 19.7232 30.3884 19.7411 30.4198C19.9558 30.8018 20.1161 31.1979 20.2614 31.6151C20.2759 31.656 20.2903 31.6971 20.3053 31.7393C20.4806 32.269 20.5701 32.8268 20.6746 33.3753C20.7053 33.375 20.736 33.3748 20.7674 33.3746C21.0885 33.3725 21.4096 33.3711 21.7284 33.3701C21.8479 33.3696 21.9674 33.369 22.087 33.3682C22.2595 33.367 22.432 33.3665 22.6026 33.3661C22.6556 33.3656 22.7085 33.3651 22.7629 33.3646C23.2045 33.3646 23.6113 33.3758 23.9629 33.667C24.1987 33.906 24.3126 34.1498 24.3412 34.4826C24.3345 34.7812 24.239 35.0404 24.0459 35.2654C23.6428 35.6498 23.2349 35.6381 22.7006 35.6334C22.6396 35.6333 22.5787 35.6331 22.5163 35.633C22.3556 35.6326 22.1953 35.6317 22.0335 35.6307C21.869 35.6297 21.7049 35.6293 21.5413 35.6288C21.2198 35.6278 20.8992 35.6262 20.5757 35.6242C20.5707 35.6504 20.5657 35.6767 20.5605 35.7034C20.5371 35.8244 20.5136 35.9453 20.4897 36.0663C20.4818 36.1074 20.4739 36.1488 20.4658 36.1909C20.2089 37.4941 19.5658 38.7456 18.6705 39.7253C18.6067 39.7956 18.5439 39.8673 18.4816 39.9391C18.0513 40.4313 17.5581 40.8438 17.0144 41.2C16.9502 41.243 16.9502 41.243 16.8846 41.2867C16.2189 41.7147 15.483 42.0742 14.7189 42.2758C14.6814 42.2859 14.6439 42.2959 14.6055 42.3063C12.4399 42.8735 10.2133 42.6021 8.23049 41.5235C7.93987 41.3501 7.6633 41.1593 7.38674 40.961C7.35135 40.9359 7.31596 40.9108 7.2794 40.8851C7.22783 40.8476 7.22783 40.8476 7.17487 40.8096C7.14351 40.787 7.11205 40.7644 7.07971 40.7411C7.05707 40.7209 7.03448 40.7007 7.01127 40.6797V40.586C6.98366 40.5735 6.95596 40.5611 6.92737 40.5482C5.65705 39.8638 4.80862 37.9841 4.4008 36.6763C3.7633 34.5154 4.05252 32.2466 5.09455 30.2545C5.4269 29.6498 5.85393 29.0123 6.35549 28.5295H6.44924C6.46471 28.4831 6.48018 28.4366 6.49612 28.3888H6.58987V28.2951C6.65924 28.2243 6.65924 28.2243 6.7544 28.1437C6.7888 28.1145 6.8233 28.0851 6.85846 28.0551C9.94283 25.5004 14.5928 25.1816 17.6866 27.9201L17.7189 27.9373ZM9.32826 29.0623C9.26076 29.0996 9.26076 29.0996 9.19185 29.1378C8.70904 29.4246 8.25435 29.8221 7.87466 30.2346V30.3284H7.78091C7.68998 30.4409 7.60607 30.5529 7.5231 30.671C7.49816 30.7065 7.47341 30.7418 7.44763 30.7788C6.82888 31.6835 6.36482 32.7335 6.32732 33.8445C6.32611 33.8762 6.3249 33.9078 6.32366 33.9406C6.27678 35.3421 6.61241 36.6874 7.45335 37.8265C7.48049 37.8641 7.50772 37.9015 7.53538 37.9404C7.98022 38.5263 8.51506 39.0326 9.1385 39.4217C9.18411 39.4509 9.22991 39.4803 9.27678 39.5103C10.6315 40.3446 12.2908 40.5462 13.8283 40.1806C15.3799 39.7812 16.7533 38.7837 17.5783 37.4056C18.4033 35.9853 18.633 34.3118 18.2252 32.7228C17.9946 31.8884 17.5924 31.0728 17.0158 30.4212C16.9826 30.3823 16.9493 30.3434 16.9151 30.3035C15.926 29.1738 14.4963 28.391 12.9823 28.2645C11.6416 28.2063 10.5026 28.4084 9.326 29.0613L9.32826 29.0623Z" fill="#FFEDDA"/>
<path id="Vector_5" d="M41.7187 26.0621C42.0604 26.3349 42.2531 26.7043 42.4499 27.0887C42.5076 27.1983 42.5657 27.308 42.6234 27.4177C42.6649 27.4965 42.6649 27.4965 42.7073 27.5771C42.802 27.7562 42.9004 27.9324 43.0007 28.1068C43.1198 28.3154 43.236 28.5249 43.3499 28.7349C43.3751 28.7815 43.4001 28.8282 43.4259 28.876C43.4751 28.9674 43.5243 29.0593 43.5731 29.1507C43.5957 29.1926 43.6182 29.2346 43.6415 29.2777C43.6714 29.3335 43.6714 29.3335 43.702 29.3907C43.8506 29.6424 43.8506 29.6424 44.0971 29.7849C44.1524 29.7948 44.2078 29.8047 44.2649 29.8149C44.2956 29.8206 44.3263 29.8263 44.3577 29.8323C44.459 29.851 44.5602 29.8684 44.6615 29.8857C44.7323 29.8986 44.8035 29.9116 44.8743 29.9247C45.0609 29.9589 45.2479 29.9922 45.4368 30.025C45.6623 30.0647 45.8873 30.1056 46.1118 30.1464C46.2876 30.1783 46.4629 30.2102 46.6368 30.2411C47.9352 30.4717 47.9352 30.4717 48.2868 30.8973C48.4837 31.1842 48.5301 31.4505 48.4785 31.7927C48.4148 32.0772 48.2292 32.3317 48.0346 32.5473H47.9409C47.9252 32.5862 47.9252 32.5862 47.9092 32.6256C47.8276 32.7691 47.7226 32.8666 47.604 32.9809C47.3931 33.1877 47.1943 33.4005 47.004 33.6278C46.9473 33.6934 46.8911 33.7586 46.8343 33.8242C46.7972 33.8672 46.7972 33.8672 46.7593 33.9114C46.6173 34.068 46.465 34.2147 46.3145 34.3633C46.2715 34.4059 46.2282 34.4486 46.1842 34.4922C46.1412 34.5347 46.0979 34.577 46.0539 34.6211C46.0118 34.6646 45.97 34.7083 45.9264 34.7533C45.8851 34.796 45.8439 34.8386 45.8012 34.8827C45.6709 35.0636 45.6681 35.1287 45.6901 35.3472C45.6931 35.3788 45.696 35.4105 45.699 35.4428C45.7104 35.5572 45.7243 35.6706 45.7386 35.7845C45.7443 35.8304 45.7499 35.8764 45.7557 35.9237C45.8101 36.3616 45.8687 36.8003 45.9291 37.2362C46.081 38.3425 46.081 38.3425 46.0885 38.8675C46.09 38.9191 46.09 38.9191 46.0914 38.9716C46.0892 39.2641 45.9864 39.5012 45.8022 39.7216C45.5186 39.955 45.2256 40.0914 44.8506 40.0745C44.6763 40.0452 44.5272 39.9817 44.3678 39.9086C44.3353 39.894 44.3027 39.8794 44.2689 39.8644C43.9249 39.7097 43.5846 39.5485 43.2424 39.3863C43.1331 39.3342 43.0235 39.2827 42.9138 39.2306C42.5814 39.0736 42.2481 38.9161 41.92 38.7572C41.8197 38.7094 41.7194 38.6616 41.6196 38.6133C41.5748 38.591 41.53 38.5687 41.4841 38.5458C41.4429 38.5263 41.4016 38.5068 41.3594 38.4867C41.3069 38.4612 41.3069 38.4612 41.2535 38.4352C41.0191 38.3831 40.7866 38.5364 40.5785 38.6344C40.5231 38.6604 40.4678 38.6864 40.4106 38.7131C40.3814 38.7269 40.3521 38.7407 40.3221 38.7549C40.2297 38.7985 40.1369 38.8421 40.0446 38.8852C39.7525 39.0221 39.4586 39.1599 39.168 39.2972C39.0433 39.3558 38.9186 39.4144 38.7939 39.473C38.7067 39.514 38.62 39.5551 38.5333 39.5963C37.3146 40.1682 37.3146 40.1682 36.8458 40.0083C36.4886 39.8462 36.2692 39.6263 36.1286 39.2537C36.0391 38.858 36.1149 38.4662 36.1764 38.0724C36.1948 37.9538 36.2122 37.8347 36.2294 37.7157C36.2777 37.3777 36.3264 37.0407 36.3794 36.7032C36.4118 36.496 36.4417 36.2883 36.4703 36.0797C36.4816 36.001 36.4937 35.9227 36.5067 35.8444C36.5873 35.3949 36.5873 35.3949 36.4654 34.9679C36.3599 34.8376 36.2526 34.7251 36.1284 34.613C36.0768 34.5601 36.0257 34.5066 35.9742 34.4532C35.9312 34.4122 35.8884 34.3712 35.8438 34.329C35.7651 34.2535 35.6873 34.1771 35.6123 34.0974V34.0037H35.5185C35.4506 33.9352 35.4506 33.9352 35.3713 33.8405C35.2532 33.7018 35.1332 33.5668 35.0076 33.4346C34.9622 33.3868 34.9622 33.3868 34.9157 33.3385C34.8534 33.2733 34.7915 33.2087 34.7292 33.1435C34.6992 33.112 34.6692 33.0802 34.6382 33.0479C34.6114 33.0198 34.5843 32.9916 34.5567 32.963C34.4849 32.8768 34.439 32.7933 34.3931 32.6912H34.2993C33.974 32.3494 33.7368 32.0537 33.7134 31.5755C33.7235 31.238 33.8249 30.9896 34.0438 30.7318C34.6298 30.2115 35.8438 30.2021 36.6032 30.0615C36.8381 30.0177 37.072 29.9738 37.3063 29.9297C37.3996 29.9123 37.4924 29.8951 37.5857 29.8777C37.6424 29.8671 37.6992 29.8564 37.7573 29.8455C37.807 29.8362 37.8567 29.827 37.9073 29.8175C38.1956 29.7627 38.1956 29.7627 38.4135 29.5855C38.4472 29.5189 38.4472 29.5189 38.4815 29.4514C38.5073 29.4017 38.5331 29.3521 38.5598 29.301C38.5866 29.2475 38.6132 29.1941 38.6409 29.1388C38.6841 29.0549 38.7276 28.9714 38.7712 28.8875C38.8006 28.8308 38.8298 28.7746 38.8593 28.7178C38.9906 28.4642 39.1303 28.2163 39.2737 27.9678C39.419 27.7175 39.5615 27.4663 39.6974 27.2085C39.7221 27.1622 39.7467 27.1161 39.7724 27.0683C39.8192 26.9802 39.8657 26.8921 39.9117 26.8035C40.1038 26.4425 40.3218 26.0863 40.7226 25.9363C41.0488 25.8557 41.4351 25.8617 41.721 26.0596L41.7187 26.0621ZM41.0484 29.409C41.0216 29.4572 40.9949 29.506 40.9673 29.5557C40.8632 29.7441 40.7582 29.9321 40.6537 30.1182C40.6031 30.2096 40.5524 30.3005 40.5018 30.3919C40.4217 30.5363 40.341 30.6807 40.2609 30.8251C40.223 30.8935 40.223 30.8935 40.1845 30.9638C39.9721 31.3426 39.794 31.6482 39.3595 31.7982C39.1026 31.8638 38.8438 31.9149 38.5813 31.9651C38.5124 31.9788 38.4431 31.9925 38.3742 32.0064C38.2382 32.0335 38.1018 32.0603 37.9654 32.087C37.7638 32.1263 37.5627 32.1662 37.3607 32.2065C37.274 32.2239 37.274 32.2239 37.1854 32.2417C37.1441 32.25 37.1029 32.2582 37.0602 32.2667C37.1315 32.4149 37.2098 32.5297 37.3181 32.6535C37.3609 32.7032 37.3609 32.7032 37.4043 32.7538C37.4751 32.84 37.4751 32.84 37.5759 32.8292C37.593 32.8695 37.593 32.8695 37.6105 32.9103C37.6803 33.0355 37.7623 33.1166 37.8659 33.216C38.7941 34.1253 38.7941 34.1253 38.8034 34.7113C38.8015 35.0722 38.7537 35.4238 38.705 35.7847C38.6878 35.9141 38.6708 36.0435 38.6539 36.1733C38.6459 36.2342 38.638 36.2952 38.6298 36.358C38.6015 36.5877 38.5796 36.8174 38.5613 37.0471C39.0099 36.8849 39.4379 36.6922 39.8645 36.4846C40.0285 36.4058 40.1935 36.3289 40.3566 36.2516C40.3859 36.2378 40.4152 36.224 40.4452 36.2098C40.7738 36.056 41.0827 35.9965 41.439 36.0917C41.5534 36.1356 41.664 36.1845 41.7746 36.237C41.8156 36.2553 41.8566 36.2737 41.8988 36.2927C42.3043 36.4765 42.7051 36.671 43.1035 36.8693C43.1509 36.8926 43.1987 36.9158 43.2474 36.9396C43.2898 36.9605 43.3323 36.9814 43.3759 37.0029C43.4743 37.054 43.4743 37.054 43.5723 37.0479C43.5509 36.8449 43.5294 36.6415 43.5076 36.4385C43.5012 36.3785 43.4948 36.3185 43.4883 36.2566C43.4543 35.9388 43.418 35.6238 43.3758 35.305C43.3182 34.8457 43.2666 34.4144 43.5666 34.03C43.6749 33.9091 43.7869 33.7924 43.8999 33.6757C43.9636 33.6044 44.0269 33.5332 44.0902 33.4619C44.2289 33.3068 44.3705 33.1554 44.5149 33.0054C44.5491 32.9696 44.5833 32.9341 44.6185 32.8971C44.6874 32.8254 44.7567 32.7536 44.8261 32.6824C44.8735 32.6327 44.8735 32.6327 44.9222 32.5821C44.951 32.5524 44.9799 32.5225 45.0094 32.4921C45.0858 32.4086 45.0858 32.4086 45.0717 32.2699C45.0457 32.265 45.0197 32.2601 44.9925 32.2551C44.7192 32.204 44.4441 32.152 44.1722 32.1C44.0705 32.0806 43.9688 32.0614 43.8671 32.0423C43.7203 32.0149 43.5736 31.9865 43.4269 31.9584C43.3819 31.9502 43.3369 31.9419 43.2905 31.9334C42.8363 31.8448 42.4796 31.7252 42.2124 31.3334C42.135 31.211 42.0661 31.0859 41.9986 30.9584C41.9587 30.8848 41.9189 30.8112 41.8786 30.7376C41.8573 30.6982 41.836 30.6588 41.8139 30.6181C41.6817 30.3767 41.5453 30.1352 41.4094 29.8962C41.3564 29.8029 41.3035 29.7096 41.251 29.6159C41.212 29.547 41.1732 29.4785 41.1342 29.4096H41.0405L41.0484 29.409Z" fill="#FFEDDA"/>
<path id="Vector_6" d="M63.2811 9.42154C63.5403 9.64467 63.6828 9.88373 63.7498 10.2184C63.7661 10.4697 63.7632 10.72 63.7587 10.9731C63.758 11.0411 63.7573 11.109 63.7567 11.1775C63.7552 11.3429 63.7528 11.5079 63.7499 11.6744C63.7962 11.6734 63.8427 11.6724 63.89 11.6714C64.0635 11.668 64.2365 11.6658 64.4104 11.6641C64.4849 11.6631 64.5599 11.6619 64.6344 11.6602C65.4547 11.6428 65.4547 11.6428 65.8204 11.9476C66.0683 12.2354 66.2038 12.5054 66.1888 12.8898C66.1438 13.1977 66.0022 13.4616 65.7721 13.6726C65.3535 13.9618 64.8393 13.9351 64.3518 13.9285C64.2936 13.9281 64.2351 13.9277 64.1751 13.9272C64.0326 13.9261 63.8905 13.9246 63.748 13.9226C63.7495 13.985 63.7495 13.985 63.751 14.0487C63.7542 14.2053 63.7566 14.3614 63.7583 14.5175C63.7592 14.585 63.7605 14.652 63.7622 14.7195C63.7734 15.193 63.734 15.568 63.4757 15.9805C63.1847 16.2636 62.8711 16.3325 62.4773 16.3273C62.1436 16.2956 61.9101 16.1511 61.6992 15.8961C61.5342 15.6308 61.4775 15.4133 61.4845 15.0992C61.4847 15.0653 61.4849 15.0312 61.4851 14.9965C61.4859 14.8897 61.4876 14.7828 61.4894 14.6755C61.4901 14.6023 61.4908 14.5292 61.4914 14.4565C61.4929 14.2784 61.4953 14.1008 61.4982 13.9222C61.4354 13.9233 61.4354 13.9233 61.3716 13.9244C61.2146 13.9268 61.0576 13.9286 60.9029 13.9299C60.8354 13.9306 60.7679 13.9315 60.6999 13.9328C60.2031 13.9416 59.7531 13.9399 59.3687 13.5821C59.147 13.3243 59.0466 13.015 59.0504 12.6775C59.0832 12.3925 59.2318 12.1009 59.439 11.904C59.8351 11.62 60.2452 11.642 60.7093 11.6551C60.7815 11.6563 60.8541 11.6574 60.9263 11.6583C61.1021 11.6609 61.2774 11.6649 61.4513 11.6698C61.4515 11.6239 61.4517 11.5779 61.4519 11.531C61.4529 11.359 61.4555 11.1869 61.4585 11.0154C61.4596 10.9413 61.4602 10.8673 61.4605 10.7932C61.4639 9.96351 61.4639 9.96351 61.7324 9.60726C62.1683 9.19007 62.7589 9.07757 63.2792 9.41976L63.2811 9.42154Z" fill="#FFEDDA"/>
<path id="Vector_7" d="M12.9842 30.8906C13.2734 31.0851 13.3925 31.319 13.4998 31.6406C13.507 31.7549 13.5119 31.8679 13.5146 31.9823C13.5156 32.0154 13.5166 32.0484 13.5176 32.0826C13.5206 32.1881 13.5234 32.2935 13.5262 32.3995C13.5282 32.4712 13.5302 32.5429 13.5323 32.6142C13.5373 32.7895 13.5421 32.9653 13.5467 33.1392C13.5911 33.1394 13.6353 33.1395 13.6812 33.1397C13.8481 33.141 14.015 33.1433 14.1828 33.1463C14.2545 33.1474 14.3262 33.1481 14.3984 33.1483C14.8212 33.1501 15.2093 33.155 15.5656 33.4202C15.8145 33.6799 15.9392 33.9405 15.9612 34.3014C15.9532 34.6155 15.8412 34.8827 15.6172 35.103C15.327 35.3327 15.0547 35.4039 14.6843 35.3983C14.6504 35.3982 14.6164 35.3981 14.5817 35.3979C14.4743 35.3974 14.367 35.3962 14.2592 35.395C14.1861 35.3946 14.1129 35.3941 14.0393 35.3937C13.8608 35.3927 13.6817 35.3911 13.505 35.3892C13.5064 35.4562 13.5064 35.4562 13.5079 35.5246C13.5114 35.692 13.5135 35.8598 13.5153 36.0262C13.5162 36.0984 13.5175 36.1706 13.5191 36.2428C13.5293 36.7031 13.5297 37.0912 13.2318 37.4662C12.9397 37.7123 12.6693 37.8473 12.2849 37.8239C11.9324 37.7718 11.6896 37.6345 11.4599 37.3659C11.2152 36.9646 11.2405 36.569 11.2485 36.1143C11.2492 36.0435 11.2498 35.9732 11.2504 35.9025C11.2519 35.7309 11.2544 35.5593 11.2572 35.3868C11.2123 35.3876 11.1672 35.3883 11.1213 35.3891C10.953 35.3916 10.7852 35.3932 10.6151 35.3945C10.5424 35.3952 10.4702 35.3962 10.3976 35.3974C9.53975 35.4115 9.53975 35.4115 9.221 35.1551C8.95615 34.849 8.80053 34.5832 8.816 34.1707C8.86381 33.8491 9.00443 33.5801 9.2585 33.3738C9.68834 33.0991 10.1022 33.1296 10.5991 33.1329C10.6582 33.1331 10.7168 33.1333 10.7777 33.1335C10.9226 33.1341 11.0669 33.1349 11.2118 33.1358C11.2122 33.0926 11.2127 33.0496 11.2131 33.005C11.2152 32.8429 11.2181 32.6807 11.2215 32.5175C11.2228 32.4477 11.2238 32.3779 11.2245 32.308C11.229 31.8599 11.2381 31.4643 11.5348 31.1033C11.982 30.7372 12.4629 30.5971 12.9926 30.883L12.9842 30.8906Z" fill="#FFEDDA"/>
<path id="Vector_8" d="M60.5158 58.7813C60.7816 58.9351 60.9532 59.147 61.0408 59.4423C61.1187 59.7788 61.1177 60.1079 61.1126 60.4548C61.1121 60.5106 61.1117 60.5668 61.1113 60.6245C61.1102 60.7613 61.1087 60.8982 61.1067 61.0346C61.1483 61.0351 61.1897 61.0355 61.2328 61.0359C61.3894 61.038 61.5455 61.0409 61.7015 61.0443C61.769 61.0456 61.8361 61.0466 61.9036 61.0473C62.3625 61.0521 62.7801 61.069 63.1551 61.3698C63.412 61.6801 63.5245 61.9136 63.5137 62.3214C63.4716 62.679 63.3028 62.9026 63.0309 63.1276C62.7539 63.3226 62.4778 63.339 62.145 63.3493C62.0845 63.3513 62.024 63.3533 61.9617 63.3553C61.8984 63.3572 61.8356 63.359 61.7723 63.3609C61.7081 63.3629 61.6439 63.3649 61.5797 63.367C61.4231 63.372 61.2665 63.3768 61.1109 63.3814C61.1114 63.4175 61.1119 63.4536 61.1124 63.4911C61.1144 63.6566 61.1156 63.8225 61.1168 63.988C61.118 64.0733 61.118 64.0733 61.1192 64.16C61.1218 64.6428 61.1106 65.0647 60.7545 65.4256C60.469 65.6872 60.2154 65.7448 59.831 65.7359C59.5081 65.7062 59.2639 65.5353 59.0482 65.3023C58.7932 64.9381 58.8396 64.5055 58.849 64.0789C58.8499 64.0062 58.8508 63.9336 58.8516 63.8609C58.8536 63.6847 58.8569 63.508 58.8607 63.3312C58.7979 63.3324 58.7979 63.3324 58.7341 63.3335C58.5771 63.3359 58.4201 63.3376 58.2654 63.339C58.1979 63.3397 58.1304 63.3406 58.0624 63.3418C57.5656 63.3507 57.1156 63.349 56.7312 62.9912C56.524 62.7503 56.4073 62.4428 56.4138 62.1287C56.4552 61.7734 56.6088 61.524 56.877 61.2943C57.2712 61.0515 57.6645 61.0595 58.1145 61.0525C58.1829 61.0509 58.2509 61.0493 58.3193 61.0476C58.4852 61.0436 58.6516 61.0405 58.8162 61.0378C58.8166 60.9929 58.8171 60.9478 58.8175 60.9019C58.8194 60.7336 58.8225 60.5658 58.8259 60.3956C58.8272 60.323 58.8282 60.2508 58.8289 60.1781C58.8368 59.3578 58.8368 59.3578 59.1425 59.0109C59.173 58.9857 59.2034 58.9603 59.2348 58.9345C59.2652 58.9085 59.2957 58.8825 59.3267 58.8558C59.6764 58.6148 60.1423 58.6172 60.522 58.785L60.5158 58.7813Z" fill="#FFEDDA"/>
<path id="Vector_9" d="M28.4529 43.5936C28.7351 43.843 28.8828 44.0998 28.9193 44.4748C28.9299 44.9623 28.6493 45.267 28.324 45.6045C28.2617 45.6678 28.1988 45.7311 28.136 45.7939C28.1015 45.8288 28.0671 45.8638 28.0315 45.8998C27.9185 46.0138 27.8056 46.1277 27.6921 46.2411C27.6129 46.3208 27.5337 46.4005 27.454 46.4802C27.2881 46.6466 27.1221 46.813 26.9571 46.9817C26.7448 47.1941 26.5334 47.4073 26.3243 47.6192C26.1607 47.7842 25.9971 47.9483 25.8321 48.1114C25.7538 48.1897 25.676 48.2684 25.5982 48.3472C25.489 48.4573 25.3793 48.567 25.2696 48.6763C25.2381 48.7085 25.2063 48.7409 25.174 48.7738C24.9129 49.0311 24.6209 49.2238 24.2553 49.2941C23.914 49.2897 23.6553 49.2521 23.3881 49.0288C23.1467 48.7752 23.0135 48.5178 22.9985 48.1663C23.0245 47.3881 23.8563 46.8163 24.3626 46.31C24.4001 46.2724 24.4376 46.235 24.476 46.1961C24.6738 45.9978 24.8717 45.7991 25.0713 45.6008C25.2753 45.3964 25.4787 45.192 25.6807 44.9867C25.8378 44.8288 25.9957 44.6708 26.1542 44.5133C26.2292 44.4378 26.3046 44.3623 26.3796 44.2869C26.4842 44.1814 26.5896 44.0764 26.6946 43.9714C26.7252 43.9404 26.756 43.9095 26.7874 43.8772C27.2656 43.4038 27.8374 43.2303 28.4515 43.5922L28.4529 43.5936Z" fill="#FFEDDA"/>
<path id="Vector_10" d="M25.4529 17.3433C25.7656 17.5158 26.2357 17.8543 26.3529 18.1965C26.4467 18.2532 26.4467 18.2532 26.5404 18.2902V18.384C26.5868 18.3994 26.6332 18.4149 26.6811 18.4308V18.5246C26.7275 18.5401 26.7739 18.5555 26.8217 18.5715V18.6652C26.8485 18.6768 26.8751 18.6884 26.9028 18.7004C27.0256 18.7679 27.1095 18.8471 27.2084 18.9465C27.2581 18.9957 27.2581 18.9957 27.3087 19.0458C27.3842 19.134 27.3842 19.134 27.3842 19.2277C27.454 19.2509 27.454 19.2509 27.5248 19.2746V19.3683C27.5946 19.3915 27.5946 19.3915 27.6654 19.4152C27.7236 19.4841 27.7817 19.5535 27.8379 19.6243C27.9031 19.7049 27.9031 19.7049 28.0137 19.7874C28.1426 19.891 28.2373 20.0035 28.3418 20.1305C28.414 20.2112 28.4886 20.2768 28.5729 20.3438C28.6135 20.3777 28.654 20.4113 28.6957 20.4465V20.5402C28.7656 20.5634 28.7656 20.5634 28.8364 20.5871C28.9118 20.6621 28.9118 20.6621 28.9915 20.7568C29.1143 20.9035 29.1143 20.9035 29.2432 21.0446C29.4598 21.2752 29.5756 21.5087 29.5925 21.8274C29.5752 22.1654 29.4612 22.4508 29.2179 22.6852C28.9296 22.9163 28.6461 23.0012 28.2757 22.9749C27.6617 22.8722 27.1882 22.2296 26.7664 21.8077C26.6932 21.7346 26.6196 21.6615 26.5465 21.5883C26.3932 21.4355 26.2404 21.2827 26.0876 21.1294C25.8926 20.934 25.6967 20.739 25.5017 20.5435C25.3503 20.3926 25.1993 20.2416 25.0484 20.0907C24.9762 20.0185 24.9045 19.9468 24.8318 19.8751C24.7306 19.7743 24.6298 19.6735 24.5295 19.5722C24.5001 19.5431 24.4704 19.5141 24.4404 19.4841C24.139 19.1794 23.8732 18.8654 23.8545 18.4201C23.8599 18.1205 23.9436 17.8529 24.1409 17.6232C24.5211 17.2726 24.9612 17.1216 25.4534 17.334L25.4529 17.3433Z" fill="#FFEDDA"/>
<path id="Vector_11" d="M59.3439 33.3748C59.3945 33.3746 59.4452 33.3743 59.4972 33.3741C59.6636 33.3734 59.8305 33.3735 59.9987 33.3736C60.115 33.3734 60.2312 33.3732 60.3475 33.373C60.5908 33.3726 60.835 33.3726 61.0787 33.3729C61.39 33.3732 61.7022 33.3724 62.0116 33.3713C62.2516 33.3706 62.4897 33.3705 62.7334 33.3707C62.8483 33.3707 62.9631 33.3704 63.078 33.3699C63.2387 33.3694 63.3995 33.3697 63.5608 33.3702C63.6077 33.3699 63.655 33.3695 63.7033 33.3691C64.0712 33.3719 64.4439 33.4235 64.7252 33.6865C64.9703 33.9813 65.0612 34.2818 65.042 34.6615C64.9914 35.0098 64.8203 35.2146 64.5498 35.4302C64.2269 35.6632 63.842 35.644 63.4577 35.6445C63.4094 35.6447 63.3611 35.6449 63.3114 35.6452C63.1525 35.6458 62.9931 35.6462 62.8333 35.6464C62.7222 35.6467 62.6116 35.647 62.5005 35.6472C62.268 35.6477 62.0355 35.648 61.802 35.6482C61.5048 35.6484 61.2067 35.6495 60.9114 35.6509C60.6822 35.6518 60.453 35.652 60.2223 35.6521C60.1127 35.6522 60.0034 35.6526 59.8937 35.6532C59.74 35.654 59.5867 35.6539 59.433 35.6536C59.3659 35.6543 59.3659 35.6543 59.2975 35.6549C58.8653 35.6523 58.4772 35.5715 58.1584 35.2659C57.9662 35.0296 57.8537 34.7268 57.8739 34.4221C57.9419 34.0448 58.0961 33.808 58.3848 33.5549C58.6848 33.3646 58.9989 33.3726 59.3411 33.3735L59.3439 33.3748Z" fill="#FFEDDA"/>
<path id="Vector_12" d="M41.6252 10.687C41.8891 10.8455 42.0987 11.0695 42.2112 11.3574C42.2599 11.6269 42.2651 11.8917 42.2651 12.1636C42.2652 12.2104 42.2654 12.2574 42.2656 12.3056C42.266 12.4599 42.2661 12.6141 42.2661 12.7683C42.2663 12.8761 42.2665 12.9839 42.2666 13.0913C42.2669 13.3167 42.267 13.5422 42.267 13.7663C42.267 14.0545 42.2676 14.3428 42.2684 14.6288C42.2689 14.8514 42.269 15.0736 42.269 15.2944C42.269 15.4008 42.2693 15.5067 42.2696 15.6131C42.2701 15.7622 42.2699 15.9113 42.2697 16.0599C42.2699 16.1033 42.2702 16.1466 42.2705 16.1911C42.2682 16.6645 42.209 17.0817 41.8833 17.4474C41.5505 17.7024 41.2083 17.707 40.8051 17.6817C40.5056 17.6278 40.3176 17.4047 40.1489 17.1661C39.9783 16.9017 39.9876 16.6599 39.9886 16.3552C39.9882 16.3022 39.9878 16.2492 39.9874 16.1949C39.9863 16.0205 39.9862 15.8456 39.9863 15.6699C39.986 15.5484 39.9856 15.4266 39.9852 15.3052C39.9846 15.0506 39.9845 14.7942 39.9848 14.5411C39.9851 14.2477 39.984 13.9552 39.9823 13.6599C39.9807 13.3763 39.9804 13.0927 39.9805 12.8114C39.9805 12.6914 39.98 12.5709 39.9792 12.4509C39.9781 12.2827 39.9786 12.1144 39.9794 11.9447C39.9788 11.8955 39.9782 11.8463 39.9775 11.7952C39.9817 11.43 40.0704 11.153 40.3277 10.8858C40.6774 10.5633 41.1855 10.4705 41.6261 10.6781L41.6252 10.687Z" fill="#FFEDDA"/>
</g>
</svg>
