<svg width="65" height="65" viewBox="0 0 65 65" fill="none" xmlns="http://www.w3.org/2000/svg">
<g id="demanda 1" clip-path="url(#clip0_1410_81)">
<path id="Vector" d="M-0.000210938 5.54938e-05H3.77791V50.0094H3.89979C3.90905 49.9809 3.91831 49.9521 3.92786 49.9229C3.99164 49.7827 4.08061 49.6787 4.18177 49.565C4.34142 49.3806 4.49661 49.1941 4.64489 49.0003C4.80658 48.7927 4.97111 48.5859 5.13645 48.3828C5.31927 48.1586 5.49964 47.9319 5.67677 47.7044C5.84495 47.4895 6.0168 47.2778 6.18864 47.0666C6.29914 46.9309 6.40924 46.7948 6.51567 46.6562C6.64445 46.4885 6.77811 46.3251 6.91177 46.1606C7.07955 45.9546 7.24611 45.7462 7.40739 45.5391C7.58939 45.3059 7.77545 45.0759 7.96395 44.8484C8.10574 44.6741 8.24549 44.4991 8.38239 44.3203C8.60949 44.0294 8.84145 43.7434 9.07708 43.4591C9.23999 43.2588 9.40127 43.0569 9.56052 42.8537C9.82905 42.5109 10.1008 42.1712 10.3771 41.8341C10.54 41.6338 10.7013 41.4319 10.8605 41.2287C11.0835 40.9436 11.3115 40.66 11.539 40.3797C11.6807 40.2054 11.8205 40.0299 11.9574 39.8516C12.1394 39.6184 12.325 39.3884 12.514 39.1609C12.6785 38.959 12.8398 38.7551 13.0015 38.5516C13.142 38.3716 13.2862 38.1953 13.4321 38.0194C13.5357 37.8918 13.6372 37.7626 13.7388 37.633C13.9281 37.3909 14.1211 37.1536 14.3157 36.914C14.4262 36.7783 14.5363 36.6422 14.6431 36.5036C14.7719 36.3359 14.9055 36.1726 15.0392 36.008C15.207 35.8021 15.3735 35.5936 15.5348 35.3865C15.7168 35.1533 15.9029 34.9233 16.0914 34.6958C16.2515 34.4992 16.4091 34.3006 16.5667 34.0986C16.7361 33.8817 16.91 33.668 17.0867 33.4568C17.1838 33.3386 17.2748 33.2224 17.3552 33.0924C17.3795 33.0584 17.4036 33.0245 17.4288 32.9896H17.5506C18.4606 34.8096 19.3706 36.6296 20.2847 38.4333C20.392 38.6478 20.4996 38.864 20.6069 39.0793C20.639 39.1435 20.639 39.1435 20.6715 39.2089C21.018 39.9036 21.3661 40.5942 21.7115 41.2889C22.0669 41.9998 22.4224 42.7107 22.7799 43.4217C22.9993 43.8604 23.2186 44.2992 23.438 44.7379C23.5883 45.0386 23.7386 45.3392 23.889 45.6398C23.9759 45.8133 24.0624 45.9871 24.1498 46.1598C24.2294 46.3186 24.3086 46.4771 24.3878 46.6351C24.4166 46.6928 24.4455 46.7505 24.4744 46.8082C24.5134 46.8862 24.5524 46.9642 24.5914 47.0418C24.6131 47.0852 24.6348 47.1287 24.6572 47.1734C24.7031 47.2754 24.7031 47.2754 24.7031 47.3566C24.812 47.2599 24.8684 47.1612 24.9322 47.0308C24.9522 46.9903 24.9721 46.95 24.9927 46.9081C25.0242 46.8435 25.0242 46.8435 25.0561 46.7773C25.1 46.6883 25.1439 46.599 25.1881 46.51C25.2202 46.445 25.2202 46.445 25.2527 46.3788C25.3275 46.2297 25.4055 46.083 25.4851 45.936C25.6106 45.7036 25.724 45.4688 25.8349 45.2291C25.9385 45.0069 26.0502 44.7903 26.1656 44.575C26.3005 44.3207 26.4345 44.0672 26.5617 43.8072C26.5763 43.779 26.5909 43.7507 26.606 43.7215C26.6649 43.5996 26.699 43.5228 26.671 43.388C26.6076 43.286 26.5393 43.1991 26.4601 43.1089C25.5785 42.0567 24.8635 40.8095 24.3273 39.5501C24.2855 39.4526 24.2395 39.3567 24.194 39.2609C22.3984 35.2918 22.4756 30.5671 23.9568 26.5452C24.9277 23.9859 26.569 21.5077 28.6693 19.7202L28.7818 19.6227C29.9925 18.5746 31.3534 17.7052 32.8078 17.039C32.8805 17.0054 32.9524 16.9707 33.0243 16.9358C34.564 16.1924 36.2824 15.7821 37.9805 15.5789C38.022 15.5737 38.022 15.5737 38.0642 15.5684C38.6777 15.492 39.2911 15.4814 39.9086 15.4826C39.9846 15.4826 39.9846 15.4826 40.0626 15.4826C40.9076 15.4838 41.7323 15.5318 42.5691 15.6606C42.613 15.6669 42.6565 15.6732 42.7016 15.6796C44.2941 15.91 45.8825 16.4068 47.3328 17.1218C47.386 17.1479 47.4389 17.1738 47.4921 17.1998C49.2511 18.0651 50.8071 19.2067 52.2046 20.5961C52.2667 20.6582 52.3289 20.7196 52.3915 20.7813C52.6498 21.0385 52.883 21.3054 53.1105 21.5938C53.1485 21.6385 53.1869 21.6832 53.2255 21.7275C53.5147 22.0594 53.7739 22.41 54.0258 22.7715C54.1127 22.8946 54.2005 23.0169 54.2878 23.1396C54.4158 23.0831 54.4999 23.0177 54.5966 22.917C54.6365 22.8759 54.6365 22.8759 54.677 22.8345L54.7599 22.7484C54.8143 22.6919 54.8692 22.6354 54.924 22.5794C54.9481 22.5543 54.972 22.5294 54.9971 22.5034C55.0597 22.4486 55.0597 22.4486 55.141 22.4486L55.1816 22.3267H55.2628L55.3441 22.1642H55.4253L55.466 22.0423H55.5472L55.6285 21.8798H55.7097L55.791 21.7173H55.8722L55.9128 21.5954H55.9941L56.0753 21.4329H56.1566L56.1972 21.3111H56.2785L56.3597 21.1486H56.441L56.4816 21.0267H56.5628L56.6441 20.8642H56.7253L56.8066 20.7017H56.8878L56.9285 20.5798H57.0097L57.091 20.4173H57.1722L57.2128 20.2954H57.2941L57.3753 20.1329H57.4566L57.4972 20.0111H57.5785L57.6597 19.8486H57.741L57.8222 19.6861H57.9035L57.9441 19.5642H58.0253L58.1066 19.4017H58.1878L58.2285 19.2798H58.3097L58.391 19.1173H58.4722L58.5128 18.9954H58.5941L58.6753 18.8329H58.7566L58.8378 18.6704H58.9191L58.9597 18.5486C59.0385 18.4596 59.0385 18.4596 59.1222 18.3861H59.2035L59.2441 18.2642H59.3253L59.4066 18.1017H59.4878L59.5285 17.9798H59.6097L59.691 17.8173H59.7722L59.8535 17.6548H59.9347L59.9753 17.5329C60.0541 17.444 60.0541 17.444 60.1378 17.3704H60.2191L60.2597 17.2486C60.3385 17.1596 60.3385 17.1596 60.4222 17.0861H60.5035L60.5441 16.9642C60.6229 16.8752 60.6229 16.8752 60.7066 16.8017H60.7878C60.7971 16.7782 60.8063 16.7546 60.8158 16.7306C60.8824 16.616 60.9681 16.5575 61.0721 16.4767L61.1534 16.3548H61.2346L61.2752 16.2329H61.3565L61.4377 16.0704C61.6254 16.1058 61.7237 16.2183 61.8521 16.3507C61.8771 16.3757 61.9021 16.4007 61.9277 16.4263C62.0102 16.5088 62.0922 16.5921 62.1743 16.6749C62.2316 16.7322 62.2884 16.7895 62.3457 16.8468C62.496 16.9975 62.6463 17.149 62.7967 17.3018C62.9498 17.4562 63.1034 17.6101 63.2557 17.7649C63.5567 18.0672 63.857 18.3702 64.1576 18.6708C64.1019 18.7956 64.0394 18.8805 63.9423 18.9759C63.9145 19.0036 63.8866 19.0312 63.8582 19.06C63.8123 19.1051 63.8123 19.1051 63.7652 19.1514C63.7327 19.1837 63.7002 19.216 63.6668 19.2489C63.5576 19.3574 63.4483 19.4655 63.3386 19.5731C63.2602 19.6507 63.1822 19.7279 63.1042 19.8055C62.9575 19.9509 62.8109 20.0964 62.6654 20.2402C62.377 20.5254 62.0886 20.813 61.8001 21.0974C61.7546 21.1425 61.7095 21.1876 61.664 21.2327C61.5954 21.3009 61.5267 21.3692 61.4581 21.4374C61.1993 21.6946 60.9421 21.9533 60.6821 22.2093C60.6466 22.2445 60.6466 22.2445 60.6102 22.2804C60.2263 22.6614 59.8424 23.0401 59.4565 23.4219C59.0616 23.8123 58.6683 24.2019 58.2743 24.596C58.0317 24.8377 57.7868 25.0794 57.543 25.3191C57.3757 25.4837 57.2095 25.649 57.0433 25.8147C56.9475 25.9106 56.8516 26.0057 56.7545 26.1003C56.6497 26.2031 56.5461 26.3067 56.4429 26.4111C56.3966 26.4554 56.3966 26.4554 56.3491 26.5009C56.1963 26.6516 56.1963 26.6516 56.1516 26.8523C56.1717 26.9462 56.1987 27.0307 56.2337 27.12C56.2529 27.1875 56.2529 27.1875 56.2726 27.2561L56.313 27.3841C56.6356 28.42 56.8696 29.456 57.0037 30.5325C57.0082 30.5673 57.0129 30.602 57.0176 30.6377C57.4133 33.6968 56.8782 36.9346 55.5835 39.6971C55.5657 39.736 55.5479 39.7747 55.5295 39.8149C55.2784 40.3634 55.0054 40.8874 54.6886 41.4034C54.6692 41.4352 54.6499 41.4672 54.6301 41.4997C54.3144 42.0156 53.9719 42.5153 53.6063 42.9947C53.5843 43.0234 53.5624 43.0519 53.5397 43.0816C53.5198 43.1073 53.4999 43.1332 53.4796 43.1596C53.4235 43.2347 53.4235 43.2347 53.3906 43.3526C53.4136 43.3624 53.4365 43.3722 53.4605 43.3823C53.5722 43.4444 53.6477 43.5179 53.7379 43.6085C53.7936 43.6638 53.7936 43.6638 53.8505 43.7203C53.8915 43.7613 53.9325 43.8027 53.9735 43.8438C54.017 43.8872 54.0609 43.9307 54.1048 43.9746C54.225 44.0944 54.3449 44.2147 54.4647 44.3345C54.5939 44.4641 54.7235 44.5933 54.8531 44.7225C55.1066 44.9756 55.3609 45.2303 55.6128 45.4822C55.8187 45.6881 56.0231 45.8925 56.2303 46.0997C56.2596 46.1289 56.2888 46.1582 56.3188 46.1882C56.3781 46.2475 56.4379 46.3073 56.4972 46.3666C57.0537 46.9231 57.6144 47.4838 58.1709 48.0403C58.6503 48.5197 59.1297 48.9991 59.6091 49.4784C60.1656 50.035 60.7222 50.5916 61.2787 51.1481C61.3381 51.2074 61.3974 51.2668 61.4563 51.3261C61.4854 51.3552 61.5144 51.3846 61.5444 51.4142C61.75 51.6202 61.9547 51.8245 62.1619 52.0317C62.4126 52.2824 62.6616 52.5314 62.9135 52.7833C63.0415 52.9113 63.1694 53.0392 63.2974 53.1672C63.4144 53.2842 63.5314 53.4012 63.6484 53.5182C63.6906 53.5608 63.7333 53.6031 63.776 53.6454C63.8336 53.7026 63.8909 53.7603 63.9482 53.818C63.9802 53.85 64.012 53.8822 64.0453 53.9151C64.118 53.998 64.118 53.998 64.1586 54.1199C63.8231 54.4603 63.4883 54.7983 63.1511 55.1395C62.9947 55.2972 62.8387 55.4548 62.684 55.6108C62.5336 55.7631 62.3829 55.9151 62.233 56.0658C62.1753 56.1239 62.1181 56.182 62.0608 56.2405C61.9807 56.3221 61.8999 56.403 61.819 56.4838C61.7953 56.5083 61.7715 56.5326 61.7471 56.5578C61.6801 56.624 61.6801 56.624 61.5619 56.7178C61.4022 56.7101 61.3222 56.615 61.2137 56.5058C61.1764 56.4686 61.139 56.4314 61.1008 56.3932C61.0594 56.3514 61.0183 56.3099 60.9769 56.2681C60.933 56.2242 60.8891 56.1799 60.8453 56.1361C60.7242 56.015 60.604 55.8935 60.4833 55.7721C60.3533 55.6413 60.2229 55.5108 60.0929 55.38C59.867 55.1538 59.642 54.9291 59.4145 54.7016C59.0886 54.3738 58.7604 54.0475 58.4354 53.7185C57.9073 53.1863 57.3751 52.6582 56.847 52.126C56.8153 52.0942 56.7836 52.0622 56.7511 52.0297C56.3972 51.6746 56.0442 51.3188 55.6908 50.9653C55.659 50.9333 55.627 50.9015 55.5945 50.8686C55.5627 50.8367 55.5311 50.8049 55.4982 50.7719C55.434 50.7078 55.3702 50.6432 55.3061 50.579C55.2585 50.5314 55.2585 50.5314 55.2102 50.4827C54.6821 49.9546 54.1539 49.4224 53.6258 48.8943C53.3 48.5676 52.9758 48.2402 52.6508 47.9152C52.4282 47.6909 52.2039 47.4683 51.9805 47.2449C51.8517 47.1157 51.7229 46.9865 51.5946 46.8569C51.4771 46.7383 51.3593 46.6205 51.2411 46.5027C51.1985 46.46 51.1558 46.4169 51.1131 46.3735C51.0559 46.315 50.9978 46.2573 50.9393 46.1996C50.9071 46.1673 50.8751 46.135 50.8418 46.1017C50.7601 46.029 50.7601 46.029 50.6679 46.044C50.5476 46.0989 50.4453 46.176 50.3396 46.2544C50.2889 46.2915 50.2377 46.3284 50.1865 46.3654L50.1052 46.4247C49.6584 46.7521 49.2034 47.0625 48.724 47.3387L48.6436 47.3854C47.4167 48.0923 46.1411 48.6489 44.7842 49.047C44.7208 49.0655 44.7208 49.0655 44.6562 49.0844C42.4137 49.7263 39.9843 49.8969 37.6687 49.576C37.6061 49.5675 37.6061 49.5675 37.542 49.5588C34.7795 49.1745 31.9357 48.0638 29.742 46.2967C29.6705 46.2349 29.6705 46.2349 29.5847 46.243C29.4125 46.5835 29.2435 46.9255 29.081 47.2708C28.9412 47.5694 28.7909 47.8599 28.6341 48.1524C28.5094 48.3872 28.3948 48.6237 28.2839 48.8674C28.1665 49.1201 28.0365 49.3671 27.9053 49.6108C27.7928 49.8229 27.6871 50.0374 27.5868 50.2527C27.4743 50.4965 27.354 50.7362 27.2261 50.9718C27.003 51.3862 26.7995 51.8087 26.6004 52.2312C26.4704 52.5086 26.3319 52.7796 26.1861 53.0518C26.0731 53.2626 25.9695 53.4783 25.8688 53.6937C25.7477 53.9532 25.6206 54.2096 25.4853 54.4615C25.2517 54.8962 25.0425 55.343 24.8312 55.794H24.7093C23.2915 52.9583 21.8737 50.1065 20.4437 47.3033C20.4303 47.2764 20.4168 47.2497 20.4031 47.2217C20.3621 47.1396 20.321 47.0576 20.28 46.9755C20.0992 46.6135 19.918 46.2524 19.7356 45.8908C19.4037 45.2286 19.0734 44.5664 18.7403 43.9042C18.549 43.5224 18.3576 43.1405 18.1675 42.7586C17.9997 42.4239 17.8319 42.0883 17.6637 41.7552C17.5752 41.5785 17.4866 41.4013 17.3981 41.223C17.3148 41.0572 17.2319 40.8915 17.149 40.7274C17.1186 40.6664 17.0881 40.6055 17.0576 40.5446C17.0162 40.4617 16.9747 40.3788 16.9333 40.2959C16.9101 40.2496 16.887 40.2029 16.863 40.1554C16.8139 40.0469 16.8139 40.0469 16.8139 39.9657C16.5851 40.1477 16.4194 40.3422 16.2451 40.575C16.1761 40.664 16.1066 40.753 16.0371 40.8415C16.0183 40.8654 15.9996 40.8895 15.9802 40.9138C15.7869 41.1596 15.5894 41.4013 15.3912 41.6451C15.2701 41.7934 15.1507 41.9429 15.0316 42.092C14.9638 42.1765 14.8951 42.261 14.8265 42.3451C14.5945 42.6282 14.3674 42.9138 14.144 43.2063C13.962 43.4464 13.7751 43.6776 13.5793 43.9091C13.4716 44.0383 13.3676 44.1699 13.2641 44.3028C13.0987 44.5144 12.9309 44.7253 12.7603 44.9325C12.7378 44.9601 12.7152 44.9877 12.6921 45.0162C12.6486 45.0694 12.6055 45.1226 12.5621 45.1758C12.3991 45.3761 12.2379 45.578 12.0786 45.7811C11.8308 46.0976 11.5789 46.4108 11.3271 46.7236C11.2064 46.8719 11.087 47.021 10.9679 47.1705C10.8985 47.2574 10.8282 47.3436 10.7579 47.4297C10.5527 47.6812 10.3476 47.9334 10.1526 48.1894C9.9714 48.427 9.78209 48.6566 9.59196 48.8881C9.42377 49.0917 9.25884 49.2984 9.09634 49.5056C8.95902 49.6815 8.82009 49.8566 8.68196 50.0297C8.66128 50.0555 8.64052 50.0813 8.6194 50.1077C8.53246 50.2161 8.44552 50.3246 8.35859 50.4327C8.22696 50.5972 8.09574 50.7622 7.96615 50.9283C7.73662 51.2216 7.50302 51.5133 7.2674 51.8017C7.14674 51.95 7.0273 52.0991 6.90827 52.2486C6.8388 52.3356 6.76852 52.4217 6.69824 52.5078C6.45815 52.8019 6.22293 53.0969 5.99137 53.4016C5.84999 53.5852 5.70293 53.7639 5.55668 53.9419C5.41409 54.1166 5.27352 54.2929 5.13418 54.47C4.85305 54.8299 4.56543 55.185 4.27293 55.5344C2.96887 57.1106 3.81387 58.7234 3.81387 61.1812L64.9951 61.2219V65H-0.00488281V0L-0.000210938 5.54938e-05ZM37.6185 19.4594L37.4796 19.4871C35.1762 19.9584 32.9296 20.974 31.1827 22.5868C31.1254 22.638 31.0678 22.6888 31.0101 22.7392C30.9839 22.762 30.9577 22.7851 30.9309 22.8086C30.8663 22.8639 30.8 22.9175 30.7334 22.9703C30.6124 23.0759 30.5132 23.1873 30.4096 23.3095C30.3227 23.407 30.2309 23.4968 30.1366 23.5874C29.914 23.808 29.7263 24.0465 29.5354 24.2943C29.474 24.3743 29.4111 24.4535 29.3481 24.5324C29.0227 24.9427 28.7428 25.3733 28.4747 25.8242C28.4304 25.8986 28.3849 25.9721 28.3394 26.0456C26.6088 28.8731 26.2188 32.5456 26.9784 35.7144C27.3177 37.0956 27.8478 38.3794 28.5831 39.5941C28.7087 39.5667 28.7087 39.5667 28.7546 39.4734C28.7786 39.4214 28.7786 39.4214 28.8029 39.3678C28.821 39.3291 28.8391 39.2906 28.8578 39.2504L28.9154 39.124C28.9557 39.0379 28.9959 38.9518 29.0361 38.8657C29.0656 38.8023 29.0656 38.8023 29.0958 38.7373C29.1681 38.5833 29.2429 38.4306 29.3193 38.2782C29.3385 38.2398 29.3385 38.2398 29.3581 38.2006C29.4556 38.0073 29.5572 37.8163 29.6595 37.6238C29.7972 37.3666 29.9248 37.1078 30.0475 36.8397C30.2425 36.4213 30.4513 36.0069 30.6691 35.6006C30.8275 35.3053 30.9717 35.0034 31.1159 34.6988C31.2268 34.4635 31.3447 34.2356 31.4694 34.0041C31.5774 33.8046 31.6745 33.6011 31.77 33.3947C31.8854 33.1473 32.006 32.9031 32.1356 32.6634C32.2928 32.3713 32.4371 32.0744 32.5784 31.7738C32.719 31.476 32.8644 31.1806 33.0131 30.8881C33.0672 30.7813 33.1208 30.674 33.174 30.5668C33.2146 30.4855 33.2552 30.4043 33.2959 30.3226C33.3503 30.2138 33.4043 30.1049 33.4584 29.996C33.5872 29.736 33.7184 29.476 33.8569 29.2241C34.0182 28.9264 34.1632 28.6229 34.3078 28.3141C34.4549 28.0046 34.606 27.6966 34.7588 27.3919C34.8226 27.2656 34.8859 27.1389 34.9489 27.0121C34.9754 26.9593 35.0017 26.9065 35.0281 26.8533C35.0425 26.8245 35.0569 26.7956 35.0716 26.7663L35.6078 25.6938C35.748 25.7176 35.815 25.7637 35.9146 25.8636C35.9426 25.8915 35.9706 25.9193 35.9995 25.9477C36.03 25.9786 36.0604 26.0095 36.0921 26.0412C36.1248 26.0737 36.1575 26.1062 36.1912 26.1399C36.3009 26.2496 36.4106 26.3597 36.5199 26.4698C36.5983 26.5482 36.6767 26.6266 36.7551 26.705C36.9241 26.874 37.0931 27.0434 37.2629 27.2128C37.5071 27.4578 37.7504 27.7044 37.9942 27.9481C38.3907 28.345 38.7863 28.7403 39.1845 29.1384C39.5696 29.5244 39.9563 29.9103 40.3382 30.2962C40.3619 30.32 40.3857 30.3438 40.4101 30.3681C40.5292 30.4876 40.6482 30.6066 40.7676 30.726C41.7548 31.7173 42.742 32.7045 43.7332 33.6957C43.8657 33.6328 43.9526 33.5665 44.0554 33.4613C44.0851 33.4311 44.1147 33.4012 44.1456 33.3699C44.1763 33.3384 44.2069 33.3069 44.2386 33.2744C44.4158 33.0929 44.5888 32.9174 44.7911 32.7626C44.8238 32.7232 44.8565 32.6838 44.8902 32.6431C44.9788 32.5375 45.0666 32.4579 45.1734 32.3726C45.2742 32.284 45.357 32.1812 45.444 32.0797C45.615 31.8851 45.7966 31.6978 46.0005 31.5353C46.0997 31.4605 46.0997 31.4605 46.1911 31.3423C46.2975 31.2152 46.4121 31.1205 46.5388 31.0149L46.6404 30.893C46.7456 30.7667 46.8597 30.6728 46.9857 30.568C47.0535 30.4868 47.1214 30.4055 47.1888 30.3243C47.2215 30.2983 47.2542 30.2723 47.2879 30.2454C47.3769 30.1739 47.4395 30.1089 47.5114 30.022C47.5894 29.9278 47.667 29.8469 47.7628 29.7705C47.8807 29.6799 47.8807 29.6799 47.9611 29.5723C48.0423 29.4707 48.0423 29.4707 48.1618 29.3716C48.2893 29.2713 48.2893 29.2713 48.3877 29.1457C48.4929 29.0194 48.607 28.9255 48.733 28.8207C48.8008 28.7395 48.8687 28.6582 48.9361 28.577C49.0039 28.5229 49.0714 28.4685 49.1392 28.4145C49.1719 28.3751 49.2046 28.3357 49.2383 28.295C49.3448 28.1679 49.4593 28.0732 49.5861 27.9676L49.6877 27.8457C49.7929 27.7194 49.907 27.6255 50.033 27.5207C50.1008 27.4395 50.1687 27.3582 50.2361 27.277C50.2688 27.251 50.3015 27.225 50.3352 27.1982C50.4246 27.1263 50.4884 27.0596 50.5611 26.9723C50.6598 26.8537 50.765 26.7639 50.8861 26.6676C50.9188 26.6282 50.9515 26.5888 50.9852 26.5482C51.0917 26.421 51.2062 26.3264 51.333 26.2207C51.4045 26.1419 51.4699 26.0607 51.5361 25.977C51.4695 25.784 51.3655 25.6235 51.2542 25.4529C51.2343 25.4225 51.2145 25.392 51.194 25.3607C50.4425 24.2232 49.5325 23.1141 48.4478 22.2773C48.4084 22.2448 48.369 22.2123 48.3283 22.1789C46.5896 20.753 44.5096 19.8552 42.3158 19.4368C42.2754 19.429 42.235 19.4212 42.1932 19.4132C41.4335 19.278 40.6738 19.2524 39.9019 19.254C39.8324 19.254 39.8324 19.254 39.7617 19.2541C39.0305 19.2557 38.3236 19.2877 37.6046 19.4316L37.6185 19.4594ZM52.9748 29.9001L43.8342 39.0407C43.7025 38.9749 43.642 38.9399 43.5441 38.8416C43.5198 38.8174 43.4953 38.7933 43.4706 38.7681C43.4442 38.7414 43.4178 38.7149 43.3909 38.6872C43.3487 38.645 43.3487 38.645 43.3052 38.6015C43.2106 38.5065 43.1159 38.4114 43.0213 38.3159C42.9534 38.2477 42.8856 38.1798 42.8177 38.1116C42.6715 37.9649 42.5252 37.8183 42.379 37.6728C42.1677 37.4604 41.9565 37.2503 41.7452 37.035C41.4019 36.6909 41.0587 36.3485 40.7174 36.0031C40.6969 35.9826 40.6764 35.9621 40.6553 35.9406C40.4261 35.7106 40.1962 35.4815 39.9687 35.25C39.8854 35.1663 39.8025 35.083 39.7193 34.9993C39.6885 34.9684 39.6885 34.9684 39.6571 34.9367C39.3154 34.5935 38.9746 34.2502 38.6293 33.9089C38.4371 33.7164 38.245 33.5238 38.0524 33.3321C37.872 33.1509 37.6917 32.9697 37.5121 32.7877C37.4459 32.7211 37.3793 32.6544 37.313 32.5878C37.2229 32.4968 37.1327 32.4066 37.0421 32.316C37.0025 32.2758 37.0025 32.2758 36.962 32.2348C36.9378 32.2108 36.9137 32.1868 36.8885 32.1621C36.8677 32.1411 36.8467 32.1202 36.8255 32.0987C36.7622 32.0422 36.7622 32.0422 36.6444 32.0544C36.4721 32.3948 36.3031 32.7369 36.1406 33.0822C36.0008 33.3808 35.8505 33.6713 35.6937 33.9638C35.569 34.1986 35.4544 34.435 35.3435 34.6788C35.2261 34.9319 35.0961 35.1785 34.9645 35.4222C34.854 35.6306 34.75 35.8406 34.6513 36.056C34.5217 36.3375 34.3795 36.6125 34.2328 36.8847C34.1203 37.0968 34.0147 37.3113 33.9143 37.5266C33.8018 37.7703 33.6816 38.01 33.5536 38.2456C33.3293 38.66 33.123 39.0825 32.9239 39.5091C32.8016 39.7699 32.6729 40.025 32.5359 40.281C32.2971 40.7238 32.0809 41.1747 31.8697 41.6297C31.7381 41.9096 31.5934 42.1822 31.4431 42.4544C31.4266 42.4849 31.41 42.5153 31.3928 42.5466C31.3704 42.5868 31.3704 42.5868 31.3477 42.6279C31.3093 42.7083 31.3093 42.7083 31.3614 42.8221C31.4402 42.8919 31.519 42.9565 31.6027 43.0203C31.6403 43.0493 31.6403 43.0493 31.6787 43.0788C31.762 43.1426 31.8461 43.206 31.9301 43.2689L32.0187 43.3356C32.3803 43.6053 32.7459 43.8596 33.1359 44.0831C33.2484 44.1481 33.3581 44.2159 33.4682 44.2854C33.7294 44.4422 34.0085 44.5653 34.2848 44.6916C34.355 44.7241 34.4249 44.7578 34.4944 44.7916C35.5669 45.3116 36.7288 45.6284 37.9028 45.8275C37.9404 45.8342 37.978 45.8409 38.0166 45.8478C39.3938 46.0834 40.9213 46.0465 42.2822 45.7869C42.3289 45.7782 42.3752 45.7694 42.4236 45.7605C43.6667 45.5212 44.9017 45.1308 46.0189 44.5296C46.077 44.4985 46.1351 44.4678 46.1932 44.4373C46.9569 44.0384 47.6719 43.572 48.3341 43.0236L48.4028 42.9671C48.7944 42.6421 49.1746 42.309 49.5362 41.9515C49.5579 41.9303 49.5797 41.9093 49.602 41.8873C49.6544 41.8349 49.7048 41.7805 49.7548 41.7256V41.6444C49.795 41.631 49.8352 41.6176 49.8766 41.6037C49.9555 41.5209 49.9555 41.5209 50.0367 41.4161L50.135 41.2926C50.1524 41.2705 50.1698 41.2483 50.1878 41.2255C50.2427 41.1565 50.2987 41.0882 50.3548 41.0204C51.6914 39.3913 52.5811 37.4819 53.0442 35.4141C53.0569 35.3585 53.0569 35.3585 53.0698 35.3016C53.4623 33.5263 53.3619 31.7103 53.0848 29.9391C53.0446 29.9257 53.0044 29.9123 52.9629 29.8985L52.9748 29.9001Z" fill="#FFEDDA"/>
<path id="Vector_2" d="M45.9876 7.6377H65.0001V11.4158H45.9876C45.9364 11.2619 45.9413 11.118 45.9417 10.9568C45.9416 10.9225 45.9416 10.8881 45.9415 10.8528C45.9413 10.7394 45.9414 10.6257 45.9416 10.5123C45.9416 10.4335 45.9415 10.3547 45.9415 10.2759C45.9414 10.1105 45.9415 9.9456 45.9417 9.78026C45.9419 9.5682 45.9418 9.35776 45.9415 9.14651C45.9414 8.98401 45.9414 8.8211 45.9415 8.65901C45.9416 8.58101 45.9415 8.5026 45.9414 8.4246C45.9413 8.31532 45.9415 8.20645 45.9417 8.09716C45.9416 8.06475 45.9416 8.03216 45.9415 7.99885C45.942 7.86804 45.9459 7.76363 45.9878 7.63891L45.9876 7.6377Z" fill="#FFEDDA"/>
<path id="Vector_3" d="M45.9875 0H65V3.77813H45.9875C45.9233 3.64975 45.9411 3.51122 45.9416 3.37188C45.9415 3.33812 45.9414 3.30444 45.9413 3.2695C45.9412 3.15738 45.9413 3.04566 45.9414 2.93353C45.9414 2.85594 45.9413 2.77794 45.9413 2.70034C45.9412 2.53703 45.9413 2.37413 45.9415 2.21284C45.9417 2.00403 45.9416 1.79441 45.9414 1.58722C45.9412 1.42675 45.9413 1.26588 45.9414 1.10378C45.9414 1.02659 45.9414 0.949813 45.9413 0.872625C45.9412 0.764969 45.9413 0.656906 45.9416 0.54925C45.9415 0.517441 45.9414 0.485469 45.9413 0.452969C45.9419 0.294531 45.956 0.160875 45.9876 0.00203125L45.9875 0Z" fill="#FFEDDA"/>
</g>
<defs>
<clipPath id="clip0_1410_81">
<rect width="65" height="65" fill="white"/>
</clipPath>
</defs>
</svg>
