<svg width="65" height="65" viewBox="0 0 65 65" fill="none" xmlns="http://www.w3.org/2000/svg">
<g id="monitoramento 1" clip-path="url(#clip0_1392_26)">
<path id="Vector" d="M0.950463 10.1157C0.988042 10.1154 1.02562 10.115 1.06421 10.1147C1.19056 10.1139 1.31649 10.1148 1.44284 10.1157C1.53465 10.1155 1.62606 10.1151 1.71787 10.1147C1.97096 10.1138 2.22568 10.1145 2.47756 10.1154C2.72415 10.116 2.96912 10.1154 3.21693 10.1149C3.72881 10.114 4.23662 10.1141 4.74849 10.1149C5.26443 10.1157 5.78443 10.116 6.30037 10.1156C6.33303 10.1156 6.36578 10.1156 6.39949 10.1155C6.53234 10.1154 6.66559 10.1153 6.79843 10.1152C8.03749 10.1143 9.27656 10.1145 10.5156 10.1154C11.71 10.1163 12.9044 10.1168 14.0987 10.1167C14.1739 10.1167 14.2487 10.1167 14.3238 10.1167C14.6252 10.1167 14.9251 10.1166 15.2257 10.1166C16.0666 10.1165 16.9116 10.1165 17.7526 10.1165C17.7909 10.1165 17.8293 10.1165 17.8687 10.1165C19.0916 10.1166 20.3144 10.117 21.5372 10.1177C21.5965 10.1178 21.5965 10.1178 21.6574 10.1178C22.3034 10.1181 22.9452 10.1185 23.5912 10.1189C26.1465 10.1204 28.7099 10.121 31.2693 10.1205C31.4306 10.1205 31.5923 10.1205 31.7527 10.1204C31.8125 10.1204 31.8125 10.1204 31.8738 10.1204C32.3166 10.1203 32.7594 10.1203 33.1982 10.1202C33.2378 10.1202 33.2774 10.1202 33.3184 10.1202C35.4553 10.1198 37.5841 10.1202 39.7372 10.121C39.8127 10.121 39.8879 10.121 39.9635 10.121C40.0007 10.121 40.0378 10.1211 40.0764 10.1211C40.1516 10.1211 40.2267 10.1211 40.3019 10.1211C40.4892 10.1212 40.6764 10.1213 40.8625 10.1213C41.6831 10.1216 42.5037 10.1218 43.3284 10.1217C43.3655 10.1216 43.4024 10.1216 43.4406 10.1216C43.627 10.1216 43.8135 10.1216 44.0012 10.1216C45.3499 10.1214 46.6946 10.1217 48.0434 10.123C48.1758 10.1231 48.3086 10.1232 48.4411 10.1233C48.4898 10.1234 48.4898 10.1234 48.5398 10.1234C49.0557 10.1239 49.5717 10.1238 50.0876 10.1234C50.5954 10.1231 51.1032 10.1234 51.607 10.1243C51.8784 10.1248 52.1514 10.125 52.4195 10.1245C52.6661 10.124 52.9111 10.1243 53.1589 10.1252C53.2478 10.1254 53.3368 10.1253 53.4254 10.1249C53.5456 10.1244 53.6659 10.1249 53.7865 10.1257C53.8381 10.1251 53.8381 10.1251 53.8909 10.1245C54.1469 10.1278 54.3662 10.1887 54.5572 10.3659C54.7311 10.5629 54.7896 10.7388 54.7896 10.9996C54.7897 11.0484 54.7899 11.0975 54.79 11.1479C54.7898 11.2019 54.7896 11.2564 54.7893 11.3104C54.7894 11.3681 54.7894 11.4258 54.7895 11.4835C54.7897 11.6419 54.7894 11.8003 54.789 11.9588C54.7886 12.1298 54.7888 12.3004 54.7888 12.4706C54.7889 12.7668 54.7886 13.0638 54.7881 13.3603C54.7875 13.7869 54.7873 14.2175 54.7872 14.6441C54.787 15.3388 54.7864 16.0335 54.7857 16.7281C54.7849 17.4025 54.7844 18.0769 54.784 18.7513C54.784 18.7927 54.784 18.8345 54.784 18.8772C54.7838 19.0856 54.7837 19.2956 54.7836 19.5028C54.7828 21.2334 54.7814 22.9641 54.7795 24.7028C54.5931 24.598 54.4285 24.4928 54.2595 24.3575C53.9224 24.0918 53.5608 23.87 53.1952 23.6466C53.163 23.627 53.131 23.6075 53.0977 23.5873C52.3055 23.1079 51.4686 22.726 50.5952 22.4213C50.5638 22.4103 50.5322 22.3993 50.5001 22.3879C50.4237 22.3612 50.3474 22.3343 50.2714 22.3079C50.2382 21.2517 50.2243 20.1913 50.2255 19.1351C50.2257 18.9803 50.2257 18.8259 50.2255 18.672C50.224 17.3395 50.248 16.007 50.2714 14.6704H4.56826V42.6204C6.74982 42.6167 8.91514 42.6131 11.1901 42.6093C12.4861 42.6083 13.7861 42.6074 15.082 42.6071C15.8417 42.607 16.6014 42.6068 17.3651 42.6066C17.4569 42.6065 17.5492 42.6065 17.641 42.6065C19.1075 42.606 20.5741 42.6037 22.0285 42.6005C23.5357 42.5971 25.0429 42.5956 26.5379 42.5965C26.7507 42.5966 26.9644 42.5967 27.1757 42.5968C27.2175 42.5969 27.2594 42.5969 27.3024 42.5969C27.9768 42.5971 28.6512 42.5954 29.3255 42.5929C30.004 42.5905 30.6824 42.5901 31.3609 42.5919C31.7639 42.5928 32.1652 42.5922 32.5715 42.5893C32.8408 42.5876 33.1118 42.5879 33.3799 42.5898C33.5335 42.5909 33.6866 42.5911 33.839 42.5887C34.7977 42.575 34.7977 42.575 35.0171 42.7861C35.1284 42.9231 35.1954 43.0681 35.2641 43.229C35.3044 43.2891 35.3462 43.3484 35.3904 43.4053C35.4082 43.4296 35.426 43.454 35.4445 43.4792C35.6943 43.8172 35.9685 44.1211 36.261 44.4258C36.3362 44.505 36.4077 44.5866 36.4784 44.6695C37.234 45.543 38.2212 46.2376 39.2043 46.8308C39.2559 46.862 39.2559 46.862 39.3083 46.8937C39.3386 46.9119 39.3689 46.9301 39.4001 46.949C39.5029 47.016 39.598 47.094 39.6939 47.1708H36.8907C36.8849 47.6014 36.879 48.028 36.8729 48.4708C36.8695 48.6049 36.8661 48.7389 36.8625 48.8771C36.8409 49.5677 36.8409 49.5677 37.1396 50.1649C37.2416 50.264 37.348 50.353 37.4613 50.4391C37.6003 50.5528 37.7104 50.6918 37.8249 50.8291C37.8924 50.9038 37.9602 50.9782 38.0281 51.0525C38.1438 51.1793 38.2584 51.3064 38.3709 51.436C38.5087 51.5945 38.6504 51.7488 38.7934 51.9032C38.9734 52.099 39.1518 52.2969 39.3297 52.4963C39.3906 52.5642 39.4516 52.6316 39.5125 52.6995C39.5426 52.733 39.5726 52.7665 39.6039 52.801C39.6648 52.8685 39.7266 52.9359 39.7883 53.0025C40.4383 53.7094 40.4383 53.7094 40.4871 54.0466C40.4579 54.3054 40.3486 54.5219 40.1723 54.7128C39.9001 54.8648 39.6157 54.8668 39.311 54.8656C39.2688 54.8657 39.2269 54.8659 39.1834 54.866C39.0421 54.8664 38.9007 54.8662 38.7609 54.866C38.6586 54.8661 38.5566 54.8663 38.4542 54.8666C38.232 54.867 38.0114 54.8671 37.788 54.867C37.4573 54.8669 37.1258 54.8672 36.7967 54.8676C36.1711 54.8684 35.5455 54.8687 34.9198 54.8687C34.4364 54.8687 33.953 54.8689 33.4736 54.8692C33.3347 54.8692 33.1957 54.8693 33.0552 54.8694C33.0206 54.8694 32.9861 54.8694 32.9503 54.8694C31.9794 54.8699 31.0085 54.8703 30.0375 54.8702C30.0009 54.8702 29.9644 54.8702 29.9266 54.8702C29.741 54.8702 29.5553 54.8702 29.3701 54.8702C29.3332 54.8702 29.2965 54.8702 29.2583 54.8702C29.184 54.8702 29.1093 54.8702 29.0349 54.8702C27.873 54.8701 26.7152 54.8707 25.5533 54.8718C24.2493 54.8731 22.9452 54.8738 21.6452 54.8737C21.5063 54.8737 21.3673 54.8737 21.2268 54.8737C21.1756 54.8737 21.1756 54.8737 21.1232 54.8737C20.5707 54.8737 20.0223 54.8742 19.4698 54.8749C18.9173 54.8756 18.3648 54.8757 17.8082 54.8752C17.4795 54.8749 17.1501 54.875 16.821 54.8758C16.5756 54.8764 16.3294 54.876 16.0857 54.8754C15.9862 54.8753 15.887 54.8754 15.7875 54.8759C15.6526 54.8765 15.5178 54.876 15.3829 54.8754C15.3442 54.8758 15.3053 54.8762 15.2655 54.8766C14.9742 54.8735 14.7211 54.8104 14.4977 54.6137C14.3303 54.3623 14.2852 54.1384 14.3429 53.8378C14.466 53.5343 14.7451 53.2934 14.9685 53.0578C15.0766 52.9469 15.0766 52.9469 15.1558 52.8214H15.237C15.2481 52.7972 15.2592 52.773 15.2706 52.7482C15.3169 52.6613 15.364 52.6012 15.4318 52.5301C15.4539 52.5066 15.4761 52.4829 15.4989 52.459C15.5223 52.4345 15.5456 52.4098 15.57 52.3846C15.6183 52.3335 15.6666 52.2819 15.715 52.2307C15.7381 52.2062 15.7613 52.1819 15.7849 52.1563C15.8556 52.0808 15.9238 52.0036 15.9912 51.9252C16.116 51.7805 16.2451 51.6408 16.3747 51.5027C16.5303 51.3345 16.6843 51.1655 16.8338 50.9908C17.017 50.7804 17.2043 50.5724 17.3944 50.3692C17.4162 50.3459 17.4379 50.3225 17.4606 50.2985C17.5033 50.253 17.5464 50.2075 17.589 50.1624C17.7861 49.9516 17.8921 49.8098 17.89 49.5165C17.89 49.4653 17.89 49.4141 17.89 49.3613C17.8894 49.3057 17.8888 49.2504 17.8881 49.1948C17.8879 49.1375 17.8877 49.0806 17.8876 49.0233C17.8871 48.8734 17.8859 48.7239 17.8846 48.5724C17.8833 48.4192 17.8828 48.2665 17.8822 48.1133C17.8809 47.8135 17.8788 47.5121 17.8762 47.2114C17.8398 47.2114 17.8035 47.2114 17.7657 47.2114C15.6085 47.2099 13.4595 47.2076 11.3064 47.2042C11.0476 47.2038 10.7904 47.2034 10.5304 47.203C10.4788 47.2029 10.4272 47.2029 10.374 47.2028C9.53714 47.2015 8.70433 47.2008 7.86745 47.2004C7.01027 47.1998 6.15308 47.1987 5.29589 47.197C4.76777 47.196 4.23964 47.1955 3.71152 47.1956C3.34914 47.1956 2.98839 47.195 2.62277 47.1939C2.41355 47.1933 2.20433 47.193 1.99714 47.1933C1.8058 47.1937 1.61405 47.1933 1.42433 47.1923C1.35486 47.192 1.2858 47.1921 1.21633 47.1924C0.521641 47.1956 0.521641 47.1956 0.298204 47.0084C0.000422731 46.6968 -0.0272023 46.4071 -0.0219211 45.9928C-0.0222058 45.931 -0.0226157 45.8697 -0.0231357 45.8079C-0.0242082 45.6389 -0.0235139 45.4699 -0.0225304 45.3001C-0.0217707 45.1161 -0.0226637 44.9325 -0.0233429 44.7476C-0.0243057 44.4255 -0.0242123 44.1017 -0.0234274 43.7807C-0.0222614 43.3014 -0.0227206 42.822 -0.0235001 42.3426C-0.0248408 41.4854 -0.0245604 40.6323 -0.023598 39.7751C-0.0227611 39.0276 -0.0224687 38.276 -0.0227206 37.5285C-0.0227364 37.479 -0.0227522 37.4294 -0.0227684 37.3782C-0.0228334 37.1767 -0.0229009 36.9752 -0.0229716 36.7729C-0.0236297 34.8798 -0.022662 32.9907 -0.0209444 31.0854C-0.019425 29.4036 -0.0192584 27.7217 -0.0202578 26.0479C-0.021375 24.1589 -0.0217163 22.2739 -0.0207494 20.4011C-0.0206482 20.2 -0.0205483 19.9989 -0.0204492 19.7957C-0.020424 19.7462 -0.0203988 19.6966 -0.0203728 19.6458C-0.0200039 18.8983 -0.0202209 18.1468 -0.0207137 17.3993C-0.0212702 16.5502 -0.0209464 15.6971 -0.0194665 14.848C-0.0186621 14.3727 -0.018528 13.8933 -0.0193539 13.418C-0.0198374 13.0999 -0.0194401 12.7802 -0.0183139 12.4633C-0.0176964 12.2821 -0.017469 12.1006 -0.0183055 11.919C-0.019057 11.754 -0.0186938 11.5891 -0.017432 11.4233C-0.0171744 11.364 -0.0173256 11.3047 -0.0179317 11.2454C-0.0231723 10.697 -0.0231723 10.697 0.181943 10.4816C0.434631 10.2383 0.612568 10.1282 0.966006 10.1347L0.950463 10.1157Z" fill="#E5F1E5"/>
<path id="Vector_2" d="M46.1092 24.253C46.1632 24.253 46.1632 24.253 46.2181 24.2529C47.9731 24.255 49.7118 24.6494 51.2556 25.4839C51.2845 25.4991 51.3132 25.5142 51.3433 25.5298C51.8146 25.7776 52.2492 26.062 52.6758 26.3788C52.6994 26.396 52.7229 26.4132 52.7473 26.4308C53.2064 26.7656 53.6167 27.154 54.0148 27.5561C54.0652 27.6045 54.0652 27.6045 54.1168 27.6536C54.3886 27.9169 54.6246 28.194 54.8521 28.4986C54.9061 28.5706 54.9614 28.6416 55.0166 28.7123C56.7188 30.9345 57.4257 33.8717 57.0763 36.6342C56.8541 38.2348 56.3166 39.7664 55.4472 41.1436C55.4311 41.1691 55.4149 41.1948 55.3981 41.2208C55.3587 41.2817 55.3181 41.3418 55.277 41.402C55.2238 41.4881 55.2238 41.4881 55.2396 41.5706C55.2806 41.6794 55.3371 41.7363 55.4195 41.8184C55.4514 41.8504 55.4833 41.8826 55.5162 41.9155C55.5517 41.9504 55.5869 41.9853 55.6235 42.0215C55.6608 42.0588 55.6982 42.0962 55.7364 42.1348C55.84 42.2388 55.9444 42.342 56.0484 42.4456C56.1605 42.5569 56.2727 42.6691 56.3844 42.7808C56.5786 42.9746 56.7728 43.1683 56.9694 43.3617C57.2509 43.6416 57.5341 43.9223 57.8144 44.2027C58.2694 44.6576 58.7284 45.1126 59.1834 45.5676C59.2108 45.5949 59.2383 45.6221 59.2663 45.6501C59.4881 45.8711 59.7091 46.0929 59.9326 46.3123C60.1264 46.5053 60.3197 46.6978 60.5135 46.8892C60.5545 46.9298 60.5545 46.9298 60.596 46.9716C61.051 47.4266 61.506 47.8776 61.961 48.3326C62.2413 48.6125 62.5216 48.8932 62.8019 49.1695C62.9945 49.3608 63.187 49.553 63.3788 49.7463C63.4897 49.8568 63.6006 49.9673 63.7115 50.0778C63.8322 50.1977 63.9524 50.3179 64.0727 50.4382C64.1075 50.4726 64.1425 50.5068 64.1783 50.5426C64.4582 50.8241 64.7105 51.1235 64.8567 51.4973C64.8725 51.5365 64.8884 51.5757 64.9047 51.6163C65.0566 52.0591 64.994 52.4776 64.8214 52.9082C64.5784 53.3916 64.2486 53.7451 63.7326 53.9401C63.1964 54.116 62.7008 54.0696 62.1848 53.8462C61.5876 53.5212 61.1083 52.8996 60.6329 52.4203C60.5241 52.3106 60.4152 52.2013 60.3059 52.092C60.1418 51.9275 59.9781 51.763 59.8144 51.5964C59.4926 51.2734 59.1725 50.9505 58.8475 50.6295C58.7967 50.5787 58.7459 50.5276 58.6951 50.4768C58.6184 50.3996 58.5412 50.3224 58.4644 50.2452C58.1751 49.9552 57.8875 49.6643 57.595 49.3758C57.5686 49.3494 57.5422 49.323 57.515 49.2958C57.0844 48.8652 56.6578 48.4346 56.2272 48.0039C55.7884 47.5611 55.3456 47.1183 54.9028 46.6755C54.6306 46.4029 54.3584 46.1311 54.0862 45.8589C53.9006 45.6721 53.7149 45.486 53.5297 45.2983C53.422 45.1911 53.3148 45.0834 53.2079 44.9753C53.0921 44.8583 52.9759 44.7426 52.8594 44.6264C52.8086 44.5744 52.8086 44.5744 52.7566 44.5216C52.7255 44.4908 52.6944 44.4602 52.6623 44.4285C52.6221 44.3882 52.6221 44.3882 52.5811 44.3469C52.5075 44.2855 52.5075 44.2855 52.4186 44.3042C52.3259 44.3424 52.2463 44.3895 52.1622 44.444C52.1102 44.477 52.1102 44.477 52.0574 44.5106C52.0206 44.5341 51.9839 44.5577 51.9461 44.5821C51.5862 44.8084 51.223 45.0086 50.8411 45.1874C50.7928 45.2105 50.7448 45.2337 50.6953 45.2573C49.8259 45.6635 48.8996 45.9154 47.9571 46.082C47.9161 46.0892 47.8755 46.0964 47.8332 46.1039C46.8298 46.272 45.7167 46.2899 44.7092 46.1351C44.6218 46.1219 44.5341 46.1109 44.4463 46.1001C42.6954 45.8697 40.9851 45.121 39.5713 44.0526C39.5503 44.0368 39.5291 44.0209 39.5075 44.0046C39.1119 43.7069 38.7479 43.3831 38.3944 43.0378C38.3639 43.0083 38.3639 43.0083 38.3327 42.978C37.7517 42.4134 37.2317 41.7715 36.8133 41.0809C36.767 41.0049 36.7199 40.9293 36.6723 40.8542C35.7176 39.3104 35.1854 37.4579 35.1448 35.6542C35.144 35.6248 35.1432 35.5953 35.1423 35.5652C35.0801 33.1155 35.8167 30.6496 37.2995 28.6996C37.3166 28.6767 37.3337 28.6537 37.3511 28.6301C37.9564 27.8217 38.6836 27.066 39.5001 26.4689C39.534 26.4441 39.568 26.4193 39.6025 26.3937C39.8849 26.1885 40.1713 25.996 40.4719 25.8128C40.4977 25.7967 40.5235 25.7806 40.5503 25.764C41.8462 24.9596 43.3494 24.4884 44.8566 24.3096C44.8882 24.3058 44.9199 24.3019 44.9524 24.2979C45.3266 24.2576 45.704 24.2591 46.0777 24.2589L46.1092 24.253ZM40.9904 29.3311C40.9676 29.3508 40.9445 29.3704 40.921 29.3909C40.6268 29.6448 40.3766 29.919 40.1369 30.2237C40.1079 30.2577 40.0788 30.2919 40.0487 30.3269C39.2769 31.2287 38.8056 32.3134 38.5212 33.459C38.5091 33.5078 38.5091 33.5078 38.4968 33.5574C38.3684 34.1058 38.3318 34.6583 38.3334 35.2189C38.3335 35.2496 38.3335 35.2803 38.3335 35.312C38.3398 37.2498 39.0729 39.0129 40.3404 40.4713C40.3769 40.5168 40.4135 40.5623 40.4501 40.6082C40.481 40.6435 40.5118 40.6789 40.5435 40.7151H40.6248L40.6654 40.837C40.7243 40.8999 40.7243 40.8999 40.7998 40.9613C40.8437 40.9984 40.8437 40.9984 40.8884 41.0364C40.9388 41.0783 40.9388 41.0783 40.99 41.1213C41.0282 41.1539 41.0663 41.1867 41.1058 41.22C42.6983 42.5688 44.7539 43.2229 46.8339 43.0563C47.0118 43.0392 47.1881 43.0157 47.3661 42.9889C47.3929 42.9849 47.4197 42.981 47.4473 42.977C48.8733 42.7609 50.3073 42.1036 51.3554 41.1042C51.4282 41.0376 51.4282 41.0376 51.5094 40.9969V40.9157C51.5311 40.9076 51.5529 40.8994 51.5752 40.8911C51.715 40.8094 51.8125 40.6969 51.9209 40.5779C51.9442 40.5525 51.9677 40.5271 51.9916 40.5011C53.1048 39.2742 53.8441 37.702 53.9863 36.0324C53.989 36.0014 53.9916 35.9706 53.9944 35.9385C54.1597 33.8748 53.5475 31.7948 52.215 30.2104C51.5163 29.3898 50.7078 28.7438 49.7613 28.2319C49.7348 28.2176 49.7085 28.2032 49.6808 28.1885C46.8737 26.6935 43.3433 27.2907 40.9871 29.33L40.9904 29.3311Z" fill="#E5F1E5"/>
<path id="Vector_3" d="M11.4969 21.5717C11.8272 21.7614 12.0007 22.0023 12.1225 22.3598C12.1566 22.5048 12.1684 22.6385 12.1684 22.7864C12.1686 22.8311 12.1688 22.8762 12.1689 22.9225C12.1689 22.9716 12.1689 23.0204 12.1688 23.0712C12.1689 23.1236 12.1691 23.1756 12.1692 23.2296C12.1695 23.3746 12.1696 23.5197 12.1696 23.6643C12.1697 23.8207 12.17 23.9771 12.1703 24.1355C12.1708 24.4776 12.1711 24.818 12.1712 25.1633C12.1714 25.377 12.1715 25.5899 12.1717 25.8052C12.1722 26.3983 12.1726 26.9874 12.1728 27.5805C12.1728 27.6374 12.1728 27.6374 12.1728 27.6955C12.1728 27.7524 12.1728 27.7524 12.1728 27.8105C12.1728 27.8873 12.1728 27.9644 12.1729 28.0412C12.1729 28.0794 12.1729 28.1176 12.1729 28.157C12.1731 28.7745 12.1738 29.392 12.1747 30.0095C12.1757 30.6433 12.1762 31.2811 12.1762 31.9148C12.1763 32.2711 12.1765 32.6258 12.1772 32.9833C12.1779 33.2867 12.1781 33.5886 12.1777 33.8933C12.1776 34.048 12.1776 34.2028 12.1782 34.3564C12.1788 34.5246 12.1785 34.6923 12.178 34.8601C12.1784 34.9085 12.1787 34.9572 12.179 35.0072C12.1763 35.4784 12.0994 35.8725 11.7565 36.2138C11.4283 36.4774 11.074 36.5339 10.6597 36.4981C10.3221 36.4209 10.0909 36.2272 9.87153 35.9659C9.67937 35.6202 9.66637 35.2469 9.66881 34.8609C9.66862 34.8081 9.66843 34.7557 9.66823 34.7013C9.66773 34.5563 9.66798 34.4112 9.66835 34.2666C9.66863 34.1098 9.6682 33.953 9.66787 33.7953C9.66733 33.4886 9.66744 33.1819 9.6678 32.8732C9.66808 32.6237 9.66811 32.3735 9.66798 32.1257C9.66796 32.0901 9.66794 32.0546 9.66792 32.018C9.66788 31.9457 9.66784 31.8734 9.6678 31.8011C9.66746 31.1226 9.66786 30.4483 9.66851 29.7698C9.66906 29.1889 9.66896 28.6079 9.6684 28.0311C9.66774 27.3567 9.66749 26.6823 9.66786 26.0079C9.6679 25.936 9.66794 25.8641 9.66798 25.7922C9.668 25.7568 9.66802 25.7215 9.66803 25.685C9.66814 25.4359 9.66796 25.1853 9.66768 24.9375C9.66733 24.634 9.66743 24.3322 9.66808 24.0275C9.66839 23.8727 9.66852 23.7179 9.66812 23.5643C9.66769 23.3962 9.6682 23.2284 9.66881 23.0606C9.66854 23.0118 9.66826 22.9635 9.66798 22.9131C9.67107 22.4703 9.74923 22.125 10.0499 21.7959C10.4407 21.4157 11.0045 21.3491 11.4961 21.5749L11.4969 21.5717Z" fill="#E5F1E5"/>
<path id="Vector_4" d="M16.2906 24.9031C16.5818 25.1062 16.7374 25.3337 16.8268 25.675C16.8853 26.0268 16.8682 26.3859 16.8669 26.7434C16.867 26.8364 16.8672 26.9295 16.8674 27.0229C16.8678 27.2748 16.8674 27.5266 16.8669 27.7785C16.8664 28.0426 16.8666 28.3066 16.8666 28.5707C16.8667 29.0135 16.8662 29.4563 16.8655 29.8991C16.8647 30.3541 16.8644 30.8091 16.8646 31.2641C16.8649 31.8126 16.8648 32.3651 16.8643 32.9135C16.8641 33.1231 16.8641 33.332 16.8641 33.5432C16.8642 33.7902 16.8639 34.0388 16.8632 34.2826C16.8631 34.3732 16.863 34.4638 16.8631 34.554C16.8633 34.6779 16.8629 34.8014 16.8624 34.9253C16.8626 34.9789 16.8626 34.9789 16.8629 35.0333C16.8598 35.468 16.7674 35.858 16.4526 36.1749C16.1227 36.4406 15.766 36.5072 15.3516 36.465C15.0112 36.3861 14.7341 36.1834 14.5391 35.8962C14.4388 35.6878 14.3718 35.4696 14.3713 35.2381C14.3712 35.2045 14.371 35.1711 14.3708 35.1365C14.3708 35.0999 14.3708 35.0634 14.3708 35.0256C14.3707 34.9865 14.3705 34.9472 14.3704 34.907C14.3699 34.7758 14.3698 34.6441 14.3696 34.5129C14.3694 34.4187 14.3691 34.3248 14.3688 34.2306C14.3679 33.9214 14.3675 33.6131 14.3671 33.3043C14.367 33.1979 14.3668 33.0915 14.3666 32.9846C14.3659 32.5418 14.3653 32.099 14.365 31.6562C14.365 31.5412 14.3649 31.4262 14.3648 31.3113C14.3648 31.2827 14.3648 31.254 14.3647 31.2247C14.3644 30.7616 14.3634 30.2985 14.3621 29.8394C14.3607 29.3641 14.36 28.8888 14.3599 28.4135C14.3598 28.147 14.3594 27.8813 14.3584 27.6132C14.3574 27.3621 14.3573 27.1094 14.3577 26.8616C14.3577 26.7698 14.3574 26.678 14.3569 26.5858C14.3503 25.4483 14.3503 25.4483 14.7424 25.042C15.1852 24.6683 15.7905 24.6033 16.2943 24.9039L16.2906 24.9031Z" fill="#E5F1E5"/>
<path id="Vector_5" d="M25.7157 24.9029C25.9907 25.091 26.1544 25.3417 26.2357 25.6626C26.2749 25.8877 26.282 26.1054 26.2816 26.3329C26.2817 26.3708 26.2818 26.4089 26.2819 26.4479C26.2821 26.5747 26.2821 26.701 26.2821 26.8278C26.2822 26.9188 26.2823 27.0098 26.2825 27.1008C26.2828 27.3478 26.2829 27.5964 26.283 27.8401C26.283 27.9945 26.2831 28.1489 26.2832 28.3033C26.2835 28.8151 26.2837 29.327 26.2837 29.8348C26.2837 29.8623 26.2837 29.8897 26.2837 29.9181C26.2837 29.9456 26.2837 29.9734 26.2837 30.0014C26.2837 30.4483 26.2841 30.8951 26.2846 31.3379C26.2852 31.797 26.2855 32.2561 26.2855 32.7151C26.2855 32.9723 26.2856 33.2311 26.286 33.487C26.2864 33.7291 26.2864 33.9704 26.2861 34.2142C26.2861 34.3028 26.2862 34.3913 26.2864 34.4803C26.2896 35.695 26.2896 35.695 25.8761 36.1419C25.6189 36.3868 25.3683 36.4705 25.0189 36.4819C24.6447 36.4696 24.4014 36.373 24.1251 36.1142C23.9212 35.8794 23.7949 35.5942 23.7941 35.2814C23.7939 35.2475 23.7937 35.2136 23.7935 35.1786C23.7935 35.1416 23.7935 35.1047 23.7935 35.0665C23.7934 35.027 23.7932 34.9877 23.7931 34.9471C23.7926 34.8146 23.7925 34.6818 23.7923 34.5494C23.7921 34.4543 23.7918 34.3596 23.7915 34.2646C23.7907 33.9526 23.7902 33.6389 23.7898 33.3261C23.7897 33.2185 23.7895 33.1112 23.7893 33.0036C23.7886 32.5567 23.788 32.1098 23.7878 31.6629C23.7877 31.5468 23.7876 31.431 23.7875 31.3148C23.7875 31.2859 23.7875 31.2571 23.7875 31.2274C23.7871 30.7603 23.7861 30.2931 23.7848 29.8259C23.7834 29.3465 23.7827 28.8671 23.7826 28.3878C23.7825 28.1188 23.7821 27.8515 23.7811 27.5793C23.7801 27.3262 23.78 27.0715 23.7804 26.8196C23.7804 26.727 23.7801 26.634 23.7796 26.5414C23.7734 25.4485 23.7734 25.4485 24.198 25.0017C24.6205 24.6352 25.2421 24.6198 25.7133 24.8952L25.7157 24.9029Z" fill="#E5F1E5"/>
<path id="Vector_6" d="M20.9624 30.0627C21.2383 30.2614 21.4133 30.4974 21.519 30.8183C21.556 31.0605 21.5657 31.2977 21.5657 31.5415C21.5658 31.5799 21.566 31.6183 21.5661 31.6581C21.5665 31.7844 21.5666 31.9108 21.5666 32.0367C21.5667 32.1253 21.5669 32.2134 21.567 32.302C21.5673 32.4872 21.5673 32.6725 21.5673 32.8585C21.5673 33.0946 21.5679 33.3298 21.5686 33.5654C21.569 33.7482 21.5691 33.9306 21.5691 34.1138C21.5691 34.2008 21.5693 34.2877 21.5696 34.3747C21.5739 35.6828 21.5739 35.6828 21.2349 36.1012C20.9684 36.3661 20.6661 36.4717 20.2964 36.4794C19.8926 36.4666 19.6342 36.336 19.358 36.0448C19.1817 35.7803 19.0797 35.541 19.0777 35.2201C19.0774 35.1828 19.0771 35.1457 19.0768 35.1071C19.0766 35.0466 19.0766 35.0466 19.0765 34.9848C19.0762 34.9418 19.0759 34.8991 19.0757 34.8548C19.0749 34.7131 19.0744 34.5713 19.074 34.4283C19.0738 34.3795 19.0736 34.3312 19.0735 34.2812C19.0726 34.0241 19.072 33.7653 19.0717 33.5093C19.0712 33.2445 19.0698 32.9812 19.0682 32.7131C19.0671 32.5088 19.0668 32.3028 19.0667 32.0997C19.0665 32.0022 19.066 31.9047 19.0652 31.8068C19.0642 31.6698 19.0643 31.5329 19.0646 31.3964C19.0638 31.3367 19.0638 31.3367 19.063 31.2758C19.0659 30.8858 19.1776 30.4958 19.4493 30.2074C19.8596 29.8206 20.4812 29.7727 20.9646 30.0595L20.9624 30.0627Z" fill="#E5F1E5"/>
<path id="Vector_7" d="M30.3873 30.0623C30.655 30.2533 30.8464 30.4889 30.9276 30.8098C30.9926 31.2527 30.993 31.6873 30.9922 32.1342C30.9923 32.2175 30.9923 32.3008 30.9924 32.3841C30.9926 32.5579 30.9924 32.7318 30.992 32.9041C30.9915 33.1251 30.9918 33.3469 30.9923 33.5662C30.9926 33.7381 30.9925 33.9099 30.9923 34.0822C30.9922 34.1638 30.9923 34.2451 30.9925 34.3267C30.995 35.7121 30.995 35.7121 30.6159 36.1386C30.2998 36.4153 29.9781 36.4827 29.5637 36.473C29.1887 36.445 28.9543 36.2495 28.7065 35.9773C28.5538 35.7527 28.4985 35.5264 28.4977 35.2542C28.4975 35.2161 28.4972 35.1778 28.497 35.1388C28.497 35.0974 28.4969 35.0564 28.4969 35.0137C28.4967 34.9698 28.4965 34.926 28.4963 34.8809C28.4957 34.7358 28.4954 34.5908 28.4952 34.4462C28.4949 34.3454 28.4947 34.2443 28.4945 34.1435C28.494 33.9319 28.4938 33.721 28.4937 33.5098C28.4935 33.2388 28.4925 32.9695 28.4913 32.6973C28.4905 32.4889 28.4903 32.2788 28.4903 32.0717C28.4901 31.9717 28.4898 31.8718 28.4893 31.7722C28.4886 31.6325 28.4887 31.4927 28.4889 31.3538C28.4886 31.3128 28.4882 31.2717 28.4878 31.2295C28.4901 30.8306 28.617 30.5226 28.8689 30.2139C29.2751 29.8125 29.9129 29.7914 30.3882 30.068L30.3873 30.0623Z" fill="#E5F1E5"/>
</g>
<defs>
<clipPath id="clip0_1392_26">
<rect width="65" height="65" fill="white"/>
</clipPath>
</defs>
</svg>
