<svg width="65" height="65" viewBox="0 0 65 65" fill="none" xmlns="http://www.w3.org/2000/svg">
<g id="reducao 1">
<path id="Vector" d="M5.97173 4.67205C6.00585 4.67193 6.03998 4.67181 6.07532 4.67168C6.18948 4.67133 6.30404 4.67127 6.4182 4.67121C6.50026 4.67102 6.58232 4.67082 6.66438 4.6706C6.88741 4.67007 7.11126 4.6698 7.3347 4.66962C7.47404 4.6695 7.61338 4.66934 7.75313 4.66916C8.18782 4.6686 8.62657 4.66821 9.06126 4.66805C9.56501 4.66787 10.0688 4.66716 10.5684 4.66598C10.9576 4.6651 11.3484 4.66469 11.7344 4.66464C11.9668 4.6646 12.1975 4.66436 12.4331 4.66363C12.6517 4.66296 12.8719 4.66288 13.0913 4.66323C13.1713 4.66326 13.2513 4.66309 13.3309 4.66268C14.1719 4.65869 14.8259 4.7935 15.4556 5.39393C16.0934 6.0805 16.1706 6.82393 16.1706 7.71768C16.1708 7.80828 16.1709 7.89887 16.1712 7.98946C16.1716 8.2385 16.1714 8.48915 16.171 8.73696C16.1707 8.9799 16.171 9.22446 16.1713 9.46415C16.1718 9.9679 16.1718 10.4717 16.1715 10.9713C16.1711 11.4792 16.1711 11.991 16.1713 12.4988C16.1713 12.5472 16.1713 12.5472 16.1714 12.5963C16.1714 12.7276 16.1715 12.8588 16.1716 12.9896C16.1722 14.2124 16.1722 15.4312 16.1719 16.654C16.1719 16.6901 16.1719 16.7263 16.1719 16.7637C16.1719 16.7999 16.1719 16.836 16.1718 16.8733C16.1715 17.9783 16.1715 19.0793 16.1716 20.1843C16.1716 20.2582 16.1716 20.3322 16.1716 20.4061C16.1717 20.7031 16.1717 20.9992 16.1718 21.2958C16.1719 22.1245 16.1719 22.9573 16.172 23.7861C16.172 23.8239 16.172 23.8617 16.172 23.9007C16.172 25.1072 16.1719 26.3097 16.1716 27.5163C16.1716 27.5554 16.1716 27.5943 16.1716 27.6345C16.1715 28.2682 16.1713 28.902 16.1712 29.5398C16.1706 32.0545 16.1706 34.5773 16.1712 37.0961C16.1713 37.7298 16.1715 38.3636 16.1716 38.9973C16.1716 39.0364 16.1716 39.0753 16.1716 39.1155C16.1719 40.318 16.172 41.5205 16.172 42.7271C16.172 42.7649 16.172 42.8027 16.172 42.8417C16.1719 43.6704 16.1718 44.4992 16.1717 45.3279C16.1717 45.6245 16.1717 45.921 16.1716 46.2176C16.1716 46.2915 16.1716 46.3651 16.1716 46.439C16.1714 47.544 16.1716 48.6449 16.1719 49.7499C16.1719 49.7861 16.1719 49.8223 16.1719 49.8596C16.1719 49.8957 16.1719 49.9319 16.1719 49.9689C16.1723 51.1877 16.1721 52.4023 16.1715 53.6211C16.1714 53.7519 16.1714 53.8827 16.1713 54.0131C16.1713 54.0452 16.1713 54.0773 16.1713 54.1102C16.171 54.618 16.1712 55.1258 16.1715 55.6337C16.1718 56.1333 16.1717 56.633 16.1712 57.1327C16.1709 57.4 16.1708 57.669 16.1712 57.933C16.1716 58.176 16.1714 58.4205 16.1708 58.6643C16.1707 58.7516 16.1708 58.839 16.1711 58.9263C16.1738 59.7388 16.0655 60.3929 15.5577 61.0591C15.5065 61.1103 15.5065 61.1103 15.4252 61.1103C15.4118 61.1505 15.3984 61.1907 15.3846 61.2322C14.698 61.8659 13.8287 61.8944 12.9471 61.8944C12.8715 61.8945 12.796 61.8946 12.7204 61.8948C12.5169 61.8952 12.3142 61.895 12.111 61.8948C11.8969 61.8946 11.6845 61.8948 11.4692 61.8949C11.11 61.895 10.7501 61.8948 10.3926 61.8945C9.97821 61.894 9.56384 61.8942 9.14946 61.8946C8.79278 61.895 8.43446 61.895 8.08103 61.8948C7.86856 61.8947 7.65446 61.8947 7.44321 61.8949C7.24334 61.8952 7.04346 61.895 6.84196 61.8945C6.76924 61.8944 6.69612 61.8945 6.6234 61.8946C5.83934 61.8964 5.14465 61.8467 4.49465 61.3543C4.46763 61.3345 4.44062 61.3146 4.41259 61.2942C3.94946 60.9237 3.64478 60.3558 3.55946 59.7708C3.54906 59.6493 3.54269 59.5274 3.53692 59.4055C3.53521 59.37 3.53349 59.3345 3.53172 59.2979C3.51344 58.8835 3.51319 58.4732 3.51368 58.0588C3.51364 57.9707 3.51358 57.8825 3.5135 57.7944C3.51334 57.5535 3.51344 57.3109 3.51357 57.0712C3.51368 56.8084 3.51354 56.5472 3.51344 56.2831C3.51329 55.824 3.5133 55.365 3.5134 54.9019C3.51351 54.4103 3.51354 53.9147 3.51345 53.4231C3.51345 53.3919 3.51344 53.3605 3.51344 53.3284C3.51342 53.2013 3.51339 53.0741 3.51337 52.947C3.51316 51.7648 3.51314 50.5826 3.51325 49.3964C3.51326 49.3439 3.51326 49.3439 3.51326 49.2903C3.51327 49.2553 3.51327 49.22 3.51327 49.1839C3.51338 48.1154 3.5134 47.047 3.51336 45.9745C3.51335 45.903 3.51335 45.8311 3.51335 45.7596C3.51333 45.4716 3.51332 45.1827 3.51331 44.8943C3.51327 44.0899 3.51325 43.2855 3.51323 42.4812C3.51323 42.4445 3.51323 42.408 3.51323 42.3703C3.51322 41.2043 3.51326 40.0343 3.51335 38.8684C3.51335 38.8305 3.51336 38.7928 3.51336 38.7538C3.5134 38.1404 3.51345 37.5229 3.5135 36.9095C3.5137 34.4719 3.51369 32.0344 3.5135 29.5969C3.51345 28.9835 3.5134 28.3701 3.51335 27.7526C3.51335 27.7148 3.51334 27.677 3.51334 27.638C3.51325 26.4721 3.51322 25.3061 3.51323 24.1402C3.51323 24.1036 3.51324 24.0671 3.51324 24.0293C3.51325 23.2249 3.51327 22.4205 3.51331 21.6162C3.51333 21.3285 3.51334 21.0393 3.51335 20.7549C3.51335 20.6834 3.51336 20.6119 3.51336 20.54C3.51341 19.4716 3.51337 18.4031 3.51326 17.3347C3.51326 17.2997 3.51326 17.2648 3.51325 17.2287C3.51325 17.1937 3.51325 17.1588 3.51324 17.1226C3.51313 15.9445 3.51317 14.7623 3.51339 13.5842C3.51341 13.4574 3.51343 13.3307 3.51345 13.2035C3.51346 13.1724 3.51346 13.1414 3.51347 13.1093C3.51355 12.6177 3.51349 12.1262 3.51338 11.6346C3.51327 11.1512 3.51331 10.6677 3.5135 10.1802C3.5136 9.92145 3.51363 9.66429 3.51349 9.40429C3.51335 9.16826 3.51341 8.93304 3.51362 8.69742C3.51366 8.61292 3.51363 8.52882 3.51353 8.44432C3.51303 8.00963 3.51844 7.57901 3.53514 7.14838C3.53648 7.10979 3.53782 7.0712 3.5392 7.03138C3.57065 6.30826 3.8963 5.76388 4.40451 5.2642C4.83514 4.87217 5.39576 4.6792 5.97264 4.6792L5.97173 4.67205Z" fill="#E5F1E5"/>
<path id="Vector_2" d="M23.7656 20.7594C23.8456 20.7593 23.9256 20.7591 24.0057 20.7588C24.2222 20.7583 24.4403 20.7582 24.6557 20.7583C24.8368 20.7584 25.018 20.7582 25.2 20.758C25.6266 20.7575 26.0532 20.7575 26.4838 20.7578C26.9225 20.758 27.3653 20.7575 27.8041 20.7567C28.1827 20.7559 28.5597 20.7557 28.9416 20.7558C29.1675 20.7559 29.3925 20.7558 29.62 20.7552C29.8325 20.7547 30.0466 20.7548 30.2578 20.7553C30.3354 20.7554 30.413 20.7553 30.4906 20.755C31.3113 20.7517 32.0303 20.8659 32.6478 21.4497C33.4481 22.25 33.4238 23.2087 33.4278 24.2731C33.428 24.4722 33.4279 24.6708 33.4278 24.8703C33.4277 25.0535 33.4278 25.2367 33.4279 25.4187C33.428 25.7393 33.428 26.0606 33.4279 26.3815C33.4278 26.8568 33.4279 27.3362 33.428 27.8115C33.4282 28.6647 33.4282 29.5137 33.4281 30.3668C33.4279 31.1103 33.4279 31.8578 33.428 32.6012C33.428 32.6756 33.428 32.6756 33.428 32.7511C33.428 32.9518 33.428 33.1529 33.428 33.3524C33.4281 35.2374 33.428 37.1183 33.4278 38.9993C33.4276 40.673 33.4276 42.3468 33.4278 44.0368C33.428 45.9177 33.4281 47.7986 33.428 49.6836C33.428 49.8839 33.428 50.0846 33.428 50.2849C33.428 50.334 33.428 50.3836 33.428 50.4344C33.4279 51.1778 33.428 51.9253 33.4281 52.6688C33.4282 53.5138 33.4282 54.3628 33.4279 55.2078C33.4278 55.6831 33.4278 56.1544 33.428 56.6297C33.4281 56.9466 33.428 57.2634 33.4278 57.5803C33.4277 57.7607 33.4277 57.9411 33.4278 58.1206C33.428 58.2852 33.4279 58.4493 33.4277 58.6122C33.4277 58.6711 33.4277 58.7296 33.4278 58.7885C33.4294 59.7391 33.3835 60.6004 32.6966 61.3276C32.0506 61.9369 31.295 62.0385 30.45 62.0344C30.3679 62.0347 30.2859 62.035 30.2038 62.0353C29.9824 62.036 29.761 62.036 29.5375 62.0357C29.3523 62.0356 29.1666 62.0359 28.981 62.0361C28.5422 62.0367 28.1035 62.0366 27.6688 62.0362C27.2179 62.0357 26.7669 62.0363 26.316 62.0373C25.928 62.0382 25.5401 62.0385 25.1541 62.0383C24.923 62.0381 24.691 62.0382 24.4594 62.0389C24.2421 62.0396 24.0247 62.0394 23.8054 62.0386C23.7261 62.0385 23.6465 62.0386 23.5673 62.039C22.7385 62.0431 22.0682 61.8725 21.4589 61.2794C21.3167 61.1303 21.2066 60.9799 21.107 60.8C21.0797 60.7541 21.0797 60.7541 21.0518 60.707C20.8166 60.2804 20.7755 59.8376 20.7589 59.3623C20.7564 59.2936 20.7564 59.2936 20.7539 59.2233C20.7349 58.6465 20.7357 58.0696 20.7362 57.4927C20.7363 57.3241 20.7362 57.1555 20.7361 56.9889C20.7359 56.6948 20.736 56.3999 20.7361 56.1074C20.7362 55.6686 20.7361 55.234 20.736 54.7952C20.7358 54.0111 20.7358 53.2311 20.7359 52.4471C20.736 51.7605 20.7361 51.074 20.736 50.3915C20.736 50.346 20.736 50.3 20.736 50.2533C20.736 50.0681 20.736 49.8828 20.736 49.6968C20.7358 47.958 20.7359 46.2233 20.7362 44.4968C20.7364 42.9611 20.7363 41.4215 20.7361 39.8655C20.7359 38.1349 20.7358 36.4043 20.736 34.6655C20.736 34.4803 20.736 34.2946 20.736 34.1089C20.736 34.0634 20.736 34.0175 20.736 33.9708C20.7361 33.2883 20.736 32.6018 20.7359 31.9193C20.7358 31.1393 20.7358 30.3593 20.736 29.5793C20.7361 29.1824 20.7362 28.7871 20.7361 28.3889C20.7356 27.0077 20.7355 25.6224 20.7525 24.2452C20.7538 24.1355 20.7549 24.0254 20.7558 23.9157C20.7571 23.7662 20.7592 23.6167 20.7615 23.4689C20.7617 23.4262 20.7619 23.3835 20.7622 23.3397C20.7757 22.6409 21.0124 21.9706 21.5138 21.4709H21.595C21.6084 21.4307 21.6218 21.3905 21.6356 21.349C22.2409 20.8047 23.0006 20.7681 23.7684 20.7681L23.7656 20.7594Z" fill="#E5F1E5"/>
<path id="Vector_3" d="M45.9063 40.5843C45.9554 40.5841 45.9554 40.5841 46.0054 40.5839C46.1147 40.5836 46.2239 40.5835 46.3332 40.5834C46.4116 40.5832 46.49 40.583 46.5688 40.5828C46.7817 40.5823 46.9954 40.582 47.2067 40.5819C47.3399 40.5817 47.4732 40.5816 47.6064 40.5814C48.0248 40.5808 48.4392 40.5804 48.8577 40.5803C49.337 40.5801 49.8205 40.5794 50.2998 40.5782C50.672 40.5773 51.0433 40.5769 51.417 40.5769C51.6393 40.5768 51.8598 40.5766 52.0833 40.5759C52.2925 40.5752 52.5017 40.5751 52.7089 40.5755C52.7853 40.5755 52.8617 40.5753 52.938 40.5749C53.3439 40.5729 53.714 40.5837 54.104 40.7118C54.1487 40.7257 54.1933 40.7396 54.2397 40.7541C54.9425 41.0315 55.3934 41.5544 55.7306 42.2166C55.8813 42.5728 55.8992 42.9153 55.9 43.3013C55.9003 43.3488 55.9005 43.3963 55.9008 43.4451C55.9014 43.5483 55.9019 43.651 55.9023 43.7542C55.903 43.9171 55.9039 44.0804 55.9049 44.2417C55.9078 44.7048 55.9102 45.168 55.9123 45.6311C55.9135 45.8874 55.9149 46.143 55.9167 46.3989C55.9176 46.5342 55.9183 46.6699 55.9187 46.8052C55.9192 46.9563 55.9202 47.1074 55.9213 47.2602C55.9213 47.3272 55.9213 47.3272 55.9213 47.395C55.9214 47.7192 55.9214 47.7192 56.0148 48.0247C56.2459 48.2148 56.4657 48.2104 56.7582 48.2079C56.8261 48.2084 56.8261 48.2084 56.8951 48.2088C57.0442 48.2096 57.1933 48.2093 57.342 48.209C57.446 48.2094 57.55 48.2098 57.6544 48.2104C57.9006 48.2116 58.146 48.2121 58.3938 48.2123C58.861 48.2125 59.3241 48.214 59.7913 48.2161C59.9436 48.2166 60.096 48.2165 60.2503 48.2164C60.3446 48.2167 60.4388 48.217 60.5335 48.2173C60.5965 48.2171 60.5965 48.2171 60.6603 48.2168C61.0706 48.219 61.4646 48.2586 61.8303 48.4512C61.8576 48.4654 61.8851 48.4796 61.9131 48.4943C62.5347 48.8306 62.8759 49.3555 63.0872 50.0136C63.2456 50.623 63.1158 51.3096 62.804 51.8458C62.5672 52.1798 62.2678 52.4796 61.955 52.7396C61.8392 52.8379 61.7283 52.9411 61.617 53.0443C61.5833 53.0755 61.5833 53.0755 61.5487 53.1072C61.5024 53.1503 61.4561 53.193 61.4098 53.236C61.1108 53.5131 60.8126 53.7885 60.5079 54.0607C60.3938 54.1635 60.28 54.2675 60.1671 54.3711C60.1469 54.3895 60.1268 54.4079 60.1061 54.4267C59.9977 54.5263 59.8892 54.6262 59.7819 54.7274C59.7597 54.748 59.7377 54.7688 59.7145 54.7899C59.6718 54.8299 59.6292 54.87 59.5865 54.9102C59.4399 55.0463 59.4399 55.0463 59.3497 55.0463V55.1275C59.3001 55.1775 59.3001 55.1775 59.2254 55.2392C59.0519 55.3863 58.8858 55.5403 58.7216 55.6942C58.5425 55.8624 58.3621 56.0286 58.1773 56.1899C57.9932 56.352 57.8145 56.5201 57.6329 56.6855C56.7676 57.4858 56.7676 57.4858 56.3491 57.8636C56.1476 58.0448 55.9486 58.2284 55.7479 58.412C55.4769 58.6623 55.2076 58.9117 54.9313 59.1595C54.7554 59.3172 54.5832 59.478 54.4113 59.6389C54.2338 59.8055 54.055 59.97 53.871 60.1305C53.687 60.2922 53.5086 60.4604 53.3307 60.6261C53.0329 60.9024 52.7335 61.1786 52.4329 61.4508C52.3098 61.5621 52.1879 61.6742 52.066 61.7872C52.0437 61.8078 52.0213 61.8286 51.9982 61.8497C51.8922 61.9476 51.7861 62.0459 51.6805 62.1447C51.0143 62.7622 50.283 63.1319 49.3608 63.1319C48.2436 63.0486 47.5611 62.3803 46.7933 61.6531C46.5821 61.4532 46.3668 61.2574 46.1514 61.06C46.11 61.022 46.0686 60.984 46.0275 60.9462C45.8394 60.7736 45.6509 60.6009 45.4628 60.4303C45.163 60.161 44.8657 59.8859 44.5691 59.6137C44.3603 59.4208 44.1507 59.229 43.9394 59.0409C43.6303 58.7622 43.326 58.4803 43.0172 58.1959C42.7235 57.9245 42.4282 57.6515 42.1316 57.3875C41.9301 57.2063 41.731 57.0227 41.5303 56.839C41.2578 56.5872 40.986 56.3353 40.7097 56.0875C40.5078 55.9063 40.3088 55.7223 40.1085 55.539C39.922 55.3668 39.7351 55.1954 39.5478 55.0231C39.4861 54.9666 39.4243 54.9098 39.3626 54.8533C39.1757 54.6815 38.988 54.51 38.7979 54.3414C38.5964 54.1602 38.3973 53.9766 38.1967 53.793C37.9241 53.5411 37.6523 53.2892 37.376 53.0414C37.129 52.8196 36.8845 52.5945 36.6407 52.367C36.6086 52.3372 36.5765 52.3073 36.5436 52.2765C36.1211 51.8726 35.8611 51.3502 35.8205 50.7652C35.8073 50.0665 35.9863 49.4368 36.4746 48.9127C37.0433 48.3927 37.6689 48.218 38.4286 48.218C38.477 48.2179 38.5253 48.2179 38.5753 48.2178C38.6801 48.2176 38.7849 48.2175 38.8897 48.2175C39.0555 48.2175 39.2212 48.217 39.3853 48.2163C39.4134 48.2162 39.4414 48.2161 39.4703 48.216C39.5275 48.2158 39.5848 48.2156 39.6421 48.2154C40.0276 48.2139 40.414 48.2128 40.7999 48.213C41.0607 48.213 41.3199 48.2124 41.5799 48.2109C41.7176 48.2101 41.8553 48.2098 41.9943 48.2103C42.1478 48.2107 42.3014 48.2098 42.4533 48.2086C42.5216 48.2093 42.5216 48.2093 42.5911 48.2099C42.8539 48.2084 42.8539 48.2084 43.0826 48.0921C43.2256 47.9259 43.2707 47.7862 43.2711 47.568C43.2715 47.5067 43.2715 47.5067 43.272 47.4441C43.2719 47.3998 43.2718 47.3552 43.2717 47.3097C43.2719 47.2625 43.2721 47.2154 43.2723 47.1667C43.2727 47.0643 43.2729 46.9619 43.273 46.8595C43.2732 46.6974 43.2738 46.5349 43.2747 46.372C43.2767 45.9686 43.2779 45.5636 43.2788 45.1614C43.2795 44.8482 43.2804 44.5358 43.2822 44.223C43.2829 44.0885 43.2833 43.9536 43.2833 43.8192C43.2833 43.6684 43.2841 43.5177 43.285 43.3682C43.2848 43.3243 43.2846 43.2809 43.2844 43.2358C43.2913 42.5005 43.5615 41.8505 44.0685 41.3183C44.5844 40.847 45.206 40.5789 45.9088 40.583L45.9063 40.5843Z" fill="#E5F1E5"/>
<path id="Vector_4" d="M44.4437 27.7877C44.4888 27.7876 44.5339 27.7874 44.5802 27.7873C44.7297 27.7869 44.8792 27.7873 45.0271 27.7878C45.1347 27.7877 45.2428 27.7876 45.3504 27.7874C45.6121 27.787 45.8745 27.7873 46.1345 27.7877C46.4396 27.7883 46.7439 27.7882 47.0486 27.7881C47.5929 27.788 48.1373 27.7885 48.6817 27.7893C49.2098 27.7901 49.7379 27.7903 50.2661 27.7901C50.8429 27.7899 51.4157 27.7899 51.9926 27.7903C52.054 27.7904 52.1153 27.7904 52.1771 27.7905C52.2226 27.7905 52.2226 27.7905 52.2685 27.7906C52.4809 27.7907 52.695 27.7907 52.9063 27.7906C53.1651 27.7905 53.4222 27.7908 53.6822 27.7913C53.8143 27.7916 53.9463 27.7918 54.0779 27.7916C54.2213 27.7915 54.3647 27.7919 54.5085 27.7924C54.5496 27.7922 54.591 27.792 54.6333 27.7919C55.1939 27.7953 55.6489 27.9069 56.0673 28.2997C56.4549 28.7141 56.5833 29.1406 56.5711 29.6931C56.5371 30.1644 56.3029 30.6153 55.9536 30.9322C55.4254 31.3011 54.9136 31.3466 54.2879 31.3425C54.2445 31.3426 54.2014 31.3427 54.1567 31.3428C54.0125 31.343 53.8683 31.343 53.7261 31.343C53.6225 31.3431 53.5185 31.3432 53.4149 31.3434C53.163 31.3437 52.9112 31.3438 52.6593 31.3439C52.4545 31.3439 52.249 31.344 52.0458 31.3441C51.4649 31.3445 50.884 31.3446 50.299 31.3446C50.2676 31.3446 50.2364 31.3446 50.2039 31.3446C50.1725 31.3446 50.1413 31.3446 50.1088 31.3446C49.601 31.3446 49.0932 31.345 48.5854 31.3456C48.0613 31.3461 47.5413 31.3464 47.0173 31.3464C46.7244 31.3464 46.4323 31.3465 46.1398 31.3469C45.8643 31.3473 45.5873 31.3473 45.311 31.347C45.2103 31.347 45.1091 31.3471 45.0084 31.3473C44.8702 31.3476 44.7321 31.3474 44.594 31.3471C44.5347 31.3474 44.5347 31.3474 44.4742 31.3478C44.1016 31.3459 43.7185 31.3175 43.3854 31.139C43.3469 31.119 43.3086 31.0989 43.2688 31.0784C42.8662 30.8343 42.6026 30.4447 42.4685 29.9978C42.3612 29.5428 42.4347 29.0715 42.6578 28.6572C42.9564 28.2062 43.32 27.9503 43.84 27.8284C44.0423 27.7904 44.2385 27.7874 44.4453 27.7887L44.4437 27.7877Z" fill="#E5F1E5"/>
<path id="Vector_5" d="M44.4435 33.6783C44.5101 33.6781 44.5101 33.6781 44.578 33.6779C44.7271 33.6776 44.8758 33.6775 45.0249 33.6774C45.1317 33.6772 45.2386 33.677 45.3454 33.6768C45.6355 33.6763 45.9263 33.676 46.2148 33.6759C46.396 33.6757 46.5776 33.6756 46.7591 33.6754C47.2629 33.6749 47.7666 33.6745 48.2663 33.6743C48.2985 33.6743 48.3305 33.6743 48.3638 33.6743C48.3961 33.6743 48.4284 33.6743 48.4613 33.6743C48.5267 33.6743 48.5921 33.6742 48.6571 33.6742C48.6895 33.6742 48.7217 33.6742 48.7555 33.6742C49.2795 33.674 49.8036 33.6733 50.3276 33.6724C50.868 33.6714 51.4042 33.6709 51.9445 33.6709C52.2468 33.6708 52.5498 33.6706 52.8505 33.6699C53.108 33.6692 53.3664 33.669 53.6223 33.6694C53.7536 33.6695 53.8848 33.6694 54.016 33.6689C55.4785 33.6636 55.4785 33.6636 56.0351 34.1767C56.4104 34.5728 56.5754 35.0258 56.5632 35.5661C56.5213 36.0658 56.3097 36.468 55.9457 36.8092C55.446 37.2195 54.8488 37.2277 54.2313 37.2277C54.1671 37.2278 54.1671 37.2278 54.1013 37.2278C53.9591 37.228 53.8169 37.2279 53.6747 37.2278C53.572 37.2278 53.4696 37.2279 53.3668 37.228C53.1178 37.2281 52.8671 37.2281 52.6193 37.228C52.417 37.2279 52.2147 37.2279 52.014 37.2279C51.9705 37.2279 51.9705 37.2279 51.9262 37.228C51.8673 37.228 51.8088 37.228 51.7499 37.228C51.2015 37.2281 50.649 37.228 50.1006 37.2278C49.6293 37.2276 49.1581 37.2276 48.6868 37.2278C48.1384 37.228 47.5899 37.2281 47.0456 37.228C46.9871 37.228 46.9286 37.2279 46.8701 37.2279C46.827 37.2279 46.827 37.2279 46.7827 37.2279C46.5808 37.2279 46.3789 37.2279 46.1774 37.228C45.9052 37.2282 45.633 37.2281 45.3608 37.2278C45.2613 37.2278 45.1614 37.2278 45.0618 37.2279C44.9253 37.228 44.7888 37.2279 44.6515 37.2277C44.6124 37.2277 44.5731 37.2278 44.5329 37.2279C43.9113 37.2262 43.3629 37.1503 42.9038 36.6957C42.5541 36.2854 42.3757 35.8142 42.4163 35.2739C42.4992 34.7742 42.7133 34.3476 43.111 34.0267C43.5254 33.735 43.9479 33.6846 44.4395 33.685L44.4435 33.6783Z" fill="#E5F1E5"/>
</g>
</svg>
