<svg width="65" height="65" viewBox="0 0 65 65" fill="none" xmlns="http://www.w3.org/2000/svg">
<g id="solucoes-personalizadas 1" clip-path="url(#clip0_1410_12)">
<path id="Vector" d="M22.9126 29.9814C22.9694 29.9815 22.9694 29.9815 23.0279 29.9815C23.5682 29.9825 24.1045 29.9904 24.6407 30.0705C24.6778 30.0757 24.7147 30.081 24.7529 30.0864C27.3163 30.4552 29.506 31.5082 31.5373 33.0926C31.716 33.232 31.8952 33.3705 32.0735 33.507C32.13 33.5501 32.186 33.5935 32.2421 33.6374C32.8637 34.1208 33.3674 34.5068 34.1799 34.5068C34.2204 34.507 34.2607 34.5071 34.3026 34.5073C34.4379 34.5078 34.5736 34.5081 34.7088 34.5083C34.8059 34.5086 34.903 34.509 35.0005 34.5093C35.2374 34.5102 35.4758 34.5108 35.7115 34.5114C35.9877 34.5121 36.264 34.513 36.5402 34.514C37.0358 34.5158 37.5274 34.5173 38.023 34.5188C38.0526 34.5189 38.0819 34.519 38.1124 34.5191C38.292 34.5196 38.4715 34.5201 38.6527 34.5207C38.9208 34.5215 39.189 34.5223 39.4571 34.5231C39.501 34.5232 39.501 34.5232 39.5461 34.5233C40.0376 34.5248 40.5292 34.5264 41.0208 34.5282C41.2962 34.5291 41.5732 34.53 41.8454 34.5307C42.105 34.5313 42.3654 34.5321 42.6254 34.5331C42.7201 34.5334 42.8148 34.5336 42.9094 34.5338C44.4044 34.5367 44.4044 34.5367 45.0057 34.6325C45.0556 34.6405 45.0556 34.6405 45.1068 34.6485C46.2931 34.8492 47.3249 35.4814 48.1659 36.3304C48.2025 36.3661 48.239 36.4019 48.2768 36.4385C48.8212 36.9991 49.2193 37.7466 49.4671 38.4819C49.5979 38.4242 49.6848 38.3556 49.7844 38.2536C49.8225 38.2151 49.8225 38.2151 49.8612 38.176C49.9387 38.0927 50.0135 38.0086 50.0878 37.9229C50.2609 37.7239 50.4425 37.5329 50.6241 37.342C50.7691 37.1884 50.9085 37.0328 51.0425 36.8667C51.0592 36.8499 51.076 36.8331 51.0933 36.8159H51.1746C51.1853 36.7918 51.1961 36.7675 51.2071 36.7428C51.2575 36.6501 51.3087 36.5933 51.3854 36.5214C51.489 36.421 51.5861 36.3186 51.68 36.2089C51.8035 36.0655 51.9347 35.9331 52.0696 35.7986C52.1732 35.6934 52.2682 35.5825 52.3645 35.4708C52.4547 35.3692 52.5506 35.2754 52.6473 35.1803C52.7216 35.1044 52.7911 35.0259 52.8605 34.9455C52.9723 34.8155 53.0901 34.6949 53.2124 34.575C53.2847 34.5015 53.3525 34.4255 53.4195 34.3475C53.5662 34.1789 53.7177 34.016 53.8705 33.8559C54.0419 33.6739 54.2121 33.4919 54.3783 33.3034C54.5233 33.1409 54.6757 32.9874 54.8292 32.8363C54.8954 32.7688 54.9556 32.7014 55.0141 32.627C55.1173 32.5052 55.2269 32.406 55.3484 32.3033C55.4094 32.2509 55.4687 32.1964 55.5264 32.1408C56.607 31.1089 58.0857 30.7189 59.5442 30.7473C59.9325 30.7622 60.3039 30.8274 60.6776 30.924C60.7058 30.931 60.7341 30.938 60.7629 30.9451C61.486 31.1287 62.1645 31.4773 62.7495 31.9404C62.7895 31.9714 62.8295 32.0026 62.8705 32.0343C63.813 32.7858 64.4834 33.8177 64.7799 34.9877C64.7906 35.0292 64.7906 35.0292 64.8015 35.0714C65.1602 36.4973 64.9303 37.9639 64.2246 39.2558C63.8939 39.8042 63.5096 40.3202 63.1115 40.8239C62.9734 40.9994 62.8397 41.1765 62.7117 41.3602C62.5167 41.638 62.3108 41.9086 62.1024 42.1767C61.9195 42.4156 61.74 42.6561 61.5621 42.8998C61.352 43.1871 61.1355 43.4686 60.9161 43.7489C60.7552 43.9545 60.6017 44.1633 60.453 44.3786C60.3287 44.5549 60.1987 44.7259 60.0662 44.8945C59.9188 45.0847 59.7762 45.2784 59.6356 45.4714C59.4305 45.7513 59.2212 46.028 59.01 46.3042C58.7776 46.6081 58.5469 46.9136 58.3234 47.2223C58.1479 47.4616 57.9684 47.6977 57.7872 47.9333C57.6259 48.1433 57.4683 48.3558 57.3119 48.5711C57.0823 48.8839 56.8487 49.1927 56.6131 49.5014C56.4055 49.7732 56.2028 50.0498 55.9997 50.322C55.8351 50.5463 55.667 50.7689 55.4959 50.9883C55.3801 51.1382 55.2668 51.2901 55.1535 51.4433C54.7647 51.9633 54.3613 52.463 53.9306 52.9505C53.897 52.9887 53.8632 53.0268 53.8287 53.0662C53.5553 53.3738 53.2721 53.6675 52.9593 53.9356C52.9024 53.9848 52.8468 54.0356 52.7923 54.0872C52.4535 54.4057 52.0733 54.6722 51.6995 54.9443C51.6672 54.9677 51.6349 54.9911 51.6016 55.015C49.1641 56.7538 46.2391 57.3916 43.2735 57.3875C43.1792 57.3876 43.085 57.3876 42.9907 57.3876C42.7332 57.3877 42.4748 57.3876 42.2189 57.3874C41.9694 57.3872 41.7192 57.3872 41.4714 57.3873C40.9595 57.3873 40.4517 57.3872 39.9398 57.3869C39.4361 57.3867 38.9323 57.3865 38.4245 57.3865C38.393 57.3865 38.3615 57.3865 38.3294 57.3865C38.1698 57.3865 38.0101 57.3865 37.85 57.3865C36.7207 57.3864 35.5913 57.3861 34.4619 57.3857C33.3651 57.3853 32.2682 57.385 31.1713 57.3849C31.1375 57.3849 31.1035 57.3849 31.0689 57.3849C30.7289 57.3848 30.3905 57.3848 30.0492 57.3847C29.3586 57.3846 28.6639 57.3845 27.9733 57.3844C27.9415 57.3844 27.9095 57.3844 27.877 57.3843C25.7523 57.384 23.6114 57.3833 21.4989 57.3826C21.4991 57.4241 21.4993 57.4659 21.4995 57.5086C21.4997 57.5638 21.4999 57.6191 21.5 57.6743C21.5002 57.7017 21.5003 57.7292 21.5005 57.7572C21.5009 57.9697 21.4869 58.1756 21.4534 58.3828C21.4453 58.4336 21.4453 58.4336 21.4371 58.4852C21.2555 59.5536 20.8318 60.5652 20.0802 61.3574C20.0055 61.4366 19.938 61.5187 19.8698 61.6036C18.9232 62.6842 17.3145 63.2367 16.0632 63.8664C15.908 63.9444 15.7533 64.0224 15.6001 64.1004C15.41 64.1963 15.2199 64.2921 15.0314 64.3872C14.9599 64.4231 14.8884 64.4591 14.8173 64.4953C13.5254 65.1493 13.5254 65.1493 12.8226 64.9543C12.0995 64.709 11.7095 64.2353 11.3763 63.565C11.3569 63.5263 11.3374 63.4878 11.3174 63.4476C11.2528 63.3184 11.1882 63.1892 11.124 63.06C11.0769 62.9661 11.0302 62.8727 10.9831 62.7789C10.8811 62.5753 10.7791 62.3726 10.6776 62.1695C10.5265 61.8668 10.3749 61.5642 10.2226 61.2595C9.95202 60.7192 9.68227 60.1789 9.41008 59.6386C9.17364 59.1632 8.93883 58.692 8.69914 58.2167C8.67558 58.1696 8.67558 58.1696 8.65161 58.1216C8.58783 57.9941 8.52405 57.8665 8.46027 57.7389C7.86308 56.5446 7.26589 55.3461 6.66464 54.1517C6.13245 53.0914 5.60433 52.0271 5.07214 50.9667C4.47495 49.7724 3.87777 48.578 3.28058 47.3836C3.2168 47.2561 3.15342 47.1289 3.08964 47.0013C3.07396 46.97 3.05828 46.9388 3.04211 46.9063C2.80567 46.435 2.57086 45.9597 2.33117 45.4885C2.06183 44.9522 1.79492 44.4119 1.52273 43.8756C1.37242 43.5746 1.22211 43.2744 1.0718 42.9738C0.959266 42.7487 0.846733 42.5228 0.734608 42.2994C0.689514 42.2088 0.644015 42.1178 0.598515 42.0272C-0.201797 40.4347 -0.201798 40.4347 0.0419524 39.6669C0.353546 38.891 0.960078 38.5497 1.68727 38.2166C1.88105 38.1268 2.07036 38.0317 2.26008 37.9302C2.73133 37.6751 3.2107 37.4427 3.6982 37.2152C3.9062 37.1173 4.11258 37.0169 4.31977 36.9137C4.34621 36.9005 4.37258 36.8873 4.3998 36.8736C4.53142 36.8074 4.66264 36.7408 4.79345 36.6725C6.3047 35.8925 7.86064 35.6203 9.50595 36.1281C9.76189 36.211 10.0056 36.3114 10.2494 36.4255C10.3664 36.4804 10.3664 36.4804 10.5236 36.4702C10.6114 36.3991 10.6898 36.3284 10.7698 36.2492C10.8173 36.2037 10.8645 36.1586 10.912 36.1135C10.9355 36.0911 10.9591 36.0688 10.9835 36.0457C11.0769 35.9591 11.1752 35.8791 11.2752 35.7999C11.4945 35.6236 11.6977 35.4343 11.9049 35.2433C12.0921 35.069 12.2855 34.9021 12.4817 34.7355C12.7596 34.4987 13.0342 34.2561 13.3024 34.0083C13.4445 33.8775 13.5892 33.7508 13.737 33.6244C13.7793 33.5878 13.8211 33.5513 13.8634 33.5143C16.4106 31.3043 19.5103 29.9962 22.8821 30.0003L22.9126 29.9814ZM20.6822 33.9993C20.6189 34.0148 20.6189 34.0148 20.5543 34.0306C19.1446 34.3897 17.934 35.0869 16.8005 35.9847C16.7278 36.042 16.6539 36.0984 16.5779 36.1521C16.5566 36.1695 16.5352 36.187 16.5133 36.2049V36.2861C16.4909 36.2956 16.4686 36.3051 16.4455 36.3148C16.326 36.3811 16.2375 36.4647 16.1375 36.5578C16.0974 36.595 16.0571 36.6321 16.0169 36.6691C15.9796 36.7035 15.9421 36.7382 15.9039 36.7735C15.7512 36.91 15.5956 37.0432 15.4408 37.1769C15.1962 37.3877 14.9533 37.5994 14.7177 37.8188C14.5706 37.9549 14.4219 38.0845 14.2667 38.2096C14.0616 38.3745 13.8702 38.5521 13.6777 38.7337C13.4811 38.9181 13.2767 39.0883 13.0602 39.2537C13.085 39.4649 13.1833 39.638 13.2779 39.8265C13.2965 39.8636 13.315 39.9008 13.334 39.939C13.3962 40.0637 13.4591 40.1884 13.5217 40.3127C13.5664 40.4021 13.6111 40.4915 13.6557 40.5809C13.752 40.7734 13.8487 40.966 13.9454 41.1577C14.0856 41.4368 14.2253 41.7143 14.3638 41.9946C14.5909 42.4496 14.8188 42.9046 15.0463 43.3556C15.2665 43.7943 15.4851 44.2331 15.7085 44.6718C15.7221 44.6988 15.7355 44.7258 15.7496 44.7535C15.8974 45.0488 16.0453 45.3425 16.1924 45.6391C16.2054 45.6651 16.2185 45.6911 16.2319 45.7179C16.2843 45.8223 16.3363 45.9263 16.3887 46.0307C16.5411 46.3346 16.693 46.6401 16.8437 46.9407C16.951 47.1544 17.0582 47.3673 17.1651 47.5826C17.2085 47.6695 17.2524 47.7569 17.2963 47.8438C17.5193 48.2866 17.7391 48.7335 17.9503 49.1844C18.0344 49.3628 18.125 49.5367 18.2193 49.7085C18.3481 49.9494 18.4707 50.1919 18.5849 50.4397C18.695 50.6782 18.8116 50.911 18.9351 51.1426C19.1098 51.47 19.2776 51.8007 19.4429 52.1338C19.4551 52.1583 19.4674 52.183 19.48 52.2082C19.5393 52.3276 19.5986 52.4466 19.6579 52.5661C19.7424 52.7363 19.8273 52.9061 19.9126 53.0739C19.998 53.2449 20.0837 53.4159 20.169 53.5857C22.444 53.5871 24.719 53.5884 26.994 53.5892C27.0278 53.5892 27.0614 53.5892 27.0964 53.5892C27.8317 53.5895 28.5629 53.5897 29.2982 53.5899C29.6582 53.59 30.0173 53.5901 30.3789 53.5902C30.4325 53.5902 30.4325 53.5902 30.4873 53.5902C31.6452 53.5906 32.803 53.5912 33.9648 53.5919C35.1552 53.5927 36.3495 53.5932 37.5398 53.5934C37.7084 53.5934 37.877 53.5934 38.0476 53.5935C38.0808 53.5935 38.1139 53.5935 38.1484 53.5935C38.6806 53.5936 39.2128 53.5939 39.745 53.5944C40.2812 53.5949 40.8175 53.5951 41.3537 53.595C41.6714 53.5949 41.9875 53.5951 42.3084 53.5956C42.5469 53.5959 42.7837 53.5958 43.0234 53.5956C43.1189 53.5955 43.2147 53.5956 43.3102 53.5959C43.818 53.5972 44.3177 53.5846 44.8255 53.55C44.8714 53.5469 44.9177 53.5438 44.9653 53.5406C46.9843 53.3882 49.0278 52.4559 50.4903 51.0543C50.5898 50.9592 50.6918 50.8699 50.7966 50.7809C50.968 50.6302 51.1074 50.4604 51.2475 50.2812C51.3202 50.1902 51.395 50.1029 51.473 50.0163C51.7976 49.6483 52.0824 49.2445 52.3708 48.8504C52.5642 48.5872 52.7641 48.3304 52.9639 48.0704C53.1142 47.8782 53.2605 47.6837 53.4027 47.4854C53.5047 47.3444 53.6091 47.2055 53.7139 47.067C53.8959 46.8252 54.0758 46.5835 54.2542 46.3398C54.4565 46.0643 54.6604 45.7913 54.8717 45.5192C55.035 45.3067 55.1942 45.0926 55.3511 44.8773C55.5656 44.584 55.7857 44.2963 56.0092 44.0079C56.1595 43.8157 56.3057 43.6212 56.4479 43.4229C56.5499 43.2819 56.6543 43.143 56.7591 43.0045C56.9411 42.7627 57.1211 42.521 57.2994 42.2773C57.5017 42.0018 57.7057 41.7288 57.9169 41.4567C58.0802 41.2442 58.2395 41.0301 58.3963 40.8148C58.6108 40.5215 58.831 40.2338 59.0544 39.9454C59.2047 39.7532 59.3506 39.5587 59.4932 39.3604C59.5972 39.217 59.7032 39.0752 59.8097 38.9338C59.8303 38.9063 59.8511 38.879 59.8722 38.8506C59.9778 38.7096 60.0839 38.569 60.1903 38.4281C61.0028 37.3556 61.0028 37.3556 61.1612 36.0352C61.0528 35.5599 60.7891 35.1374 60.3894 34.8571C59.8572 34.5411 59.3006 34.4265 58.6912 34.5675C58.1062 34.7787 57.6959 35.2459 57.2978 35.705C57.1739 35.8455 57.0447 35.9812 56.9159 36.1153C56.8582 36.1762 56.801 36.2372 56.7433 36.2981C56.7147 36.3284 56.686 36.3586 56.6567 36.3899C56.532 36.5223 56.4077 36.6552 56.2838 36.7884C56.2607 36.8132 56.2375 36.838 56.2139 36.8636C56.1676 36.9136 56.1209 36.9631 56.0746 37.0131C55.9803 37.1142 55.8861 37.2154 55.7914 37.3166C55.7443 37.3669 55.6972 37.4173 55.6505 37.4681C55.5262 37.6017 55.401 37.7346 55.2751 37.867C55.2489 37.8948 55.2227 37.9227 55.1955 37.9511C55.1451 38.0043 55.0943 38.0576 55.0439 38.1108C55.0213 38.1347 54.9988 38.1587 54.9753 38.1835C54.9553 38.2045 54.9353 38.2253 54.9147 38.2473C54.8579 38.3119 54.8579 38.3119 54.8262 38.4293C54.7657 38.4494 54.7657 38.4494 54.7043 38.4699C54.6373 38.5357 54.6373 38.5357 54.5723 38.617C54.478 38.7283 54.3822 38.8347 54.2777 38.9371C54.1811 39.0317 54.0905 39.1288 54.0023 39.2316C53.8601 39.3953 53.7131 39.5542 53.5636 39.711C53.5103 39.7675 53.4571 39.8239 53.4039 39.8808C53.377 39.9093 53.3503 39.9377 53.3227 39.9673C53.1671 40.1327 53.0127 40.2992 52.8595 40.467C52.8375 40.4907 52.8157 40.5142 52.7929 40.5385C52.7725 40.5605 52.7519 40.5824 52.7311 40.6052C52.6812 40.6576 52.6292 40.7079 52.5768 40.7583C52.5024 40.8217 52.5024 40.8217 52.5114 40.9086H52.4301C52.3761 40.9606 52.3761 40.9606 52.3184 41.0329C52.2164 41.1536 52.112 41.2706 52.0036 41.3852C51.9782 41.412 51.9528 41.4388 51.9268 41.4664C51.8756 41.5204 51.824 41.5745 51.7724 41.6285C51.7364 41.6665 51.7365 41.6665 51.6997 41.7053C51.6781 41.7279 51.6566 41.7504 51.6343 41.7739C51.5742 41.8471 51.5352 41.9198 51.4962 42.0055H51.4149C51.3499 42.0697 51.3499 42.0697 51.2829 42.1526C51.1894 42.2631 51.0952 42.3675 50.9908 42.4674C50.877 42.5588 50.877 42.5588 50.8868 42.6551C50.8466 42.6685 50.8063 42.6819 50.7649 42.6957C50.7076 42.7506 50.7076 42.7506 50.6507 42.8225C50.4846 43.0183 50.3099 43.2047 50.1348 43.3912C50.0162 43.5176 49.898 43.6447 49.7814 43.7731C49.5396 44.0396 49.2939 44.289 49.0176 44.5247C48.9894 44.5502 48.9612 44.5758 48.9319 44.6022C48.4647 45.0052 47.8553 45.3416 47.2703 45.5407C47.22 45.558 47.1696 45.5753 47.1176 45.5931C46.8032 45.6959 46.4879 45.7666 46.1588 45.8149C46.1276 45.8196 46.0963 45.8243 46.0642 45.8291C45.337 45.9262 44.5976 45.9124 43.8664 45.9116C43.764 45.9116 43.6612 45.9117 43.5588 45.9118C43.3114 45.912 43.0632 45.912 42.8154 45.9118C42.6143 45.9117 42.4128 45.9117 42.2101 45.9118C42.1812 45.9118 42.1524 45.9118 42.1227 45.9118C42.0642 45.9118 42.0057 45.9118 41.9468 45.9118C41.3984 45.9119 40.854 45.9118 40.3056 45.9116C39.8384 45.9114 39.3712 45.9114 38.9 45.9116C38.3556 45.9118 37.8071 45.9119 37.2628 45.9118C37.2047 45.9118 37.1462 45.9118 37.0881 45.9118C37.0594 45.9118 37.0308 45.9118 37.0011 45.9118C36.8001 45.9117 36.5994 45.9118 36.3999 45.9119C36.1293 45.912 35.8596 45.9119 35.5874 45.9117C35.4883 45.9116 35.3891 45.9116 35.2904 45.9117C33.5761 45.9131 33.5761 45.9131 32.9626 45.3592C32.625 45.0066 32.4345 44.5223 32.4386 44.0348C32.47 43.4864 32.6527 43.0274 33.052 42.6414C33.4664 42.2953 33.9092 42.2027 34.4332 42.2027C34.4743 42.2025 34.5153 42.2024 34.558 42.2023C34.6957 42.202 34.8334 42.2019 34.9723 42.2019C35.0711 42.2017 35.1698 42.2015 35.2685 42.2012C35.4814 42.2008 35.6951 42.2004 35.9063 42.2002C36.2431 42.1998 36.5807 42.1989 36.9179 42.198C37.0332 42.1977 37.1486 42.1974 37.264 42.1971C37.2928 42.197 37.3217 42.197 37.3513 42.1969C37.6792 42.196 38.0054 42.1953 38.3345 42.1945C38.3644 42.1945 38.3946 42.1944 38.4255 42.1943C38.9089 42.1933 39.3964 42.1925 39.8798 42.1918C40.3795 42.1911 40.8752 42.19 41.3748 42.1884C41.682 42.1874 41.9883 42.1869 42.297 42.1868C42.5331 42.1867 42.7683 42.186 43.0039 42.185C43.1002 42.1847 43.1965 42.1846 43.2927 42.1848C44.1012 42.1857 44.8162 42.1555 45.4377 41.5713C45.8562 41.1001 45.9699 40.5801 45.9334 39.9707C45.8899 39.471 45.5933 39.0485 45.2346 38.7154C44.7796 38.3689 44.2677 38.301 43.7112 38.3051C43.6478 38.3049 43.6478 38.3049 43.5828 38.3047C43.441 38.3042 43.2997 38.3041 43.1562 38.3039C43.0547 38.3037 42.9531 38.3034 42.8512 38.3031C42.6322 38.3025 42.4124 38.302 42.193 38.3016C41.8757 38.3011 41.5593 38.3002 41.2424 38.2993C40.7265 38.2977 40.2105 38.2963 39.6946 38.295C39.6483 38.2949 39.6483 38.2949 39.6012 38.2948C39.1624 38.2937 38.7277 38.2927 38.289 38.2918C38.2583 38.2917 38.2276 38.2916 38.1959 38.2916C38.1653 38.2915 38.1346 38.2915 38.1029 38.2914C37.591 38.2903 37.0751 38.2889 36.5632 38.2872C36.2472 38.2862 35.9295 38.2855 35.6166 38.2851C35.3737 38.2847 35.1292 38.284 34.8895 38.2831C34.7903 38.2828 34.6916 38.2826 34.5925 38.2826C33.1706 38.2821 33.1706 38.2821 32.5328 38.1002C32.4853 38.0871 32.4853 38.0871 32.4369 38.0737C31.4051 37.7763 30.5682 37.1434 29.7476 36.4731C29.5383 36.3016 29.3251 36.1355 29.1097 35.9734C29.0256 35.9092 28.9424 35.8442 28.8599 35.7784C27.3324 34.5637 25.3621 33.7675 23.3755 33.7553C23.3393 33.755 23.3032 33.7548 23.2658 33.7546C23.1895 33.7542 23.1131 33.7539 23.0363 33.7538C22.9226 33.7534 22.8084 33.7521 22.6947 33.7508C22.004 33.7467 21.3296 33.8284 20.6593 33.9946L20.6822 33.9993ZM6.1385 40.2149C5.91709 40.3339 5.69162 40.446 5.46819 40.5561C5.40847 40.5853 5.34875 40.6146 5.28903 40.6439C5.19925 40.6878 5.10947 40.7316 5.01928 40.7747C4.93437 40.8152 4.85028 40.8564 4.76578 40.8978C4.73998 40.9099 4.71419 40.922 4.68778 40.9344C4.5525 40.9978 4.5525 40.9978 4.47369 41.1185C4.4565 41.2696 4.54315 41.3951 4.60978 41.5247C4.62607 41.5575 4.64232 41.5905 4.65894 41.6242C4.71419 41.7352 4.76984 41.8457 4.8259 41.9566C4.8658 42.0366 4.90553 42.1162 4.94534 42.1962C5.05544 42.4164 5.16594 42.635 5.27644 42.8584C5.38328 43.0709 5.48972 43.285 5.59575 43.4962C5.8135 43.9309 6.03044 44.3656 6.24981 44.8044C6.46594 45.235 6.68044 45.6656 6.89981 46.0962C6.91322 46.1231 6.92662 46.1499 6.94044 46.1775C7.00869 46.3136 7.07653 46.4497 7.14478 46.5837C7.62822 47.5466 8.11166 48.5134 8.59509 49.4762C9.06634 50.4147 9.53353 51.3491 10.0048 52.2875C10.0192 52.3164 10.0337 52.3452 10.0487 52.3748C10.1937 52.6649 10.3387 52.9558 10.4833 53.2442C10.7791 53.8333 11.0765 54.4264 11.369 55.0155C11.3826 55.0426 11.3961 55.0699 11.41 55.0979C12.32 56.9139 13.2259 58.7257 14.1359 60.5417C14.2968 60.5121 14.4244 60.4665 14.5706 60.3934C14.6165 60.3709 14.662 60.3483 14.7092 60.3252C14.7587 60.3004 14.8083 60.2756 14.8578 60.2508C14.9094 60.2252 14.9606 60.1996 15.0122 60.174C15.1203 60.1204 15.2279 60.0664 15.3356 60.0123C15.4725 59.9437 15.6094 59.8758 15.7459 59.808C15.8523 59.7552 15.9588 59.702 16.0652 59.6487C16.1156 59.6236 16.166 59.5988 16.2163 59.5736C16.911 59.2299 17.4392 58.8423 17.7032 58.0908C17.9145 57.2783 17.4928 56.5755 17.1426 55.8686C17.1199 55.8231 17.1199 55.8231 17.0967 55.7764C16.8737 55.3295 16.6498 54.8786 16.4264 54.4317C16.2996 54.1794 16.1733 53.9279 16.0473 53.6761C15.9767 53.5351 15.9064 53.3937 15.8357 53.2536C15.8068 53.1959 15.778 53.1378 15.7487 53.0801C15.7344 53.0514 15.72 53.0228 15.7053 52.9932C14.3972 50.3728 14.3972 50.3728 14.3565 50.2916C14.3169 50.2124 14.2773 50.1332 14.2375 50.0539C14.0246 49.6274 13.8109 49.2008 13.5997 48.7783C13.2978 48.173 12.9944 47.5677 12.6937 46.9583C12.6814 46.9335 12.669 46.9087 12.6563 46.8832C12.5287 46.6276 12.4012 46.3713 12.274 46.1153C12.2086 45.9845 12.1436 45.8541 12.0786 45.7233C12.0656 45.6973 12.0526 45.6713 12.0393 45.6445C11.8288 45.222 11.6168 44.7995 11.4096 44.377C11.1931 43.9423 10.9749 43.5076 10.7596 43.0729C10.6381 42.8296 10.5167 42.5854 10.3956 42.3417C10.2818 42.1126 10.1677 41.8826 10.0531 41.6551C10.0113 41.5714 9.96984 41.4877 9.928 41.4041C9.39581 40.3316 9.39581 40.3316 8.41269 39.6978C7.56362 39.4764 6.88112 39.8156 6.14581 40.2137L6.1385 40.2149Z" fill="#FFEDDA"/>
<path id="Vector_2" d="M38.9594 1.46227C38.9838 1.48019 39.0082 1.4981 39.0334 1.51671C39.1081 1.57196 39.1825 1.62762 39.2568 1.68327C39.28 1.70054 39.3031 1.71784 39.3271 1.73568C39.3823 1.77793 39.4356 1.82302 39.488 1.86852V1.94977C39.5212 1.9633 39.5212 1.9633 39.555 1.97707C39.6805 2.04817 39.7756 2.14242 39.8763 2.24438C39.8976 2.26583 39.919 2.28745 39.9409 2.30938C40.177 2.55232 40.3837 2.8172 40.5869 3.08938C40.6182 3.13163 40.6494 3.17388 40.6819 3.21695C41.5229 4.39101 42.0876 5.86164 42.1322 7.32007C42.1331 7.34839 42.1339 7.37654 42.1348 7.40579C42.1542 8.18173 42.0832 8.92517 41.8886 9.67673C41.8813 9.70525 41.874 9.7336 41.8666 9.76326C41.5659 10.9211 40.985 11.9895 40.1562 12.8548C40.0872 12.9288 40.0872 12.9288 40.0994 13.0498C40.1607 13.1034 40.1607 13.1034 40.2436 13.1481C40.2743 13.1663 40.3049 13.1843 40.3366 13.203C40.3697 13.222 40.4028 13.241 40.437 13.2607C40.5048 13.3008 40.5722 13.3411 40.6397 13.3813C40.6726 13.401 40.7055 13.4207 40.7396 13.441C41.0914 13.6564 41.4099 13.9245 41.7227 14.1885C41.7443 14.2063 41.7658 14.2241 41.7877 14.2426C42.2874 14.6569 42.7749 15.1038 43.1852 15.6116C43.2029 15.633 43.2205 15.6543 43.2385 15.6762C43.5123 16.0085 43.7666 16.3465 43.9981 16.7081C44.0383 16.7666 44.0383 16.7666 44.0794 16.8263C44.5953 17.5901 44.9975 18.4391 45.2981 19.3085C45.3109 19.3451 45.3237 19.3816 45.3369 19.4194C45.6705 20.3904 45.8529 21.4141 45.9057 22.4379C45.9079 22.4766 45.9102 22.5154 45.9125 22.5553C46.0766 25.4843 46.0766 25.4843 45.4575 26.2968C45.1049 26.6856 44.6287 26.8615 44.1169 26.9062C44.0011 26.9112 43.8857 26.9118 43.7699 26.9114C43.7204 26.9115 43.7204 26.9115 43.6696 26.9117C43.5591 26.9118 43.449 26.9117 43.3385 26.9116C43.2584 26.9117 43.1784 26.9118 43.098 26.9119C42.8782 26.9122 42.6592 26.9122 42.4399 26.9121C42.2026 26.9121 41.9645 26.9123 41.7289 26.9125C41.2658 26.9129 40.7986 26.913 40.3355 26.913C39.9581 26.913 39.5799 26.9131 39.202 26.9132C39.0932 26.9133 38.9847 26.9133 38.8758 26.9133C38.8488 26.9134 38.8218 26.9134 38.7938 26.9134C38.0341 26.9136 37.2744 26.9138 36.5147 26.9138C36.4861 26.9138 36.4574 26.9138 36.4278 26.9138C36.2827 26.9138 36.1373 26.9137 35.9931 26.9137C35.95 26.9137 35.95 26.9137 35.9057 26.9137C35.8472 26.9137 35.7891 26.9137 35.7306 26.9137C34.8247 26.9137 33.9147 26.914 33.0088 26.9146C31.9891 26.9152 30.9694 26.9156 29.9497 26.9155C29.4094 26.9155 28.8691 26.9156 28.3288 26.916C27.8697 26.9164 27.4106 26.9165 26.9516 26.9162C26.7172 26.9161 26.4844 26.9161 26.2488 26.9164C26.0343 26.9168 25.8181 26.9167 25.6028 26.9164C25.5252 26.9163 25.4476 26.9164 25.37 26.9166C24.651 26.9185 24.0579 26.8589 23.5175 26.3357C23.0544 25.8441 22.9813 25.3241 22.9813 24.67C22.9812 24.6201 22.9811 24.5701 22.9811 24.5189C22.981 24.4137 22.9811 24.3081 22.9815 24.2028C22.9819 24.0456 22.9815 23.8884 22.981 23.7316C22.9804 22.8175 22.9985 21.8994 23.1902 21.0016L23.2202 20.8505C23.3327 20.298 23.4818 19.7617 23.6711 19.2295C23.6889 19.18 23.7068 19.1304 23.7251 19.0792C23.8507 18.7363 23.99 18.4089 24.1639 18.092C24.2139 17.999 24.2606 17.9043 24.3073 17.8097C24.5685 17.2856 24.876 16.8144 25.2254 16.3431C25.2594 16.296 25.2933 16.2485 25.327 16.2009C25.5118 15.9466 25.7133 15.7134 25.9282 15.4859C26.0302 15.3771 26.1293 15.267 26.2285 15.1557C26.4872 14.8688 26.7525 14.6113 27.0572 14.3716C27.1592 14.2887 27.2575 14.203 27.3554 14.1161C27.8307 13.6976 28.3832 13.3767 28.9235 13.0557C28.8557 12.9119 28.7756 12.8173 28.6643 12.7027C27.6528 11.618 27.08 10.1962 26.8525 8.7499C26.8445 8.70115 26.8366 8.6524 26.8285 8.60244C26.7001 7.50962 26.854 6.42087 27.1775 5.37681C27.1864 5.34793 27.1953 5.31912 27.2045 5.28947C27.4357 4.56634 27.818 3.86759 28.273 3.26634C28.3073 3.22003 28.3416 3.17372 28.3758 3.1274C28.5387 2.90925 28.704 2.70084 28.9039 2.51397C28.975 2.44694 28.975 2.44694 29.0644 2.33237C29.1952 2.17922 29.3386 2.0545 29.495 1.92612C29.5156 1.90861 29.5364 1.8911 29.5575 1.8729C32.2225 -0.381784 36.1388 -0.621471 38.9419 1.47925L38.9594 1.46227ZM31.6876 5.04946C30.9197 5.87008 30.5744 6.88977 30.6069 8.0029C30.6504 9.06321 31.2204 9.91634 31.9719 10.6151C32.7235 11.257 33.7554 11.6307 34.7426 11.5657C34.8266 11.5566 34.9103 11.5465 34.994 11.5352C35.0533 11.5283 35.0533 11.5283 35.1135 11.5213C36.0966 11.3852 36.9944 10.8428 37.5997 10.0588C38.2131 9.22189 38.461 8.2347 38.3391 7.20283C38.1754 6.16689 37.6525 5.22439 36.8238 4.57439C35.1663 3.38002 33.1025 3.60345 31.705 5.0497L31.6876 5.04946ZM28.6976 18.0495C28.5379 18.2311 28.3916 18.4216 28.2507 18.6182C28.2334 18.6422 28.2162 18.6661 28.1983 18.6909C27.268 20.0031 26.7886 21.5225 26.7886 23.1191H42.1448C42.1899 22.8944 42.178 22.7128 42.1575 22.4853C42.1538 22.4439 42.15 22.4024 42.1462 22.3598C42.1066 21.9556 42.0373 21.5635 41.9419 21.1654C41.9313 21.1215 41.9313 21.1215 41.9205 21.0768C41.6873 20.1465 41.2502 19.2568 40.6814 18.485C40.6648 18.4622 40.6481 18.4395 40.6311 18.4159C40.4231 18.1336 40.2045 17.8715 39.9486 17.6318C39.7454 17.4287 39.7454 17.4287 39.6845 17.3653C39.5179 17.1939 39.3437 17.0448 39.1523 16.9022C39.1239 16.8812 39.0954 16.86 39.0662 16.8384C38.8139 16.6536 38.5543 16.4862 38.2821 16.3306C38.2572 16.3161 38.2322 16.3017 38.2066 16.2867C37.0813 15.6367 35.8178 15.3361 34.5259 15.3402C34.478 15.3402 34.478 15.3402 34.4293 15.3402C32.1908 15.3474 30.2043 16.4127 28.7011 18.0377L28.6976 18.0495Z" fill="#FFEDDA"/>
</g>
<defs>
<clipPath id="clip0_1410_12">
<rect width="65" height="65" fill="white"/>
</clipPath>
</defs>
</svg>
