<svg width="65" height="65" viewBox="0 0 65 65" fill="none" xmlns="http://www.w3.org/2000/svg">
<g id="2evsKdEgE9uUHTWNhAHkJYQXrOq 1" clip-path="url(#clip0_1392_73)">
<path id="Vector" d="M13.3609 -0.0104024C13.3881 -0.0105315 13.4153 -0.0106602 13.4434 -0.0107934C13.5347 -0.0111279 13.6265 -0.0108827 13.7179 -0.0106423C13.7845 -0.0107641 13.8507 -0.0109212 13.9173 -0.0111092C14.1009 -0.0115273 14.2844 -0.0114388 14.4696 -0.0112691C14.669 -0.0111733 14.868 -0.0115448 15.0666 -0.0118578C15.4163 -0.0123409 15.7651 -0.0125155 16.1144 -0.0124952C16.6342 -0.012463 17.154 -0.0128906 17.6738 -0.0134045C18.7094 -0.0144113 19.745 -0.0147645 20.7847 -0.0149675C20.8391 -0.0149782 20.8931 -0.0149889 20.9475 -0.0149996C20.9879 -0.0150075 20.9879 -0.0150075 21.0291 -0.0150155C21.6261 -0.0151332 22.2191 -0.0153833 22.816 -0.0156529C23.0613 -0.0157633 23.3074 -0.0158701 23.5511 -0.0159772C23.5917 -0.0159949 23.5917 -0.0159949 23.6331 -0.016013C25.1886 -0.0166869 26.7399 -0.01717 28.3034 -0.0172675C28.3615 -0.0172713 28.4196 -0.0172752 28.4781 -0.0172791C28.7408 -0.0172964 29.002 -0.0173129 29.2659 -0.0173294C29.3829 -0.0173368 29.5002 -0.0173442 29.6172 -0.0173518C29.6757 -0.0173555 29.7346 -0.0173592 29.7931 -0.0173628C31.6449 -0.0174769 33.4968 -0.0183574 35.3568 -0.0198554C36.7376 -0.0209719 38.1184 -0.0220233 39.4991 -0.0222872C39.527 -0.0222926 39.5548 -0.022298 39.5836 -0.0223036C40.1928 -0.0224201 40.806 -0.0224777 41.4152 -0.0224806C41.6337 -0.0224822 41.8538 -0.0224886 42.069 -0.0224974C42.1235 -0.0224996 42.1779 -0.0225016 42.2319 -0.0225033C43.1253 -0.0225344 44.0188 -0.02323 44.9082 -0.0242002C45.7772 -0.0251258 46.6463 -0.0253004 47.5195 -0.0247077C48.0352 -0.0243764 48.5551 -0.024609 49.0708 -0.0256495C49.416 -0.0262869 49.7612 -0.0261895 50.1064 -0.0254908C50.303 -0.0251137 50.4999 -0.0250564 50.6953 -0.0258955C50.8744 -0.0266547 51.0535 -0.026468 51.2313 -0.0255468C51.2955 -0.0253787 51.3597 -0.0255473 51.4242 -0.026103C52.1065 -0.0315836 52.6142 0.179317 53.1096 0.643743C53.1681 0.701391 53.2262 0.75985 53.2838 0.818309C53.316 0.850299 53.348 0.882452 53.3813 0.915335C53.4861 1.01967 53.5904 1.12481 53.6952 1.22996C53.7683 1.30303 53.8414 1.37611 53.9149 1.44918C54.0676 1.60183 54.2199 1.75447 54.3738 1.90793C54.5501 2.08493 54.7263 2.26152 54.9018 2.43568C55.0723 2.60578 55.2421 2.77588 55.4135 2.9472C55.4858 3.01946 55.5581 3.09213 55.6303 3.16439C55.7311 3.26507 55.8314 3.36575 55.9317 3.46684C55.9618 3.49684 55.9918 3.52692 56.0231 3.55778C56.0501 3.58514 56.0771 3.61258 56.1051 3.64059C56.1407 3.67632 56.1407 3.67632 56.177 3.71286C56.2273 3.77335 56.2273 3.77335 56.2273 3.85454C56.2675 3.86794 56.3077 3.88133 56.3492 3.89514C56.4117 3.95847 56.4117 3.95847 56.4779 4.03885C56.6326 4.22072 56.7975 4.3892 56.9652 4.55849C56.9973 4.59048 57.0294 4.62263 57.0623 4.65551C57.1313 4.72453 57.2004 4.79314 57.2698 4.86215C57.3795 4.97136 57.4891 5.08056 57.5988 5.18977C57.8315 5.42198 58.0658 5.65257 58.2973 5.88397C58.5674 6.15272 58.8374 6.41985 59.1055 6.69185C59.2131 6.79902 59.3207 6.9062 59.4283 7.01337C59.4949 7.07954 59.5611 7.14572 59.6273 7.21189C59.657 7.24132 59.6866 7.27075 59.7171 7.3012C59.8763 7.46034 60.0269 7.62395 60.176 7.79242C60.2978 7.92964 60.4282 8.05833 60.5585 8.18743C60.5883 8.21702 60.6182 8.2467 60.6487 8.27715C60.7128 8.34088 60.7766 8.40462 60.8408 8.46795C60.9419 8.56863 61.043 8.66931 61.1441 8.76999C61.4313 9.0562 61.7208 9.34241 62.0051 9.62658C62.1814 9.80196 62.3576 9.97734 62.533 10.1543C62.6001 10.2213 62.6675 10.2879 62.7349 10.3549C62.8287 10.4479 62.9217 10.5408 63.0151 10.6338C63.0431 10.6615 63.0711 10.689 63.1 10.7178C63.1252 10.7431 63.1503 10.7682 63.1763 10.7946C63.1984 10.8165 63.2206 10.8384 63.2433 10.8611C63.29 10.918 63.29 10.918 63.29 10.9992C63.3302 11.0126 63.3704 11.026 63.4119 11.0398C63.4626 11.0994 63.513 11.1595 63.5617 11.2208C63.6178 11.2902 63.6178 11.2902 63.7116 11.3593C63.8298 11.4547 63.9195 11.5602 64.0178 11.6755C64.1165 11.7855 64.2221 11.8862 64.3285 11.9885C64.7175 12.3693 64.9945 12.8816 65.0107 13.4337C65.0003 14.3715 64.2513 15.0008 63.634 15.6138C63.5885 15.6593 63.543 15.7051 63.4976 15.7506C63.3737 15.8744 63.2502 15.9982 63.1264 16.1221C62.9924 16.256 62.8583 16.39 62.7243 16.5244C62.4624 16.7866 62.2004 17.0481 61.9405 17.312C61.7277 17.5247 61.5141 17.7382 61.3029 17.9493C60.6978 18.5542 60.0927 19.1591 59.4876 19.764C59.4551 19.7965 59.4226 19.8289 59.3889 19.8626C59.3402 19.9114 59.3402 19.9114 59.2902 19.9613C58.7623 20.4891 58.2343 21.0168 57.7064 21.5446C57.1622 22.0886 56.6221 22.6326 56.0779 23.1725C55.7733 23.477 55.4687 23.7814 55.1641 24.0859C54.905 24.3453 54.6443 24.6056 54.3885 24.8654C54.2561 24.9973 54.1241 25.1297 53.9921 25.262C53.8711 25.3834 53.75 25.5044 53.6286 25.6254C53.5848 25.6688 53.5413 25.7126 53.4979 25.7565C52.8034 26.4547 52.2024 26.7552 51.2114 26.7633C51.1611 26.7632 51.1107 26.7631 51.0587 26.763C51.0031 26.7632 50.9471 26.7635 50.8914 26.7638C50.7399 26.7644 50.5885 26.7645 50.4366 26.7646C50.2725 26.7647 50.1084 26.7654 49.9452 26.7659C49.6617 26.7668 49.3766 26.7674 49.0964 26.7678C48.6862 26.7684 48.2761 26.7695 47.8659 26.7706C47.1999 26.7725 46.5338 26.7739 45.8719 26.7752C45.2262 26.7764 44.5804 26.7778 43.9347 26.7794C43.8948 26.7795 43.8551 26.7796 43.8137 26.7797C43.6135 26.7802 43.4137 26.7807 43.2126 26.7812C41.5557 26.7854 39.8988 26.789 38.2581 26.7923V30.5678C38.6496 30.5676 39.0419 30.5674 39.4439 30.5672C40.6988 30.5665 41.9537 30.5661 43.2086 30.5657C43.4035 30.5657 43.5984 30.5656 43.7934 30.5656C43.8322 30.5656 43.8709 30.5656 43.9112 30.5656C44.5406 30.5654 45.166 30.5651 45.7955 30.5647C46.4412 30.5643 47.0829 30.5641 47.7286 30.564C48.1258 30.5639 48.5246 30.5638 48.9226 30.5634C49.1955 30.5632 49.4668 30.5632 49.7429 30.5632C49.9001 30.5632 50.0573 30.5632 50.214 30.563C52.2811 30.5603 52.2811 30.5603 52.8822 31.0948C53.3005 31.517 53.4589 32.0001 53.4548 32.5806C53.4549 32.6204 53.455 32.6602 53.4551 32.7012C53.4554 32.8352 53.4553 32.9691 53.4553 33.1035C53.4555 33.2001 53.4556 33.2972 53.4558 33.3938C53.4561 33.6325 53.4563 33.8728 53.4564 34.1083C53.4565 34.3941 53.4569 34.6807 53.4572 34.9649C53.4581 35.655 53.4585 36.3452 53.4589 37.0353C53.459 37.3621 53.4592 37.6889 53.4595 38.0137C53.4602 39.1342 53.4608 40.2506 53.4611 41.3711C53.4611 41.4413 53.4611 41.5115 53.4612 41.5818C53.4612 41.6341 53.4612 41.6341 53.4612 41.6873C53.4612 41.8639 53.4613 42.0401 53.4613 42.2151C53.4613 42.2501 53.4614 42.2849 53.4614 42.321C53.4617 43.4577 53.4626 44.5904 53.464 45.7271C53.4653 46.9287 53.4662 48.1264 53.4663 49.328C53.4663 49.46 53.4663 49.5915 53.4663 49.7234C53.4663 49.7559 53.4664 49.7884 53.4664 49.8217C53.4664 50.3454 53.4671 50.865 53.4679 51.3887C53.4687 51.9124 53.469 52.4402 53.4686 52.9639C53.4684 53.2756 53.4686 53.589 53.4695 53.8976C53.4701 54.1306 53.4699 54.3644 53.4693 54.5958C53.4692 54.69 53.4694 54.7838 53.4699 54.878C53.4734 55.6128 53.4146 56.2299 52.8972 56.7982C52.3977 57.2732 51.7642 57.3219 51.1144 57.3219C51.0588 57.3221 51.0031 57.3223 50.9479 57.3225C50.796 57.3231 50.6437 57.3234 50.4931 57.3236C50.329 57.324 50.1645 57.3245 50.0017 57.3251C49.7174 57.3259 49.4331 57.3267 49.1488 57.3273C48.7386 57.3282 48.3285 57.3294 47.9142 57.3306C47.2482 57.3325 46.5822 57.3343 45.9121 57.3359C45.2623 57.3375 44.6166 57.3392 43.9668 57.341C43.9269 57.3411 43.8868 57.3412 43.8458 57.3413C43.6456 57.3419 43.445 57.3424 43.2448 57.343C41.5838 57.3476 39.9228 57.3519 38.2496 57.3561C38.2494 57.4011 38.2494 57.4011 38.2493 57.4474C38.2469 58.1822 38.2438 58.917 38.24 59.6518C38.2382 60.007 38.2366 60.3623 38.2355 60.7195C38.2346 61.0293 38.2332 61.3406 38.2314 61.6492C38.2304 61.8132 38.2296 61.9768 38.2294 62.1404C38.2291 62.2951 38.2283 62.4497 38.2271 62.6032C38.2267 62.6596 38.2266 62.7161 38.2266 62.7725C38.2272 63.3896 38.0943 63.9539 37.6622 64.4126C37.1017 64.8998 36.5129 64.9647 35.7981 64.9647C35.7185 64.965 35.6389 64.9654 35.5593 64.9658C35.3441 64.9667 35.1288 64.9668 34.9136 64.9667C34.7333 64.9667 34.553 64.967 34.3735 64.9674C33.947 64.9682 33.5206 64.9683 33.0983 64.968C32.6597 64.9677 32.2211 64.9687 31.7825 64.9702C31.4056 64.9714 31.0271 64.9719 30.6535 64.9717C30.4289 64.9716 30.2027 64.9719 29.9793 64.9729C29.7677 64.9738 29.557 64.9737 29.3458 64.9729C29.2686 64.9727 29.1915 64.9729 29.1139 64.9735C28.4438 64.9782 27.8874 64.8501 27.3676 64.3889C26.929 63.9261 26.8275 63.3943 26.8275 62.7813C26.8271 62.722 26.8267 62.6627 26.8262 62.6035C26.8251 62.4431 26.8245 62.2832 26.824 62.1244C26.8233 61.9568 26.8223 61.7891 26.8212 61.621C26.8193 61.304 26.8178 60.9877 26.8165 60.6711C26.8149 60.3098 26.8129 59.9484 26.8109 59.5871C26.8067 58.8442 26.803 58.1013 26.7998 57.3584C26.7711 57.3583 26.7425 57.3583 26.7129 57.3582C25.0113 57.3549 23.3096 57.3512 21.5959 57.347C21.3916 57.3465 21.1857 57.346 20.9826 57.3455C20.942 57.3454 20.9014 57.3453 20.8592 57.3452C20.2013 57.3436 19.5434 57.3422 18.8814 57.341C18.2073 57.3397 17.529 57.3382 16.8549 57.3363C16.4366 57.3352 16.0224 57.3343 15.6041 57.3337C15.3178 57.3333 15.0315 57.3326 14.7472 57.3316C14.5823 57.3311 14.417 57.3307 14.2517 57.3306C14.1006 57.3305 13.9492 57.3301 13.7969 57.3294C13.7165 57.3291 13.6365 57.3292 13.556 57.3293C12.9712 57.3256 12.5123 57.2018 12.0494 56.83V56.7488C12.026 56.7386 12.0027 56.7284 11.9787 56.718C11.8747 56.6607 11.8049 56.5954 11.7212 56.5113C11.6745 56.4646 11.6745 56.4647 11.6266 56.4167C11.5944 56.384 11.562 56.3514 11.5291 56.3177C11.4974 56.2859 11.4658 56.2544 11.4329 56.2215C11.2968 56.0847 11.1644 55.947 11.0394 55.7993C10.827 55.5553 10.5926 55.3283 10.3652 55.101C10.2795 55.0158 10.1942 54.9309 10.1086 54.8456C9.92743 54.665 9.74589 54.4843 9.56436 54.3057C9.35359 54.0958 9.142 53.8876 8.93083 53.6765C8.84676 53.5928 8.7627 53.5092 8.67822 53.4256C8.62665 53.374 8.57507 53.3225 8.5235 53.2713C8.48857 53.2367 8.48857 53.2367 8.45283 53.2015C8.32856 53.0773 8.21769 52.9494 8.10845 52.8122C8.04185 52.7436 7.97402 52.6762 7.90539 52.6092C7.8526 52.5564 7.7998 52.504 7.74701 52.4513C7.68406 52.3887 7.62111 52.3258 7.55817 52.2633C7.20769 51.9142 6.85559 51.565 6.50633 51.2159C6.29434 51.0044 6.08398 50.7937 5.86874 50.5826C5.68314 50.3979 5.49796 50.2132 5.31236 50.0264C5.21449 49.9286 5.11621 49.8307 5.01834 49.7333C4.90909 49.6249 4.80025 49.5161 4.69142 49.4069C4.65868 49.3745 4.62603 49.342 4.59232 49.3087C4.56288 49.2791 4.53344 49.2494 4.50298 49.2193C4.47719 49.1936 4.4514 49.1678 4.42501 49.1414C4.37059 49.0769 4.37059 49.0769 4.37059 48.9957C4.33038 48.9823 4.29018 48.9689 4.24875 48.9551C4.18662 48.8921 4.18662 48.8921 4.12002 48.8114C3.96447 48.6287 3.79837 48.4598 3.62862 48.2917C3.59621 48.2595 3.56364 48.2272 3.53034 48.1943C3.46049 48.1249 3.39064 48.0554 3.32079 47.9864C3.20992 47.8764 3.09905 47.7664 2.98818 47.656C2.67344 47.3426 2.35871 47.0308 2.04194 46.7182C1.84863 46.5266 1.65572 46.3345 1.4612 46.1417C1.3881 46.069 1.31459 45.996 1.24149 45.9237C0.323674 45.0143 0.323675 45.0143 0.149046 44.5556C0.133614 44.5163 0.118141 44.4768 0.102343 44.4366C-0.0515732 43.9901 -0.0036521 43.5395 0.187221 43.1132C0.324081 42.8384 0.489775 42.6301 0.715167 42.423C0.750337 42.3879 0.785425 42.3528 0.821569 42.3167C0.886953 42.2513 0.953149 42.186 1.01975 42.1214C1.12372 42.0183 1.12372 42.0183 1.21509 41.9006C1.32109 41.7703 1.44414 41.6651 1.57166 41.5563C1.67034 41.4711 1.76091 41.3797 1.85228 41.2863L1.93107 41.2088C2.04803 41.0935 2.16133 40.9815 2.26327 40.8524C2.33962 40.7586 2.33962 40.7586 2.45861 40.6595C2.5642 40.5714 2.6438 40.4837 2.72867 40.377C2.79568 40.3011 2.86878 40.2381 2.94594 40.1724C3.07752 40.0603 3.18677 39.9426 3.29642 39.8094C3.38658 39.7079 3.49379 39.6272 3.59816 39.5407C3.6473 39.4814 3.69603 39.4221 3.74396 39.3621C3.81096 39.2861 3.88406 39.2232 3.96123 39.1574C4.06681 39.0677 4.16022 38.978 4.24794 38.8708C4.35962 38.7352 4.48511 38.624 4.61872 38.5099C4.717 38.4251 4.80716 38.3341 4.89772 38.2416L4.97651 38.164C5.14789 37.9956 5.14789 37.9956 5.30383 37.8129C5.40211 37.6931 5.51379 37.5985 5.63116 37.4983C5.73025 37.4122 5.82163 37.3208 5.913 37.2271C5.93904 37.2015 5.96499 37.1759 5.99179 37.1495C6.16317 36.9811 6.16317 36.9811 6.31912 36.7984C6.4174 36.6786 6.52908 36.584 6.64644 36.4837C6.74553 36.3977 6.83691 36.3063 6.92829 36.2126C6.95432 36.187 6.98027 36.1614 7.00707 36.135C7.17845 35.9665 7.17845 35.9665 7.3344 35.7839C7.43268 35.6641 7.54436 35.5695 7.66172 35.4692C7.76082 35.3832 7.85219 35.2918 7.94357 35.198C7.9696 35.1725 7.99555 35.1469 8.02235 35.1205C8.19373 34.952 8.19373 34.952 8.34968 34.7693C8.44796 34.6496 8.55964 34.555 8.67701 34.4547C8.7761 34.3687 8.86747 34.2773 8.95885 34.1835C8.98488 34.158 9.01083 34.1324 9.03763 34.106C9.20901 33.9375 9.20901 33.9375 9.36496 33.7548C9.46324 33.6351 9.57492 33.5405 9.69229 33.4402C9.79138 33.3541 9.88275 33.2628 9.97413 33.169C10.0002 33.1434 10.0261 33.1179 10.0529 33.0915C10.1699 32.9762 10.2832 32.8641 10.3851 32.735C10.4611 32.6413 10.4611 32.6413 10.5805 32.5422C10.686 32.4541 10.7656 32.3664 10.8505 32.2597C10.9175 32.1837 10.9906 32.1208 11.0678 32.055C11.1994 31.9434 11.3086 31.8253 11.4183 31.6921C11.5088 31.5894 11.6136 31.5094 11.72 31.4234C11.751 31.3924 11.7821 31.3612 11.8138 31.3296C12.4636 30.68 13.024 30.5664 13.9297 30.5664C14.0048 30.5665 14.0048 30.5665 14.0811 30.5667C14.1364 30.5667 14.1916 30.5667 14.2468 30.5666C14.3971 30.5665 14.547 30.5667 14.6976 30.5669C14.8601 30.5671 15.0229 30.567 15.185 30.567C15.466 30.567 15.7454 30.5671 16.0297 30.5673C16.4358 30.5676 16.8419 30.5677 17.248 30.5678C17.9059 30.5679 18.5679 30.5682 19.2258 30.5685C19.8674 30.5689 20.505 30.5692 21.1467 30.5694C21.1862 30.5694 21.2259 30.5694 21.2665 30.5694C21.4647 30.5695 21.6629 30.5695 21.8594 30.5696C23.5001 30.57 25.1449 30.5707 26.7734 30.5716V26.7961C26.3713 26.7953 25.9693 26.7945 25.555 26.7937C24.2677 26.791 22.9803 26.788 21.6929 26.7847C21.4927 26.7842 21.2929 26.7837 21.0919 26.7832C21.052 26.7831 21.0123 26.783 20.9713 26.7829C20.3255 26.7813 19.6839 26.78 19.0382 26.7787C18.3762 26.7775 17.7142 26.7759 17.0523 26.7741C16.6462 26.7729 16.236 26.772 15.8299 26.7715C15.5501 26.771 15.2694 26.7703 14.9892 26.7693C14.828 26.7688 14.6664 26.7684 14.5059 26.7683C14.3577 26.7683 14.2099 26.7678 14.0633 26.7671C13.9849 26.7668 13.9069 26.7669 13.8285 26.7671C13.1788 26.7629 12.6021 26.6777 12.1107 26.2149C11.7318 25.8008 11.5624 25.3543 11.5665 24.7941C11.5663 24.7538 11.5661 24.7137 11.5659 24.6719C11.5654 24.5371 11.5658 24.4027 11.5662 24.2679C11.566 24.1705 11.5658 24.0726 11.5655 23.9752C11.5651 23.7633 11.565 23.553 11.5652 23.3378C11.5656 23.0224 11.5653 22.7086 11.5648 22.3919C11.564 21.8276 11.5639 21.2634 11.5641 20.7031C11.5643 20.2119 11.5643 19.7166 11.5641 19.2254C11.564 19.1592 11.564 19.0931 11.564 19.0269C11.5639 18.927 11.5639 18.8275 11.5638 18.7277C11.5634 17.8021 11.5632 16.8724 11.5635 15.9468C11.5635 15.9119 11.5635 15.877 11.5636 15.8408C11.5637 15.5571 11.5638 15.2725 11.5639 14.9883C11.5643 13.88 11.5639 12.7758 11.563 11.6675C11.5619 10.4252 11.5614 9.18298 11.5617 7.93666C11.5617 7.80391 11.5618 7.67156 11.5618 7.53881C11.5618 7.50617 11.5618 7.47345 11.5618 7.43976C11.5619 6.94854 11.5616 6.45326 11.561 5.96204C11.5604 5.4018 11.5604 4.84157 11.5611 4.28133C11.5615 3.96792 11.5615 3.65614 11.5608 3.33949C11.5603 3.10524 11.5607 2.87262 11.5614 2.63716C11.5615 2.54257 11.5614 2.44798 11.561 2.35339C11.558 1.63889 11.6028 1.10301 12.1092 0.554956C12.3375 0.336951 12.5925 0.201358 12.8808 0.0759143C12.911 0.0617054 12.9413 0.0474966 12.9722 0.0328818C13.1062 -0.0129925 13.2159 -0.0154283 13.358 -0.0154283L13.3609 -0.0104024ZM15.3631 3.81787C15.3588 3.91774 15.3572 4.01639 15.3573 4.11626C15.3572 4.148 15.3571 4.17959 15.3569 4.21247C15.3566 4.32005 15.3565 4.42804 15.3564 4.53562C15.3562 4.61316 15.3559 4.6907 15.3557 4.76824C15.3551 4.98218 15.3547 5.19451 15.3543 5.40967C15.3539 5.64026 15.3533 5.87247 15.3527 6.09981C15.3515 6.55044 15.3506 7.00512 15.3497 7.45574C15.349 7.82314 15.3482 8.19054 15.3474 8.55591C15.3473 8.60828 15.3472 8.66025 15.347 8.71384C15.3468 8.81979 15.3466 8.92575 15.3463 9.03171C15.3441 9.99791 15.3421 10.9641 15.3403 11.9344C15.3386 12.8153 15.3366 13.7003 15.3345 14.5813C15.3322 15.5718 15.3299 16.5624 15.3279 17.553C15.3277 17.6585 15.3275 17.7645 15.3273 17.87C15.3272 17.922 15.3271 17.974 15.327 18.0275C15.3262 18.3941 15.3253 18.7623 15.3245 19.1277C15.3234 19.5743 15.3224 20.0208 15.3217 20.4674C15.3213 20.6956 15.3208 20.9221 15.3202 21.1535C15.3196 21.3626 15.3193 21.5716 15.319 21.7787C15.3189 21.8542 15.3187 21.9297 15.3185 22.0056C15.3181 22.1083 15.318 22.211 15.318 22.3137C15.3177 22.3576 15.3177 22.3576 15.3175 22.4027C15.3178 22.5963 15.336 22.781 15.363 22.971C18.7418 22.9759 22.1045 22.9804 25.5158 22.983C25.5658 22.9831 25.6157 22.9831 25.6673 22.9831C26.7557 22.984 27.84 22.9848 28.9284 22.9855C29.4604 22.9859 29.9924 22.9862 30.5285 22.9866C30.5817 22.9866 30.6344 22.9867 30.6893 22.9867C32.4071 22.9879 34.129 22.9901 35.8469 22.9927C37.6135 22.9954 39.3801 22.9971 41.1264 22.9977C41.3757 22.9978 41.6259 22.9978 41.8736 22.9979C41.9228 22.998 41.9719 22.998 42.0223 22.998C42.8142 22.9983 43.602 22.9997 44.3939 23.0013C45.1899 23.003 45.9818 23.0037 46.7778 23.0032C47.2489 23.003 47.7241 23.0036 48.1952 23.0053C48.5103 23.0064 48.8246 23.0064 49.1414 23.0056C49.3213 23.0052 49.5008 23.0052 49.6815 23.0065C49.8452 23.0076 50.0085 23.0075 50.1729 23.0063C50.2318 23.0061 50.2907 23.0063 50.3496 23.0071C50.7265 23.0148 50.7265 23.0148 51.044 22.8379C51.0907 22.7887 51.1366 22.7384 51.1809 22.6868C51.2137 22.6557 51.2467 22.6247 51.2804 22.5927C51.3083 22.5648 51.336 22.537 51.3649 22.5082C51.3976 22.4755 51.4303 22.4429 51.464 22.4092C51.5163 22.3568 51.5163 22.3568 51.57 22.3032C51.6079 22.2653 51.6459 22.2273 51.6849 22.1883C51.7893 22.084 51.8936 21.9796 51.998 21.8749C52.1109 21.762 52.2238 21.6492 52.3367 21.5363C52.532 21.3411 52.7274 21.1458 52.9215 20.9517C53.2038 20.6692 53.486 20.3874 53.7703 20.1033C54.2292 19.6445 54.6881 19.1858 55.1429 18.727C55.5897 18.2805 56.0323 17.838 56.479 17.3914C56.5065 17.364 56.5339 17.3366 56.5623 17.3082C56.7 17.1706 56.8376 17.0329 56.9765 16.8941C58.1177 15.7533 59.2589 14.6126 60.4001 13.4677C60.344 13.3512 60.2908 13.2676 60.1982 13.1762C60.1618 13.1401 60.1618 13.1401 60.1247 13.1032C60.0986 13.0776 60.0723 13.052 60.0455 13.0256C60.0187 12.999 59.9919 12.9724 59.9643 12.9448C59.8786 12.86 59.7929 12.7756 59.7068 12.6907C59.6207 12.6059 59.535 12.521 59.449 12.4358C59.3958 12.383 59.3421 12.3302 59.2885 12.2774C59.2644 12.2536 59.2402 12.2295 59.2154 12.2052C59.1941 12.1842 59.1728 12.1634 59.1509 12.1418C59.1001 12.087 59.1001 12.087 59.0595 12.0058H58.9783C58.9649 11.9656 58.9515 11.9255 58.9376 11.884H58.8564C58.844 11.8518 58.844 11.8518 58.8313 11.8191C58.7513 11.6807 58.6401 11.5763 58.5267 11.4651C58.5013 11.4397 58.476 11.4143 58.4496 11.3884C58.3655 11.3047 58.2811 11.2211 58.1966 11.1375C58.1381 11.079 58.0792 11.021 58.0207 10.9625C57.8664 10.8086 57.7121 10.6552 57.5578 10.5038C57.3108 10.2586 57.0623 10.0125 56.8186 9.76896C56.7325 9.6833 56.6464 9.59805 56.5603 9.51239C56.5071 9.45961 56.4539 9.40683 56.4012 9.35406C56.3773 9.33051 56.3536 9.30697 56.3289 9.28261C56.2208 9.17503 56.1193 9.06704 56.0239 8.94809C55.9941 8.91342 55.9646 8.87867 55.9337 8.84295H55.8525C55.8391 8.80276 55.8257 8.76256 55.8119 8.72116C55.7355 8.63144 55.7355 8.63144 55.6494 8.55877H55.5682C55.5577 8.5351 55.5473 8.51127 55.5365 8.48691C55.4825 8.38826 55.424 8.32331 55.3444 8.24414C55.3001 8.19989 55.3001 8.19989 55.2551 8.15443C55.2227 8.12236 55.1901 8.09028 55.1568 8.0574C55.1226 8.0233 55.0886 7.9892 55.0532 7.95428C54.9598 7.86091 54.866 7.76794 54.7722 7.67457C54.6739 7.57714 54.5756 7.4789 54.4778 7.38106C54.2918 7.19553 54.1058 7.01041 53.9173 6.82488C53.5843 6.49361 53.2513 6.16316 52.9183 5.83026C52.8208 5.73283 52.7229 5.6358 52.6251 5.53878C52.5158 5.43039 52.407 5.32159 52.2978 5.21319C52.2656 5.18128 52.2336 5.14946 52.2003 5.11657C52.072 4.98869 51.9473 4.86162 51.8336 4.72035C51.7913 4.67082 51.7913 4.67082 51.7487 4.62048H51.6675C51.6541 4.58029 51.6407 4.5401 51.6269 4.49869C51.5464 4.43008 51.4652 4.36269 51.3832 4.29571C51.3564 4.25552 51.3296 4.21532 51.302 4.17392H51.2207C51.2073 4.13373 51.1939 4.09353 51.1801 4.05213H51.0989C51.0721 3.99854 51.0453 3.94495 51.0177 3.88974H50.9365V3.80855C50.8264 3.75374 50.7411 3.76267 50.6181 3.76267C50.5669 3.76257 50.5161 3.76247 50.4637 3.76236C50.4065 3.76246 50.3492 3.76255 50.292 3.76265C50.2314 3.76261 50.1709 3.76255 50.1104 3.76247C49.9427 3.76231 49.775 3.76241 49.6068 3.76254C49.4249 3.76265 49.243 3.76252 49.0627 3.76241C48.7435 3.76227 48.4251 3.76227 48.1042 3.76237C47.6291 3.76253 47.1539 3.76245 46.6788 3.76232C45.83 3.76211 44.9812 3.76213 44.1365 3.76225C43.3933 3.76235 42.6542 3.76238 41.911 3.76233C41.8619 3.76232 41.8127 3.76232 41.762 3.76232C41.5626 3.76231 41.3632 3.76229 41.165 3.76228C39.2928 3.76215 37.4206 3.76227 35.5606 3.76249C33.8956 3.76268 32.2305 3.76266 30.5654 3.76247C28.6973 3.76225 26.8292 3.76216 24.9611 3.76229C24.7621 3.7623 24.5631 3.76231 24.3641 3.76233C24.315 3.76233 24.2662 3.76233 24.2155 3.76234C23.4723 3.76238 22.7332 3.76233 21.99 3.76223C21.1453 3.76211 20.3046 3.76214 19.4599 3.76236C18.9888 3.76248 18.5136 3.76249 18.0426 3.76233C17.7278 3.76224 17.4131 3.7623 17.0963 3.76248C16.9164 3.76257 16.7365 3.7626 16.5562 3.76246C16.3929 3.76233 16.2297 3.76238 16.0648 3.76259C16.0059 3.76263 15.9466 3.7626 15.8877 3.7625C15.8081 3.76237 15.7285 3.76251 15.6493 3.76267C15.5831 3.76267 15.5831 3.76267 15.5153 3.76268C15.4191 3.75667 15.4191 3.75667 15.3764 3.80855L15.3631 3.81787ZM30.5923 26.755C30.5914 27.3843 30.5906 28.0135 30.5898 28.659C30.5894 28.8579 30.589 29.0569 30.5886 29.2598C30.5885 29.4373 30.5885 29.4373 30.5884 29.6151C30.5883 29.6942 30.5882 29.7738 30.588 29.853C30.5877 29.9727 30.5877 30.0929 30.5877 30.2127C30.5875 30.2483 30.5874 30.2837 30.5872 30.3206C30.572 30.4769 30.572 30.4769 30.6327 30.6081C30.7489 30.6122 30.8638 30.6136 30.9795 30.6133C31.0159 30.6134 31.0522 30.6134 31.0896 30.6135C31.2106 30.6137 31.3312 30.6136 31.4523 30.6134C31.5359 30.6135 31.6196 30.6135 31.7032 30.6136C31.8787 30.6136 32.0541 30.6135 32.2312 30.6133C32.4566 30.6131 32.682 30.6132 32.9094 30.6135C33.082 30.6136 33.255 30.6136 33.4292 30.6135C33.5125 30.6135 33.5957 30.6135 33.6786 30.6136C33.7947 30.6137 33.9105 30.6135 34.0266 30.6133C34.0786 30.6134 34.0786 30.6134 34.1318 30.6136C34.2853 30.6279 34.2853 30.6279 34.414 30.5673C34.4179 30.4487 34.4192 30.331 34.4187 30.2125C34.4187 30.1746 34.4187 30.1369 34.4187 30.098C34.4186 29.975 34.4183 29.852 34.418 29.7289C34.418 29.653 34.4179 29.5775 34.4179 29.5016C34.4177 29.2199 34.4171 28.9373 34.4166 28.6572L34.4141 26.7532H30.5966L30.5923 26.755ZM14.0229 34.4278V34.509C13.9852 34.5241 13.9852 34.5241 13.9465 34.5395C13.8548 34.5829 13.8548 34.5829 13.8198 34.6714C13.7792 34.7526 13.7792 34.7526 13.7053 34.7891C13.6042 34.8403 13.5408 34.8995 13.4604 34.9799C13.4297 35.0105 13.3991 35.0408 13.3674 35.0725C13.3339 35.1061 13.3004 35.1399 13.2659 35.1744C13.2301 35.21 13.1944 35.2458 13.1575 35.2824C13.058 35.3814 12.9589 35.4805 12.8598 35.5799C12.753 35.6871 12.6458 35.7939 12.5385 35.9007C12.329 36.1101 12.1203 36.3188 11.9091 36.5299C11.7389 36.7 11.5688 36.8705 11.3974 37.0414C11.3732 37.0656 11.349 37.0897 11.3239 37.1149C11.2747 37.164 11.2256 37.2132 11.1764 37.2623C10.7135 37.7251 10.2546 38.1838 9.7916 38.6466C9.39565 39.0428 8.99968 39.4383 8.60169 39.8361C8.14279 40.2949 7.68388 40.7536 7.22091 41.2164C7.17177 41.2655 7.12304 41.3142 7.0739 41.3634C7.04982 41.3874 7.02557 41.4117 7.0008 41.4364C6.83064 41.6065 6.66048 41.7766 6.4891 41.948C6.28198 42.155 6.07486 42.362 5.86774 42.5691C5.76216 42.675 5.65616 42.7806 5.55057 42.8861C5.43605 43.0002 5.32193 43.1151 5.2074 43.2296C5.17353 43.2632 5.13958 43.297 5.10466 43.3315C5.07436 43.362 5.04415 43.3924 5.01288 43.4241C4.98644 43.4505 4.96008 43.4768 4.93287 43.504C4.8683 43.5657 4.8683 43.5657 4.87724 43.651L4.80373 43.684C4.71398 43.7327 4.65672 43.7745 4.59296 43.854C4.57878 43.9775 4.57878 43.9775 4.66118 44.0457C4.69059 44.0695 4.72007 44.0936 4.75053 44.1179C4.85652 44.2044 4.92231 44.2665 4.99907 44.3818H5.08029C5.09369 44.422 5.1071 44.4622 5.1209 44.5036H5.20213C5.22893 44.5572 5.25573 44.6108 5.28335 44.666H5.36457C5.37338 44.688 5.3822 44.7102 5.39129 44.7326C5.46439 44.8608 5.56348 44.9563 5.66786 45.059C5.69052 45.0816 5.71334 45.104 5.73649 45.1276C5.81121 45.2023 5.88634 45.2766 5.96148 45.3509C6.01386 45.4028 6.06585 45.4548 6.11823 45.5067C6.25591 45.6436 6.39358 45.7804 6.53247 45.9168C6.75258 46.1352 6.97107 46.3552 7.19037 46.5704C7.26713 46.6467 7.34388 46.7226 7.42023 46.7985C7.46775 46.8456 7.51486 46.8927 7.56237 46.9398C7.58353 46.9607 7.60461 46.9816 7.62654 47.0031C7.72644 47.1026 7.82106 47.2037 7.91041 47.3129C7.99772 47.4258 7.99772 47.4258 8.10209 47.5033C8.21784 47.5963 8.30353 47.699 8.39571 47.8147C8.41358 47.8333 8.43141 47.8519 8.44973 47.8711H8.53095C8.54622 47.9062 8.54622 47.9062 8.56181 47.9421C8.61908 48.0461 8.68405 48.1155 8.76812 48.1991C8.81685 48.2478 8.81685 48.2478 8.86681 48.2978C8.9025 48.3331 8.93828 48.3684 8.97524 48.4049C9.0128 48.4425 9.05037 48.48 9.08895 48.5186C9.17058 48.6002 9.25261 48.6814 9.33424 48.763C9.4642 48.8917 9.59334 49.0208 9.72289 49.1499C9.92798 49.3545 10.1331 49.5599 10.3402 49.7629C10.7073 50.1279 11.0752 50.4936 11.4407 50.859C11.5691 50.9869 11.6978 51.1152 11.8266 51.2431C11.8875 51.3036 11.9484 51.3644 12.0093 51.4249C12.0832 51.4984 12.1571 51.5723 12.2314 51.6458C12.4061 51.8199 12.5746 51.9965 12.735 52.1857C12.85 52.3177 12.9742 52.4399 13.0981 52.5633C13.1254 52.5906 13.1529 52.6181 13.1809 52.6461C13.2382 52.7033 13.2955 52.7606 13.3527 52.8174C13.4404 52.9051 13.5282 52.9928 13.6159 53.0809C13.6715 53.1365 13.7276 53.1925 13.7832 53.2481C13.8094 53.2744 13.8356 53.3009 13.8628 53.3277C13.8992 53.3639 13.8992 53.3639 13.9363 53.4008C13.9576 53.4221 13.979 53.4434 14.0009 53.4653C14.1199 53.5733 14.2198 53.5615 14.3753 53.5615C14.4521 53.5617 14.4521 53.5617 14.53 53.5618C14.5873 53.5617 14.6446 53.5616 14.7018 53.5615C14.7623 53.5615 14.8233 53.5616 14.8838 53.5616C15.0519 53.5618 15.2196 53.5616 15.3873 53.5615C15.5697 53.5613 15.7516 53.5614 15.9356 53.5615C16.2552 53.5616 16.5732 53.5615 16.894 53.5613C17.3692 53.5611 17.8443 53.5611 18.3195 53.5611C19.1195 53.5612 19.9196 53.561 20.7196 53.5608C21.5115 53.5606 22.3034 53.5604 23.0954 53.5604C23.1445 53.5603 23.1936 53.5603 23.2444 53.5603C23.4942 53.5603 23.7439 53.5603 23.9957 53.5603C25.7664 53.5602 27.537 53.5599 29.3158 53.5596C31.0377 53.5592 32.7596 53.5589 34.4734 53.5587C34.5266 53.5587 34.5794 53.5587 34.6342 53.5587C35.1663 53.5587 35.6983 53.5586 36.2303 53.5586C37.3146 53.5585 38.3989 53.5583 39.4832 53.5582C39.5332 53.5582 39.5831 53.5582 39.6343 53.5582C42.9685 53.5578 46.2945 53.5572 49.6247 53.5565C49.6254 51.7296 49.626 49.9028 49.6264 48.0759C49.6264 48.0489 49.6264 48.0219 49.6264 47.9939C49.6265 47.4053 49.6266 46.8207 49.6267 46.232C49.6268 45.9442 49.6269 45.6556 49.6269 45.3673C49.6269 45.3387 49.6269 45.3101 49.6269 45.2804C49.6271 44.3508 49.6274 43.4211 49.6278 42.4915C49.6282 41.509 49.6284 40.5306 49.6285 39.5482C49.6286 38.9595 49.6287 38.3709 49.6291 37.7822C49.6293 37.3795 49.6293 36.9784 49.6293 36.5724C49.6293 36.3398 49.6293 36.1056 49.6295 35.8742C49.6297 35.6615 49.6297 35.4479 49.6296 35.2368C49.6296 35.1597 49.6296 35.0821 49.6297 35.005C49.6299 34.9007 49.6298 34.7963 49.6297 34.692C49.6298 34.6614 49.6299 34.6307 49.63 34.599C49.6418 34.4614 49.6418 34.4614 49.5841 34.3469C49.5069 34.3429 49.4294 34.3418 49.3522 34.3418C49.3014 34.3417 49.2507 34.3416 49.1983 34.3415C49.141 34.3416 49.0838 34.3416 49.0265 34.3417C48.966 34.3417 48.9059 34.3416 48.8454 34.3415C48.6781 34.3413 48.5103 34.3414 48.3418 34.3415C48.1603 34.3416 47.9783 34.3414 47.7976 34.3412C47.4788 34.341 47.16 34.341 46.8392 34.341C46.364 34.3411 45.8889 34.3409 45.4178 34.3407C44.5203 34.3403 43.6268 34.3402 42.7293 34.3402C42.0389 34.3402 41.3445 34.3401 40.6541 34.3399C40.4551 34.3399 40.2565 34.3399 40.0571 34.3398C40.0076 34.3398 39.9584 34.3398 39.9072 34.3398C38.5183 34.3396 37.1254 34.3394 35.7243 34.3394C35.6455 34.3394 35.6455 34.3394 35.5651 34.3394C35.2991 34.3394 35.0331 34.3394 34.7651 34.3394C34.7123 34.3394 34.6595 34.3394 34.605 34.3394C34.4982 34.3394 34.3914 34.3394 34.2846 34.3394C32.6236 34.3395 30.9586 34.3392 29.2894 34.3386C27.4213 34.338 25.5573 34.3376 23.6851 34.3377C23.4861 34.3377 23.2875 34.3377 23.0881 34.3377C23.039 34.3377 22.9902 34.3377 22.9399 34.3377C22.152 34.3377 21.3601 34.3374 20.5722 34.3371C19.7803 34.3367 18.9884 34.3367 18.1924 34.3369C17.7213 34.3371 17.2502 34.337 16.7791 34.3366C16.4644 34.3364 16.1497 34.3364 15.837 34.3367C15.6575 34.3369 15.478 34.3369 15.2968 34.3366C15.1336 34.3363 14.9707 34.3364 14.8095 34.3367C14.7506 34.3368 14.6917 34.3367 14.6328 34.3365C14.5532 34.3363 14.4736 34.3365 14.394 34.3368C14.3498 34.3368 14.3059 34.3368 14.2604 34.3368C14.1475 34.3469 14.0805 34.3699 13.9847 34.4282L14.0229 34.4278ZM30.5923 57.3244V61.1811C31.5263 61.1823 31.5263 61.1823 32.4767 61.1836C32.7719 61.1842 32.7719 61.1842 33.0736 61.1847C33.2495 61.1849 33.2495 61.1849 33.4253 61.1849C33.5037 61.185 33.5825 61.1851 33.6609 61.1853C33.7795 61.1856 33.8985 61.1857 34.017 61.1857C34.0523 61.1858 34.0877 61.186 34.1238 61.1861C34.279 61.2011 34.279 61.2011 34.4089 61.1406C34.4128 61.0221 34.4141 60.9044 34.4136 60.7858C34.4136 60.748 34.4136 60.7103 34.4136 60.6713C34.4135 60.5483 34.4132 60.4253 34.4129 60.3023C34.4129 60.2264 34.4128 60.1509 34.4128 60.075C34.4126 59.7932 34.412 59.5107 34.4115 59.2306C34.4107 58.6013 34.4098 57.9721 34.409 57.3266H30.5915L30.5923 57.3244Z" fill="#E5F1E5"/>
<path id="Vector_2" d="M19.5813 39.7311C19.9035 39.9927 20.1826 40.3079 20.471 40.6086C20.5567 40.6975 20.6433 40.7857 20.7298 40.8742C20.756 40.9019 20.7822 40.9295 20.809 40.9579C20.8336 40.9829 20.8582 41.0079 20.8834 41.0335C20.9047 41.0557 20.926 41.0778 20.9484 41.1009C21.0125 41.1517 21.0125 41.1517 21.0958 41.1367C21.1848 41.0991 21.2327 41.0604 21.2998 40.9913C21.3227 40.9679 21.3457 40.9446 21.3692 40.9206C21.3936 40.8952 21.418 40.8698 21.4432 40.8434C21.4818 40.8041 21.4818 40.8041 21.5212 40.7638C21.6313 40.6517 21.7405 40.5391 21.8494 40.4266C22.865 39.3825 22.865 39.3825 23.6125 39.3135C24.1975 39.3135 24.7013 39.4679 25.1279 39.8782C25.5085 40.2844 25.6682 40.7435 25.66 41.3C25.6264 42.1329 25.071 42.6366 24.5104 43.185C24.4429 43.2513 24.3759 43.3175 24.3089 43.3837C24.1455 43.545 23.9818 43.7054 23.8173 43.8671C23.8705 43.9845 23.9266 44.0674 24.0188 44.1572C24.0431 44.1811 24.0675 44.2051 24.0923 44.2295C24.1186 44.2549 24.1447 44.2803 24.1719 44.3067C24.2276 44.3615 24.2837 44.4168 24.3393 44.4716C24.4271 44.5578 24.5148 44.6435 24.6026 44.7292C25.6385 45.7408 25.6385 45.7408 25.6588 46.5004C25.6635 47.0123 25.552 47.3983 25.2404 47.8086C25.2161 47.8446 25.1916 47.8805 25.1669 47.9179C24.8008 48.3046 24.2731 48.4825 23.7531 48.5029C22.965 48.4881 22.4897 48.0316 21.9697 47.4994C21.8779 47.406 21.786 47.3125 21.6942 47.2191C21.6252 47.1484 21.5569 47.0773 21.4883 47.0062C21.4452 46.9624 21.4021 46.9185 21.3591 46.8746C21.3394 46.8537 21.3197 46.8328 21.2994 46.8112C21.238 46.747 21.238 46.747 21.1397 46.6735C21.0004 46.6863 20.9337 46.7434 20.8383 46.8417C20.7988 46.882 20.7988 46.882 20.7586 46.9229C20.7305 46.9522 20.7026 46.9814 20.6733 47.0115C20.6128 47.0733 20.5523 47.135 20.4917 47.1968C20.3971 47.2943 20.3024 47.3914 20.2078 47.4893C20.1164 47.5835 20.0241 47.6774 19.9319 47.7712C19.9043 47.8 19.8767 47.8289 19.8482 47.8585C19.4217 48.2932 18.9626 48.476 18.3614 48.5004C17.8739 48.502 17.3985 48.3005 17.037 47.9682C16.6592 47.5579 16.4885 47.0339 16.5007 46.4854C16.5254 46.0264 16.7152 45.5876 17.037 45.2504H17.1182L17.1995 45.0879H17.2807C17.2916 45.0636 17.3025 45.0392 17.3137 45.0144C17.3621 44.9254 17.4063 44.8681 17.4839 44.8035H17.5652C17.5786 44.7633 17.592 44.7231 17.6058 44.6817H17.6871C17.7003 44.6487 17.7003 44.6487 17.7137 44.615C17.7872 44.4859 17.8868 44.3888 17.9916 44.2856C18.0119 44.265 18.0321 44.2445 18.0529 44.223C18.2045 44.0723 18.2045 44.0723 18.2963 44.0723C18.3422 43.9862 18.3422 43.9862 18.3369 43.8692C18.2585 43.7554 18.1577 43.6648 18.0574 43.5702C18.0283 43.5416 17.9993 43.5133 17.9692 43.4836C17.8758 43.3922 17.7811 43.3016 17.6869 43.211C16.5128 42.0817 16.5128 42.0817 16.4966 41.2489C16.5015 40.7248 16.6891 40.2454 17.0491 39.8595C17.7641 39.1973 18.8122 39.1567 19.5881 39.738L19.5813 39.7311Z" fill="#E5F1E5"/>
<path id="Vector_3" d="M50.0093 9.22199C50.3761 9.62093 50.5943 10.1279 50.5821 10.6723C50.5203 11.3629 50.1433 11.8423 49.7493 12.3786C49.6432 12.5236 49.54 12.6707 49.4368 12.8173C49.2695 13.0558 49.1001 13.2926 48.929 13.5282C48.6755 13.8784 48.4253 14.2311 48.1775 14.5845C47.9069 14.9692 47.6331 15.3523 47.3609 15.7342C47.2122 15.9393 47.0656 16.1445 46.9181 16.3517C46.7288 16.6206 46.537 16.8879 46.3453 17.1561C46.2133 17.3385 46.0828 17.5221 45.9537 17.7086C45.0599 18.9882 45.0599 18.9882 44.2393 19.1386C43.638 19.1983 43.1912 19.0857 42.6955 18.7323C42.5497 18.6076 42.4148 18.4739 42.2812 18.3378C42.242 18.2989 42.2028 18.2598 42.1633 18.2208C42.0581 18.116 41.9533 18.0112 41.8485 17.906C41.738 17.7951 41.6275 17.6846 41.5166 17.5745C41.3309 17.3888 41.1453 17.2032 40.96 17.0179C40.7468 16.8038 40.5335 16.5914 40.3182 16.3761C40.1333 16.192 39.9489 16.0076 39.7657 15.8236C39.656 15.7139 39.5463 15.6038 39.4362 15.4945C39.3326 15.3913 39.2298 15.2881 39.127 15.1845C39.0718 15.1289 39.0161 15.074 38.9609 15.0188C38.5262 14.58 38.2256 14.0925 38.2134 13.4628C38.2336 12.9347 38.4104 12.4635 38.7781 12.0775C39.1673 11.7456 39.6028 11.5697 40.1106 11.5738C40.1408 11.574 40.1711 11.5742 40.202 11.5745C41.2623 11.5978 41.9935 12.6226 42.6842 13.3213C42.791 13.4286 42.8978 13.5354 43.0047 13.6427C43.2127 13.8511 43.4191 14.0611 43.6303 14.2683C43.766 14.2049 43.8286 14.1533 43.9114 14.0274C43.9329 13.9954 43.9541 13.9632 43.9764 13.9303C43.9989 13.8961 44.0211 13.8617 44.0443 13.8267C44.0918 13.7556 44.1393 13.6849 44.1869 13.6143C44.2215 13.5627 44.2215 13.5627 44.2568 13.5103C44.3368 13.3928 44.4205 13.2799 44.5066 13.167C44.6707 12.9517 44.8271 12.7323 44.9819 12.5088C45.1322 12.2952 45.2846 12.0823 45.4369 11.871C45.6079 11.635 45.7773 11.3998 45.9447 11.1601C46.134 10.8912 46.3254 10.6238 46.5175 10.3598C46.6288 10.2062 46.7389 10.0518 46.847 9.89666C46.8791 9.85035 46.8791 9.85035 46.912 9.80322C46.9521 9.74513 46.992 9.68744 47.0314 9.62894C47.3768 9.12925 47.8196 8.83269 48.4127 8.71488C49.0058 8.65841 49.5664 8.82294 50.0093 9.23081V9.22199Z" fill="#E5F1E5"/>
</g>
<defs>
<clipPath id="clip0_1392_73">
<rect width="65" height="65" fill="white"/>
</clipPath>
</defs>
</svg>
